<svg width="1783" height="603" viewBox="0 0 1783 603" fill="none" xmlns="http://www.w3.org/2000/svg">
<rect y="111.588" width="599.982" height="24.9444" transform="rotate(-0.629086 0 111.588)" fill="#FF9C40"/>
<rect x="1061.98" y="293.563" width="718.712" height="221.382" stroke="#FF8412" stroke-width="3.11806" stroke-dasharray="17.15 17.15"/>
<path d="M1163.62 111.636L1163.77 106.961L1167.81 107.092L1168.27 111.112L1163.62 111.636ZM1184.05 263.571C1182.44 265.591 1179.5 265.922 1177.48 264.311L1144.57 238.064C1142.55 236.453 1142.22 233.511 1143.83 231.491C1145.44 229.472 1148.39 229.14 1150.41 230.751L1179.66 254.082L1202.99 224.83C1204.6 222.811 1207.54 222.48 1209.56 224.09C1211.58 225.701 1211.91 228.644 1210.3 230.663L1184.05 263.571ZM650.151 90.3254L658.712 90.6026L658.409 99.9519L649.849 99.6746L650.151 90.3254ZM675.832 91.1572L692.953 91.7117L692.65 101.061L675.53 100.506L675.832 91.1572ZM710.074 92.2662L727.194 92.8207L726.891 102.17L709.771 101.615L710.074 92.2662ZM744.315 93.3752L761.436 93.9298L761.133 103.279L744.012 102.725L744.315 93.3752ZM778.556 94.4843L795.677 95.0388L795.374 104.388L778.253 103.834L778.556 94.4843ZM812.797 95.5933L829.918 96.1479L829.615 105.497L812.495 104.943L812.797 95.5933ZM847.039 96.7024L864.159 97.2569L863.857 106.606L846.736 106.052L847.039 96.7024ZM881.28 97.8114L898.401 98.366L898.098 107.715L880.977 107.161L881.28 97.8114ZM915.521 98.9205L932.642 99.475L932.339 108.824L915.218 108.27L915.521 98.9205ZM949.762 100.03L966.883 100.584L966.58 109.933L949.46 109.379L949.762 100.03ZM984.004 101.139L1001.12 101.693L1000.82 111.042L983.701 110.488L984.004 101.139ZM1018.24 102.248L1035.37 102.802L1035.06 112.151L1017.94 111.597L1018.24 102.248ZM1052.49 103.357L1069.61 103.911L1069.3 113.26L1052.18 112.706L1052.49 103.357ZM1086.73 104.466L1103.85 105.02L1103.55 114.37L1086.42 113.815L1086.73 104.466ZM1120.97 105.575L1138.09 106.129L1137.79 115.479L1120.67 114.924L1120.97 105.575ZM1155.21 106.684L1163.77 106.961L1163.47 116.31L1154.91 116.033L1155.21 106.684ZM1168.27 111.112L1169.32 120.426L1160.02 121.473L1158.97 112.159L1168.27 111.112ZM1171.41 139.054L1173.51 157.681L1164.21 158.728L1162.12 140.1L1171.41 139.054ZM1175.61 176.308L1177.71 194.936L1168.41 195.982L1166.31 177.355L1175.61 176.308ZM1179.8 213.563L1181.9 232.191L1172.6 233.237L1170.51 214.61L1179.8 213.563ZM1184 250.818L1185.05 260.132L1175.75 261.178L1174.7 251.865L1184 250.818Z" fill="#FF9C40"/>
<path d="M1598.03 542.282L1599.27 540.608L1597.3 539.971L1597.79 538.716L1599.69 539.353V537.206H1601.09V539.353L1602.96 538.716L1603.45 539.971L1601.52 540.608L1602.74 542.282L1601.63 543.1L1600.4 541.336L1599.16 543.1L1598.03 542.282ZM1610.56 550.486C1609.65 550.486 1608.8 550.322 1608.03 549.995C1607.26 549.655 1606.6 549.188 1606.05 548.594C1605.5 547.988 1605.07 547.278 1604.75 546.466C1604.45 545.641 1604.3 544.737 1604.3 543.755C1604.3 542.797 1604.44 541.906 1604.74 541.081C1605.03 540.244 1605.44 539.523 1605.97 538.916C1606.52 538.298 1607.17 537.819 1607.94 537.479C1608.71 537.127 1609.58 536.952 1610.54 536.952C1611.34 536.952 1612.05 537.067 1612.69 537.297C1613.32 537.516 1613.86 537.825 1614.3 538.225C1614.77 538.613 1615.13 539.074 1615.4 539.607C1615.66 540.141 1615.83 540.717 1615.91 541.336H1613.29C1613.16 540.681 1612.87 540.159 1612.39 539.771C1611.92 539.371 1611.3 539.171 1610.54 539.171C1609.93 539.171 1609.41 539.292 1608.96 539.535C1608.52 539.765 1608.16 540.087 1607.86 540.499C1607.57 540.911 1607.36 541.396 1607.21 541.954C1607.06 542.512 1606.99 543.112 1606.99 543.755C1606.99 544.422 1607.07 545.034 1607.23 545.592C1607.4 546.15 1607.63 546.635 1607.94 547.048C1608.25 547.448 1608.63 547.763 1609.07 547.994C1609.51 548.212 1610.01 548.321 1610.56 548.321C1611.33 548.321 1611.97 548.115 1612.47 547.703C1612.98 547.278 1613.27 546.72 1613.36 546.029H1615.94C1615.91 546.611 1615.77 547.169 1615.52 547.703C1615.28 548.224 1614.94 548.691 1614.5 549.103C1614.06 549.528 1613.51 549.867 1612.87 550.122C1612.24 550.364 1611.47 550.486 1610.56 550.486ZM1619.57 542.1H1619.63C1619.97 541.602 1620.34 541.233 1620.75 540.99C1621.17 540.747 1621.69 540.626 1622.34 540.626C1622.82 540.626 1623.26 540.717 1623.65 540.899C1624.05 541.069 1624.39 541.311 1624.67 541.627C1624.94 541.93 1625.16 542.294 1625.32 542.718C1625.48 543.143 1625.56 543.61 1625.56 544.119V550.213H1623.08V544.483C1623.08 543.973 1622.94 543.561 1622.67 543.246C1622.39 542.93 1621.99 542.773 1621.46 542.773C1620.92 542.773 1620.46 542.973 1620.1 543.373C1619.75 543.761 1619.57 544.277 1619.57 544.919V550.213H1617.1V537.206H1619.57V542.1ZM1631.47 550.486C1630.69 550.486 1630 550.358 1629.39 550.104C1628.8 549.849 1628.3 549.503 1627.88 549.067C1627.47 548.618 1627.16 548.091 1626.94 547.484C1626.73 546.878 1626.63 546.229 1626.63 545.538C1626.63 544.847 1626.74 544.204 1626.96 543.61C1627.19 543.003 1627.5 542.482 1627.9 542.045C1628.31 541.609 1628.8 541.263 1629.36 541.008C1629.93 540.754 1630.55 540.626 1631.23 540.626C1631.98 540.626 1632.64 540.766 1633.21 541.045C1633.78 541.311 1634.26 541.693 1634.65 542.191C1635.04 542.688 1635.33 543.282 1635.52 543.973C1635.73 544.652 1635.83 545.41 1635.83 546.247H1629.07C1629.16 546.975 1629.4 547.545 1629.79 547.957C1630.19 548.37 1630.74 548.576 1631.45 548.576C1631.93 548.576 1632.32 548.473 1632.61 548.266C1632.9 548.06 1633.12 547.781 1633.25 547.43H1635.69C1635.6 547.842 1635.44 548.236 1635.21 548.612C1635 548.976 1634.7 549.297 1634.34 549.576C1633.99 549.855 1633.57 550.073 1633.09 550.231C1632.6 550.401 1632.06 550.486 1631.47 550.486ZM1631.27 542.536C1630.61 542.536 1630.11 542.718 1629.77 543.082C1629.44 543.434 1629.21 543.919 1629.1 544.537H1633.25C1633.21 543.943 1633.01 543.464 1632.65 543.1C1632.3 542.724 1631.84 542.536 1631.27 542.536ZM1641.31 550.486C1640.57 550.486 1639.9 550.358 1639.31 550.104C1638.72 549.849 1638.23 549.503 1637.81 549.067C1637.4 548.618 1637.08 548.097 1636.85 547.502C1636.63 546.896 1636.52 546.247 1636.52 545.556C1636.52 544.865 1636.63 544.222 1636.85 543.628C1637.07 543.021 1637.38 542.5 1637.78 542.063C1638.19 541.615 1638.68 541.263 1639.25 541.008C1639.82 540.754 1640.46 540.626 1641.18 540.626C1641.79 540.626 1642.33 540.711 1642.82 540.881C1643.3 541.051 1643.72 541.287 1644.07 541.59C1644.44 541.881 1644.73 542.239 1644.94 542.664C1645.18 543.076 1645.33 543.537 1645.42 544.046H1643C1642.91 543.634 1642.72 543.294 1642.42 543.027C1642.13 542.748 1641.75 542.609 1641.29 542.609C1640.54 542.609 1639.97 542.876 1639.6 543.409C1639.22 543.931 1639.03 544.646 1639.03 545.556C1639.03 546.441 1639.21 547.157 1639.56 547.703C1639.92 548.236 1640.49 548.503 1641.25 548.503C1641.76 548.503 1642.18 548.376 1642.51 548.121C1642.83 547.854 1643.04 547.454 1643.13 546.92H1645.51C1645.47 547.418 1645.35 547.884 1645.13 548.321C1644.92 548.745 1644.64 549.121 1644.27 549.449C1643.92 549.764 1643.49 550.019 1642.98 550.213C1642.48 550.395 1641.93 550.486 1641.31 550.486ZM1650.12 545.956L1649.04 547.066V550.213H1646.59V537.206H1649.04V544.41L1652.35 540.881H1655.32L1651.88 544.428L1655.74 550.213H1652.74L1650.12 545.956ZM1659.57 540.881H1662.05V550.213H1659.57V540.881ZM1659.57 537.206H1662.05V539.426H1659.57V537.206ZM1666.06 542.154H1666.12C1666.43 541.645 1666.81 541.263 1667.24 541.008C1667.69 540.754 1668.24 540.626 1668.88 540.626C1669.37 540.626 1669.8 540.717 1670.19 540.899C1670.59 541.069 1670.93 541.311 1671.21 541.627C1671.49 541.93 1671.71 542.294 1671.86 542.718C1672.02 543.143 1672.1 543.61 1672.1 544.119V550.213H1669.63V544.483C1669.63 543.973 1669.49 543.561 1669.21 543.246C1668.93 542.93 1668.53 542.773 1668.01 542.773C1667.46 542.773 1667.01 542.973 1666.64 543.373C1666.29 543.761 1666.12 544.277 1666.12 544.919V550.213H1663.64V540.881H1666.06V542.154ZM1682.56 550.213C1682.48 550.116 1682.42 549.97 1682.38 549.776C1682.33 549.582 1682.29 549.382 1682.27 549.176H1682.23C1682.11 549.358 1681.97 549.528 1681.81 549.685C1681.67 549.831 1681.48 549.958 1681.27 550.067C1681.06 550.177 1680.81 550.261 1680.52 550.322C1680.23 550.395 1679.88 550.431 1679.48 550.431C1678.52 550.431 1677.74 550.189 1677.14 549.704C1676.53 549.218 1676.23 548.509 1676.23 547.575C1676.23 547.066 1676.32 546.635 1676.52 546.284C1676.71 545.932 1676.98 545.641 1677.32 545.41C1677.66 545.18 1678.05 545.004 1678.5 544.883C1678.96 544.75 1679.45 544.646 1679.97 544.574C1680.75 544.465 1681.32 544.349 1681.68 544.228C1682.05 544.107 1682.23 543.87 1682.23 543.519C1682.23 543.179 1682.1 542.912 1681.83 542.718C1681.57 542.512 1681.19 542.409 1680.67 542.409C1680.08 542.409 1679.65 542.518 1679.36 542.736C1679.06 542.943 1678.9 543.27 1678.86 543.719H1676.66C1676.68 543.306 1676.77 542.918 1676.94 542.554C1677.11 542.178 1677.35 541.851 1677.68 541.572C1678.01 541.293 1678.42 541.069 1678.92 540.899C1679.42 540.729 1680 540.644 1680.68 540.644C1682.08 540.644 1683.08 540.948 1683.69 541.554C1684.3 542.148 1684.61 542.991 1684.61 544.082V548.83C1684.61 549.534 1684.72 549.964 1684.94 550.122V550.213H1682.56ZM1680.08 548.703C1680.43 548.703 1680.74 548.655 1681.01 548.558C1681.29 548.448 1681.52 548.315 1681.7 548.157C1681.9 547.988 1682.04 547.8 1682.14 547.593C1682.24 547.375 1682.28 547.151 1682.28 546.92V545.52C1682.07 545.653 1681.8 545.762 1681.48 545.847C1681.18 545.92 1680.87 545.993 1680.56 546.065C1679.9 546.211 1679.42 546.381 1679.1 546.575C1678.79 546.769 1678.63 547.084 1678.63 547.521C1678.63 547.957 1678.76 548.266 1679.03 548.448C1679.29 548.618 1679.65 548.703 1680.08 548.703ZM1685.46 540.881H1686.75V537.97H1689.17V540.881H1690.77V542.518H1689.17V547.466C1689.17 547.818 1689.26 548.06 1689.43 548.194C1689.6 548.327 1689.82 548.394 1690.1 548.394H1690.57C1690.66 548.394 1690.74 548.388 1690.83 548.376V550.195C1690.71 550.207 1690.57 550.213 1690.43 550.213C1690.29 550.225 1690.13 550.231 1689.94 550.231C1689.74 550.231 1689.52 550.231 1689.28 550.231C1688.98 550.231 1688.68 550.201 1688.37 550.14C1688.08 550.067 1687.81 549.946 1687.57 549.776C1687.33 549.607 1687.13 549.376 1686.97 549.085C1686.83 548.794 1686.75 548.43 1686.75 547.994V542.518H1685.46V540.881ZM1695.3 537.206H1704.62V539.444H1697.94V542.573H1703.6V544.828H1697.94V550.213H1695.3V537.206ZM1707.74 542.373H1707.79C1708.07 541.839 1708.39 541.439 1708.74 541.172C1709.09 540.905 1709.54 540.772 1710.08 540.772C1710.34 540.772 1710.53 540.796 1710.67 540.844V543.009H1710.61C1709.8 542.924 1709.13 543.1 1708.61 543.537C1708.09 543.973 1707.83 544.683 1707.83 545.665V550.213H1705.35V540.881H1707.74V542.373ZM1715.89 550.486C1715.16 550.486 1714.5 550.358 1713.9 550.104C1713.31 549.849 1712.79 549.503 1712.36 549.067C1711.93 548.618 1711.6 548.097 1711.36 547.502C1711.13 546.896 1711.01 546.247 1711.01 545.556C1711.01 544.865 1711.13 544.222 1711.36 543.628C1711.6 543.021 1711.93 542.5 1712.36 542.063C1712.79 541.615 1713.31 541.263 1713.9 541.008C1714.5 540.754 1715.16 540.626 1715.89 540.626C1716.61 540.626 1717.27 540.754 1717.87 541.008C1718.46 541.263 1718.97 541.615 1719.4 542.063C1719.83 542.5 1720.17 543.021 1720.4 543.628C1720.64 544.222 1720.76 544.865 1720.76 545.556C1720.76 546.247 1720.64 546.896 1720.4 547.502C1720.17 548.097 1719.83 548.618 1719.4 549.067C1718.97 549.503 1718.46 549.849 1717.87 550.104C1717.27 550.358 1716.61 550.486 1715.89 550.486ZM1715.89 548.594C1716.65 548.594 1717.23 548.315 1717.63 547.757C1718.04 547.199 1718.25 546.466 1718.25 545.556C1718.25 544.646 1718.04 543.913 1717.63 543.355C1717.23 542.785 1716.65 542.5 1715.89 542.5C1715.12 542.5 1714.53 542.785 1714.12 543.355C1713.72 543.913 1713.52 544.646 1713.52 545.556C1713.52 546.466 1713.72 547.199 1714.12 547.757C1714.53 548.315 1715.12 548.594 1715.89 548.594ZM1724.33 542.154H1724.38C1724.7 541.645 1725.08 541.263 1725.51 541.008C1725.96 540.754 1726.51 540.626 1727.15 540.626C1727.63 540.626 1728.07 540.717 1728.46 540.899C1728.86 541.069 1729.2 541.311 1729.48 541.627C1729.76 541.93 1729.98 542.294 1730.13 542.718C1730.29 543.143 1730.37 543.61 1730.37 544.119V550.213H1727.9V544.483C1727.9 543.973 1727.76 543.561 1727.48 543.246C1727.2 542.93 1726.8 542.773 1726.28 542.773C1725.73 542.773 1725.28 542.973 1724.91 543.373C1724.56 543.761 1724.38 544.277 1724.38 544.919V550.213H1721.91V540.881H1724.33V542.154ZM1731.17 540.881H1732.46V537.97H1734.88V540.881H1736.48V542.518H1734.88V547.466C1734.88 547.818 1734.97 548.06 1735.14 548.194C1735.31 548.327 1735.53 548.394 1735.81 548.394H1736.28C1736.37 548.394 1736.45 548.388 1736.54 548.376V550.195C1736.42 550.207 1736.28 550.213 1736.14 550.213C1736 550.225 1735.84 550.231 1735.65 550.231C1735.45 550.231 1735.23 550.231 1734.99 550.231C1734.69 550.231 1734.38 550.201 1734.08 550.14C1733.79 550.067 1733.52 549.946 1733.28 549.776C1733.04 549.607 1732.84 549.376 1732.68 549.085C1732.54 548.794 1732.46 548.43 1732.46 547.994V542.518H1731.17V540.881ZM1741.01 537.206H1746.09C1746.96 537.206 1747.75 537.376 1748.45 537.716C1749.16 538.043 1749.76 538.504 1750.25 539.098C1750.75 539.68 1751.13 540.378 1751.4 541.19C1751.67 542.003 1751.8 542.888 1751.8 543.846C1751.8 544.913 1751.62 545.889 1751.27 546.775C1750.93 547.648 1750.42 548.376 1749.73 548.958C1749.24 549.358 1748.68 549.667 1748.05 549.885C1747.42 550.104 1746.69 550.213 1745.87 550.213H1741.01V537.206ZM1745.69 547.939C1746.92 547.939 1747.8 547.581 1748.33 546.866C1748.86 546.15 1749.13 545.144 1749.13 543.846C1749.13 543.203 1749.05 542.615 1748.91 542.081C1748.77 541.536 1748.56 541.069 1748.27 540.681C1747.99 540.293 1747.64 539.996 1747.22 539.789C1746.8 539.571 1746.32 539.462 1745.76 539.462H1743.65V547.939H1745.69ZM1757.42 550.486C1756.64 550.486 1755.95 550.358 1755.34 550.104C1754.75 549.849 1754.25 549.503 1753.83 549.067C1753.42 548.618 1753.11 548.091 1752.89 547.484C1752.68 546.878 1752.58 546.229 1752.58 545.538C1752.58 544.847 1752.69 544.204 1752.91 543.61C1753.14 543.003 1753.45 542.482 1753.85 542.045C1754.27 541.609 1754.75 541.263 1755.31 541.008C1755.88 540.754 1756.5 540.626 1757.18 540.626C1757.93 540.626 1758.59 540.766 1759.16 541.045C1759.73 541.311 1760.21 541.693 1760.6 542.191C1760.99 542.688 1761.28 543.282 1761.47 543.973C1761.68 544.652 1761.78 545.41 1761.78 546.247H1755.02C1755.11 546.975 1755.36 547.545 1755.74 547.957C1756.14 548.37 1756.7 548.576 1757.4 548.576C1757.89 548.576 1758.27 548.473 1758.56 548.266C1758.86 548.06 1759.07 547.781 1759.2 547.43H1761.64C1761.55 547.842 1761.4 548.236 1761.17 548.612C1760.95 548.976 1760.66 549.297 1760.29 549.576C1759.94 549.855 1759.52 550.073 1759.04 550.231C1758.55 550.401 1758.01 550.486 1757.42 550.486ZM1757.22 542.536C1756.56 542.536 1756.07 542.718 1755.73 543.082C1755.39 543.434 1755.16 543.919 1755.05 544.537H1759.2C1759.16 543.943 1758.96 543.464 1758.6 543.1C1758.25 542.724 1757.79 542.536 1757.22 542.536ZM1766.71 550.486C1765.35 550.486 1764.31 550.189 1763.57 549.594C1762.83 548.988 1762.42 548.188 1762.35 547.193H1764.64C1764.72 547.739 1764.94 548.133 1765.29 548.376C1765.66 548.618 1766.12 548.739 1766.68 548.739C1767.22 548.739 1767.64 548.642 1767.93 548.448C1768.23 548.254 1768.39 547.994 1768.39 547.666C1768.39 547.448 1768.31 547.272 1768.17 547.139C1768.03 547.005 1767.85 546.896 1767.62 546.811C1767.4 546.726 1767.14 546.66 1766.84 546.611C1766.55 546.55 1766.25 546.49 1765.93 546.429C1765.51 546.344 1765.09 546.247 1764.69 546.138C1764.31 546.029 1763.95 545.871 1763.64 545.665C1763.34 545.459 1763.09 545.192 1762.89 544.865C1762.71 544.537 1762.62 544.119 1762.62 543.61C1762.62 543.1 1762.72 542.664 1762.91 542.3C1763.11 541.924 1763.37 541.615 1763.71 541.372C1764.06 541.117 1764.47 540.929 1764.93 540.808C1765.39 540.687 1765.89 540.626 1766.42 540.626C1767.66 540.626 1768.61 540.905 1769.28 541.463C1769.94 542.021 1770.33 542.773 1770.42 543.719H1768.19C1768.13 543.209 1767.94 542.858 1767.64 542.664C1767.34 542.457 1766.92 542.354 1766.39 542.354C1765.9 542.354 1765.51 542.445 1765.22 542.627C1764.93 542.797 1764.78 543.052 1764.78 543.391C1764.78 543.597 1764.86 543.761 1765 543.882C1765.15 543.992 1765.34 544.089 1765.57 544.173C1765.81 544.246 1766.08 544.307 1766.39 544.355C1766.7 544.404 1767.02 544.465 1767.35 544.537C1767.74 544.622 1768.13 544.719 1768.51 544.828C1768.91 544.937 1769.27 545.101 1769.59 545.319C1769.9 545.526 1770.16 545.805 1770.35 546.156C1770.55 546.496 1770.64 546.938 1770.64 547.484C1770.64 547.957 1770.55 548.382 1770.35 548.758C1770.16 549.121 1769.88 549.431 1769.53 549.685C1769.19 549.94 1768.78 550.134 1768.3 550.267C1767.82 550.413 1767.3 550.486 1766.71 550.486ZM1775.29 545.956L1774.21 547.066V550.213H1771.76V537.206H1774.21V544.41L1777.52 540.881H1780.49L1777.05 544.428L1780.91 550.213H1777.91L1775.29 545.956Z" fill="#8DA400"/>
<path d="M1633.89 567.225L1635.13 565.551L1633.16 564.915L1633.65 563.659L1635.54 564.296V562.15H1636.94V564.296L1638.82 563.659L1639.31 564.915L1637.38 565.551L1638.6 567.225L1637.49 568.044L1636.25 566.279L1635.02 568.044L1633.89 567.225ZM1640.9 562.15H1643.57L1647.9 569.408C1648 569.59 1648.1 569.79 1648.21 570.008C1648.32 570.214 1648.42 570.408 1648.52 570.59C1648.63 570.809 1648.73 571.021 1648.81 571.227H1648.85C1648.84 570.972 1648.82 570.712 1648.81 570.445C1648.8 570.214 1648.79 569.972 1648.78 569.717C1648.78 569.45 1648.78 569.202 1648.78 568.971V562.15H1651.38V575.156H1648.83L1644.39 567.971C1644.28 567.801 1644.17 567.613 1644.06 567.407C1643.97 567.189 1643.87 566.988 1643.77 566.807C1643.66 566.588 1643.56 566.376 1643.46 566.17H1643.43C1643.44 566.437 1643.45 566.703 1643.46 566.97C1643.48 567.201 1643.48 567.449 1643.48 567.716C1643.49 567.971 1643.5 568.213 1643.5 568.444V575.156H1640.9V562.15ZM1657.59 575.429C1656.86 575.429 1656.2 575.302 1655.61 575.047C1655.01 574.792 1654.5 574.447 1654.06 574.01C1653.64 573.561 1653.3 573.04 1653.06 572.446C1652.83 571.839 1652.71 571.191 1652.71 570.499C1652.71 569.808 1652.83 569.165 1653.06 568.571C1653.3 567.965 1653.64 567.443 1654.06 567.007C1654.5 566.558 1655.01 566.206 1655.61 565.952C1656.2 565.697 1656.86 565.57 1657.59 565.57C1658.32 565.57 1658.98 565.697 1659.57 565.952C1660.17 566.206 1660.68 566.558 1661.1 567.007C1661.54 567.443 1661.87 567.965 1662.1 568.571C1662.34 569.165 1662.47 569.808 1662.47 570.499C1662.47 571.191 1662.34 571.839 1662.1 572.446C1661.87 573.04 1661.54 573.561 1661.1 574.01C1660.68 574.447 1660.17 574.792 1659.57 575.047C1658.98 575.302 1658.32 575.429 1657.59 575.429ZM1657.59 573.537C1658.35 573.537 1658.94 573.258 1659.34 572.7C1659.75 572.143 1659.95 571.409 1659.95 570.499C1659.95 569.59 1659.75 568.856 1659.34 568.298C1658.94 567.728 1658.35 567.443 1657.59 567.443C1656.83 567.443 1656.24 567.728 1655.83 568.298C1655.43 568.856 1655.23 569.59 1655.23 570.499C1655.23 571.409 1655.43 572.143 1655.83 572.7C1656.24 573.258 1656.83 573.537 1657.59 573.537ZM1666.87 562.15H1676.18V564.387H1669.51V567.516H1675.17V569.772H1669.51V575.156H1666.87V562.15ZM1681.07 575.429C1680.35 575.429 1679.69 575.302 1679.09 575.047C1678.5 574.792 1677.98 574.447 1677.55 574.01C1677.12 573.561 1676.79 573.04 1676.55 572.446C1676.31 571.839 1676.2 571.191 1676.2 570.499C1676.2 569.808 1676.31 569.165 1676.55 568.571C1676.79 567.965 1677.12 567.443 1677.55 567.007C1677.98 566.558 1678.5 566.206 1679.09 565.952C1679.69 565.697 1680.35 565.57 1681.07 565.57C1681.8 565.57 1682.46 565.697 1683.06 565.952C1683.65 566.206 1684.16 566.558 1684.59 567.007C1685.02 567.443 1685.36 567.965 1685.59 568.571C1685.83 569.165 1685.95 569.808 1685.95 570.499C1685.95 571.191 1685.83 571.839 1685.59 572.446C1685.36 573.04 1685.02 573.561 1684.59 574.01C1684.16 574.447 1683.65 574.792 1683.06 575.047C1682.46 575.302 1681.8 575.429 1681.07 575.429ZM1681.07 573.537C1681.84 573.537 1682.42 573.258 1682.82 572.7C1683.23 572.143 1683.44 571.409 1683.44 570.499C1683.44 569.59 1683.23 568.856 1682.82 568.298C1682.42 567.728 1681.84 567.443 1681.07 567.443C1680.31 567.443 1679.72 567.728 1679.31 568.298C1678.91 568.856 1678.71 569.59 1678.71 570.499C1678.71 571.409 1678.91 572.143 1679.31 572.7C1679.72 573.258 1680.31 573.537 1681.07 573.537ZM1691.52 575.429C1690.79 575.429 1690.13 575.302 1689.54 575.047C1688.94 574.792 1688.43 574.447 1687.99 574.01C1687.57 573.561 1687.23 573.04 1686.99 572.446C1686.76 571.839 1686.65 571.191 1686.65 570.499C1686.65 569.808 1686.76 569.165 1686.99 568.571C1687.23 567.965 1687.57 567.443 1687.99 567.007C1688.43 566.558 1688.94 566.206 1689.54 565.952C1690.13 565.697 1690.79 565.57 1691.52 565.57C1692.25 565.57 1692.91 565.697 1693.5 565.952C1694.1 566.206 1694.61 566.558 1695.03 567.007C1695.47 567.443 1695.8 567.965 1696.03 568.571C1696.27 569.165 1696.4 569.808 1696.4 570.499C1696.4 571.191 1696.27 571.839 1696.03 572.446C1695.8 573.04 1695.47 573.561 1695.03 574.01C1694.61 574.447 1694.1 574.792 1693.5 575.047C1692.91 575.302 1692.25 575.429 1691.52 575.429ZM1691.52 573.537C1692.28 573.537 1692.87 573.258 1693.27 572.7C1693.68 572.143 1693.89 571.409 1693.89 570.499C1693.89 569.59 1693.68 568.856 1693.27 568.298C1692.87 567.728 1692.28 567.443 1691.52 567.443C1690.76 567.443 1690.17 567.728 1689.76 568.298C1689.36 568.856 1689.16 569.59 1689.16 570.499C1689.16 571.409 1689.36 572.143 1689.76 572.7C1690.17 573.258 1690.76 573.537 1691.52 573.537ZM1701.04 575.429C1700.46 575.429 1699.92 575.314 1699.44 575.083C1698.95 574.853 1698.53 574.526 1698.18 574.101C1697.84 573.677 1697.58 573.161 1697.38 572.555C1697.19 571.936 1697.09 571.251 1697.09 570.499C1697.09 569.772 1697.19 569.105 1697.38 568.498C1697.58 567.892 1697.85 567.377 1698.2 566.952C1698.56 566.515 1698.99 566.176 1699.47 565.933C1699.96 565.691 1700.49 565.57 1701.07 565.57C1701.73 565.57 1702.27 565.703 1702.69 565.97C1703.12 566.237 1703.46 566.564 1703.71 566.952H1703.77V562.15H1706.24V575.156H1703.86V573.937H1703.82C1703.54 574.386 1703.17 574.75 1702.71 575.029C1702.25 575.296 1701.69 575.429 1701.04 575.429ZM1701.58 573.355C1702.32 573.355 1702.88 573.107 1703.26 572.609C1703.63 572.1 1703.82 571.415 1703.82 570.554C1703.82 570.105 1703.78 569.699 1703.69 569.335C1703.62 568.971 1703.5 568.662 1703.33 568.407C1703.16 568.141 1702.94 567.934 1702.66 567.789C1702.39 567.643 1702.06 567.571 1701.66 567.571C1700.98 567.571 1700.46 567.843 1700.11 568.389C1699.77 568.935 1699.6 569.638 1699.6 570.499C1699.6 571.409 1699.77 572.112 1700.11 572.609C1700.45 573.107 1700.94 573.355 1701.58 573.355ZM1715.33 575.429C1714.6 575.429 1713.94 575.302 1713.34 575.047C1712.75 574.792 1712.23 574.447 1711.8 574.01C1711.37 573.561 1711.04 573.04 1710.8 572.446C1710.57 571.839 1710.45 571.191 1710.45 570.499C1710.45 569.808 1710.57 569.165 1710.8 568.571C1711.04 567.965 1711.37 567.443 1711.8 567.007C1712.23 566.558 1712.75 566.206 1713.34 565.952C1713.94 565.697 1714.6 565.57 1715.33 565.57C1716.05 565.57 1716.71 565.697 1717.31 565.952C1717.9 566.206 1718.41 566.558 1718.84 567.007C1719.27 567.443 1719.61 567.965 1719.84 568.571C1720.08 569.165 1720.2 569.808 1720.2 570.499C1720.2 571.191 1720.08 571.839 1719.84 572.446C1719.61 573.04 1719.27 573.561 1718.84 574.01C1718.41 574.447 1717.9 574.792 1717.31 575.047C1716.71 575.302 1716.05 575.429 1715.33 575.429ZM1715.33 573.537C1716.09 573.537 1716.67 573.258 1717.07 572.7C1717.48 572.143 1717.69 571.409 1717.69 570.499C1717.69 569.59 1717.48 568.856 1717.07 568.298C1716.67 567.728 1716.09 567.443 1715.33 567.443C1714.56 567.443 1713.97 567.728 1713.56 568.298C1713.16 568.856 1712.96 569.59 1712.96 570.499C1712.96 571.409 1713.16 572.143 1713.56 572.7C1713.97 573.258 1714.56 573.537 1715.33 573.537ZM1723.73 567.316H1723.79C1724.07 566.782 1724.38 566.382 1724.73 566.115C1725.09 565.848 1725.53 565.715 1726.08 565.715C1726.33 565.715 1726.53 565.739 1726.66 565.788V567.953H1726.61C1725.8 567.868 1725.13 568.044 1724.61 568.48C1724.09 568.917 1723.82 569.626 1723.82 570.608V575.156H1721.35V565.824H1723.73V567.316ZM1730.98 562.15H1736.06C1736.93 562.15 1737.72 562.319 1738.42 562.659C1739.13 562.986 1739.73 563.447 1740.22 564.042C1740.72 564.624 1741.1 565.321 1741.37 566.133C1741.64 566.946 1741.77 567.831 1741.77 568.789C1741.77 569.857 1741.6 570.833 1741.24 571.718C1740.9 572.591 1740.39 573.319 1739.7 573.901C1739.21 574.301 1738.65 574.611 1738.02 574.829C1737.39 575.047 1736.67 575.156 1735.84 575.156H1730.98V562.15ZM1735.66 572.882C1736.9 572.882 1737.77 572.525 1738.3 571.809C1738.83 571.094 1739.1 570.087 1739.1 568.789C1739.1 568.147 1739.02 567.558 1738.88 567.025C1738.75 566.479 1738.53 566.012 1738.24 565.624C1737.96 565.236 1737.61 564.939 1737.19 564.733C1736.77 564.514 1736.29 564.405 1735.73 564.405H1733.62V572.882H1735.66ZM1745.39 567.316H1745.44C1745.72 566.782 1746.04 566.382 1746.39 566.115C1746.74 565.848 1747.19 565.715 1747.74 565.715C1747.99 565.715 1748.18 565.739 1748.32 565.788V567.953H1748.26C1747.45 567.868 1746.78 568.044 1746.26 568.48C1745.74 568.917 1745.48 569.626 1745.48 570.608V575.156H1743.01V565.824H1745.39V567.316ZM1749.38 565.824H1751.86V575.156H1749.38V565.824ZM1749.38 562.15H1751.86V564.369H1749.38V562.15ZM1755.87 567.098H1755.93C1756.24 566.588 1756.62 566.206 1757.05 565.952C1757.5 565.697 1758.05 565.57 1758.69 565.57C1759.18 565.57 1759.61 565.661 1760 565.842C1760.4 566.012 1760.74 566.255 1761.02 566.57C1761.3 566.873 1761.52 567.237 1761.67 567.662C1761.83 568.086 1761.91 568.553 1761.91 569.062V575.156H1759.44V569.426C1759.44 568.917 1759.3 568.504 1759.02 568.189C1758.74 567.874 1758.34 567.716 1757.82 567.716C1757.27 567.716 1756.82 567.916 1756.45 568.316C1756.1 568.704 1755.93 569.22 1755.93 569.863V575.156H1753.45V565.824H1755.87V567.098ZM1766.96 570.9L1765.89 572.009V575.156H1763.44V562.15H1765.89V569.353L1769.2 565.824H1772.17L1768.73 569.371L1772.59 575.156H1769.58L1766.96 570.9ZM1776.88 575.429C1775.52 575.429 1774.48 575.132 1773.74 574.538C1773 573.931 1772.59 573.131 1772.52 572.137H1774.81C1774.89 572.682 1775.11 573.076 1775.46 573.319C1775.83 573.561 1776.29 573.683 1776.85 573.683C1777.39 573.683 1777.81 573.586 1778.1 573.392C1778.4 573.198 1778.56 572.937 1778.56 572.609C1778.56 572.391 1778.48 572.215 1778.34 572.082C1778.2 571.949 1778.02 571.839 1777.79 571.755C1777.57 571.67 1777.31 571.603 1777.01 571.554C1776.72 571.494 1776.42 571.433 1776.1 571.373C1775.68 571.288 1775.26 571.191 1774.86 571.081C1774.48 570.972 1774.12 570.815 1773.81 570.608C1773.51 570.402 1773.26 570.136 1773.06 569.808C1772.88 569.481 1772.79 569.062 1772.79 568.553C1772.79 568.044 1772.89 567.607 1773.08 567.243C1773.27 566.867 1773.54 566.558 1773.88 566.315C1774.23 566.061 1774.64 565.873 1775.1 565.751C1775.56 565.63 1776.06 565.57 1776.59 565.57C1777.83 565.57 1778.78 565.848 1779.45 566.406C1780.11 566.964 1780.5 567.716 1780.59 568.662H1778.36C1778.3 568.153 1778.11 567.801 1777.81 567.607C1777.51 567.401 1777.09 567.298 1776.56 567.298C1776.07 567.298 1775.68 567.389 1775.39 567.571C1775.1 567.74 1774.95 567.995 1774.95 568.335C1774.95 568.541 1775.03 568.704 1775.17 568.826C1775.32 568.935 1775.51 569.032 1775.74 569.117C1775.98 569.19 1776.25 569.25 1776.56 569.299C1776.87 569.347 1777.19 569.408 1777.52 569.481C1777.91 569.566 1778.3 569.663 1778.68 569.772C1779.08 569.881 1779.44 570.045 1779.76 570.263C1780.07 570.469 1780.33 570.748 1780.52 571.1C1780.72 571.439 1780.81 571.882 1780.81 572.428C1780.81 572.901 1780.72 573.325 1780.52 573.701C1780.33 574.065 1780.05 574.374 1779.7 574.629C1779.36 574.883 1778.95 575.077 1778.47 575.211C1777.99 575.356 1777.46 575.429 1776.88 575.429Z" fill="#8DA400"/>
<path d="M1569.97 591.129L1571.21 589.456L1569.24 588.819L1569.73 587.564L1571.62 588.2V586.054H1573.02V588.2L1574.9 587.564L1575.39 588.819L1573.46 589.456L1574.68 591.129L1573.57 591.948L1572.33 590.183L1571.1 591.948L1569.97 591.129ZM1576.98 586.054H1579.65L1583.98 593.312C1584.08 593.494 1584.18 593.694 1584.29 593.912C1584.4 594.119 1584.5 594.313 1584.6 594.495C1584.71 594.713 1584.81 594.925 1584.89 595.131H1584.93C1584.92 594.877 1584.9 594.616 1584.89 594.349C1584.88 594.119 1584.87 593.876 1584.86 593.621C1584.86 593.355 1584.86 593.106 1584.86 592.876V586.054H1587.46V599.061H1584.91L1580.47 591.875C1580.36 591.705 1580.25 591.517 1580.14 591.311C1580.05 591.093 1579.95 590.893 1579.85 590.711C1579.74 590.493 1579.64 590.28 1579.54 590.074H1579.51C1579.52 590.341 1579.53 590.608 1579.54 590.875C1579.56 591.105 1579.56 591.354 1579.56 591.62C1579.57 591.875 1579.58 592.118 1579.58 592.348V599.061H1576.98V586.054ZM1593.67 599.333C1592.94 599.333 1592.28 599.206 1591.69 598.951C1591.09 598.697 1590.58 598.351 1590.14 597.915C1589.72 597.466 1589.38 596.944 1589.14 596.35C1588.91 595.744 1588.79 595.095 1588.79 594.404C1588.79 593.712 1588.91 593.07 1589.14 592.475C1589.38 591.869 1589.72 591.348 1590.14 590.911C1590.58 590.462 1591.09 590.111 1591.69 589.856C1592.28 589.601 1592.94 589.474 1593.67 589.474C1594.4 589.474 1595.06 589.601 1595.65 589.856C1596.25 590.111 1596.76 590.462 1597.18 590.911C1597.62 591.348 1597.95 591.869 1598.18 592.475C1598.42 593.07 1598.54 593.712 1598.54 594.404C1598.54 595.095 1598.42 595.744 1598.18 596.35C1597.95 596.944 1597.62 597.466 1597.18 597.915C1596.76 598.351 1596.25 598.697 1595.65 598.951C1595.06 599.206 1594.4 599.333 1593.67 599.333ZM1593.67 597.442C1594.43 597.442 1595.02 597.163 1595.42 596.605C1595.83 596.047 1596.03 595.313 1596.03 594.404C1596.03 593.494 1595.83 592.76 1595.42 592.203C1595.02 591.633 1594.43 591.348 1593.67 591.348C1592.91 591.348 1592.32 591.633 1591.91 592.203C1591.5 592.76 1591.3 593.494 1591.3 594.404C1591.3 595.313 1591.5 596.047 1591.91 596.605C1592.32 597.163 1592.91 597.442 1593.67 597.442ZM1602.95 586.054H1608.77C1609.48 586.054 1610.09 586.139 1610.61 586.309C1611.14 586.466 1611.58 586.697 1611.92 587C1612.61 587.618 1612.96 588.431 1612.96 589.437C1612.96 590.104 1612.77 590.656 1612.39 591.093C1612.03 591.517 1611.54 591.833 1610.92 592.039V592.093C1611.65 592.3 1612.23 592.688 1612.66 593.258C1613.11 593.828 1613.34 594.513 1613.34 595.313C1613.34 595.932 1613.24 596.459 1613.05 596.896C1612.86 597.32 1612.58 597.696 1612.19 598.024C1611.82 598.351 1611.35 598.606 1610.79 598.788C1610.23 598.97 1609.61 599.061 1608.92 599.061H1602.95V586.054ZM1605.59 596.878H1608.63C1609.27 596.878 1609.77 596.72 1610.12 596.405C1610.48 596.077 1610.66 595.647 1610.66 595.113C1610.66 594.495 1610.46 594.028 1610.06 593.712C1609.66 593.397 1609.16 593.239 1608.55 593.239H1605.59V596.878ZM1608.44 591.293C1609.03 591.293 1609.49 591.16 1609.84 590.893C1610.2 590.626 1610.37 590.238 1610.37 589.729C1610.37 589.243 1610.2 588.867 1609.86 588.601C1609.54 588.334 1609.08 588.2 1608.5 588.2H1605.59V591.293H1608.44ZM1620.56 599.061C1620.49 598.964 1620.43 598.818 1620.38 598.624C1620.33 598.43 1620.3 598.23 1620.27 598.024H1620.24C1620.12 598.206 1619.98 598.375 1619.82 598.533C1619.67 598.679 1619.49 598.806 1619.27 598.915C1619.07 599.024 1618.82 599.109 1618.53 599.17C1618.24 599.242 1617.89 599.279 1617.49 599.279C1616.53 599.279 1615.75 599.036 1615.14 598.551C1614.54 598.066 1614.23 597.357 1614.23 596.423C1614.23 595.913 1614.33 595.483 1614.52 595.131C1614.72 594.78 1614.99 594.489 1615.33 594.258C1615.66 594.028 1616.06 593.852 1616.51 593.731C1616.97 593.597 1617.46 593.494 1617.98 593.421C1618.76 593.312 1619.33 593.197 1619.69 593.076C1620.05 592.954 1620.24 592.718 1620.24 592.366C1620.24 592.027 1620.1 591.76 1619.84 591.566C1619.58 591.36 1619.19 591.257 1618.67 591.257C1618.09 591.257 1617.65 591.366 1617.36 591.584C1617.07 591.79 1616.91 592.118 1616.87 592.566H1614.67C1614.68 592.154 1614.77 591.766 1614.94 591.402C1615.11 591.026 1615.36 590.699 1615.69 590.42C1616.02 590.141 1616.43 589.916 1616.93 589.747C1617.42 589.577 1618.01 589.492 1618.69 589.492C1620.09 589.492 1621.09 589.795 1621.69 590.402C1622.31 590.996 1622.62 591.839 1622.62 592.93V597.678C1622.62 598.381 1622.73 598.812 1622.95 598.97V599.061H1620.56ZM1618.09 597.551C1618.44 597.551 1618.75 597.502 1619.02 597.405C1619.3 597.296 1619.53 597.163 1619.71 597.005C1619.9 596.835 1620.05 596.647 1620.15 596.441C1620.24 596.223 1620.29 595.998 1620.29 595.768V594.367C1620.07 594.501 1619.81 594.61 1619.49 594.695C1619.19 594.767 1618.88 594.84 1618.56 594.913C1617.91 595.059 1617.42 595.228 1617.11 595.422C1616.79 595.616 1616.63 595.932 1616.63 596.368C1616.63 596.805 1616.77 597.114 1617.03 597.296C1617.3 597.466 1617.65 597.551 1618.09 597.551ZM1628.3 602.244C1627.02 602.244 1626 601.983 1625.25 601.462C1624.51 600.952 1624.07 600.243 1623.94 599.333H1626.39C1626.49 599.624 1626.68 599.867 1626.96 600.061C1627.25 600.267 1627.69 600.37 1628.27 600.37C1629.65 600.37 1630.34 599.721 1630.34 598.424V597.405H1630.29C1630.01 597.72 1629.68 597.981 1629.3 598.187C1628.93 598.394 1628.44 598.497 1627.85 598.497C1627.33 598.497 1626.82 598.4 1626.32 598.206C1625.84 597.999 1625.4 597.708 1625.01 597.332C1624.64 596.944 1624.33 596.477 1624.08 595.932C1623.85 595.374 1623.74 594.743 1623.74 594.04C1623.74 593.349 1623.83 592.724 1624.03 592.166C1624.23 591.596 1624.51 591.111 1624.87 590.711C1625.23 590.311 1625.65 590.007 1626.14 589.801C1626.64 589.583 1627.18 589.474 1627.78 589.474C1628.36 589.474 1628.86 589.583 1629.29 589.801C1629.72 590.02 1630.08 590.323 1630.36 590.711H1630.4V589.729H1632.78V598.351C1632.78 599.006 1632.68 599.564 1632.49 600.025C1632.29 600.486 1632.02 600.874 1631.67 601.189C1631.28 601.553 1630.8 601.82 1630.21 601.989C1629.63 602.159 1628.99 602.244 1628.3 602.244ZM1628.27 596.514C1628.66 596.514 1628.99 596.447 1629.27 596.314C1629.55 596.18 1629.77 595.998 1629.94 595.768C1630.12 595.538 1630.26 595.271 1630.34 594.968C1630.43 594.664 1630.47 594.337 1630.47 593.985C1630.47 593.646 1630.42 593.324 1630.32 593.021C1630.24 592.706 1630.1 592.433 1629.92 592.203C1629.74 591.972 1629.51 591.79 1629.23 591.657C1628.95 591.523 1628.63 591.457 1628.25 591.457C1627.62 591.457 1627.11 591.687 1626.72 592.148C1626.35 592.597 1626.16 593.215 1626.16 594.003C1626.16 594.804 1626.35 595.422 1626.72 595.859C1627.11 596.296 1627.62 596.514 1628.27 596.514ZM1638.16 599.333C1636.8 599.333 1635.75 599.036 1635.01 598.442C1634.27 597.836 1633.86 597.035 1633.79 596.041H1636.08C1636.17 596.587 1636.38 596.981 1636.74 597.223C1637.1 597.466 1637.56 597.587 1638.12 597.587C1638.66 597.587 1639.08 597.49 1639.37 597.296C1639.68 597.102 1639.83 596.841 1639.83 596.514C1639.83 596.296 1639.76 596.12 1639.61 595.986C1639.48 595.853 1639.3 595.744 1639.06 595.659C1638.85 595.574 1638.59 595.507 1638.28 595.459C1637.99 595.398 1637.69 595.337 1637.37 595.277C1636.95 595.192 1636.54 595.095 1636.14 594.986C1635.75 594.877 1635.4 594.719 1635.08 594.513C1634.78 594.307 1634.53 594.04 1634.34 593.712C1634.15 593.385 1634.06 592.967 1634.06 592.457C1634.06 591.948 1634.16 591.511 1634.35 591.147C1634.55 590.771 1634.81 590.462 1635.15 590.22C1635.51 589.965 1635.91 589.777 1636.37 589.656C1636.83 589.534 1637.33 589.474 1637.86 589.474C1639.1 589.474 1640.05 589.753 1640.72 590.311C1641.39 590.868 1641.77 591.62 1641.87 592.566H1639.63C1639.57 592.057 1639.39 591.705 1639.08 591.511C1638.78 591.305 1638.36 591.202 1637.83 591.202C1637.34 591.202 1636.95 591.293 1636.66 591.475C1636.37 591.645 1636.23 591.899 1636.23 592.239C1636.23 592.445 1636.3 592.609 1636.45 592.73C1636.59 592.839 1636.78 592.936 1637.01 593.021C1637.25 593.094 1637.52 593.155 1637.83 593.203C1638.14 593.252 1638.46 593.312 1638.79 593.385C1639.18 593.47 1639.57 593.567 1639.96 593.676C1640.36 593.785 1640.71 593.949 1641.03 594.167C1641.34 594.373 1641.6 594.652 1641.79 595.004C1641.99 595.344 1642.08 595.786 1642.08 596.332C1642.08 596.805 1641.99 597.229 1641.79 597.605C1641.6 597.969 1641.33 598.278 1640.98 598.533C1640.64 598.788 1640.22 598.982 1639.74 599.115C1639.27 599.261 1638.74 599.333 1638.16 599.333ZM1646.26 589.729H1648.73V599.061H1646.26V589.729ZM1646.26 586.054H1648.73V588.273H1646.26V586.054ZM1652.74 591.002H1652.8C1653.11 590.493 1653.49 590.111 1653.93 589.856C1654.37 589.601 1654.92 589.474 1655.56 589.474C1656.05 589.474 1656.49 589.565 1656.87 589.747C1657.27 589.916 1657.61 590.159 1657.89 590.474C1658.17 590.778 1658.39 591.141 1658.55 591.566C1658.7 591.99 1658.78 592.457 1658.78 592.967V599.061H1656.31V593.33C1656.31 592.821 1656.17 592.409 1655.89 592.093C1655.61 591.778 1655.21 591.62 1654.69 591.62C1654.14 591.62 1653.69 591.82 1653.33 592.221C1652.97 592.609 1652.8 593.124 1652.8 593.767V599.061H1650.32V589.729H1652.74V591.002ZM1673 597.314H1672.97C1672.52 598.066 1671.99 598.594 1671.39 598.897C1670.78 599.188 1670.09 599.333 1669.31 599.333C1668.33 599.333 1667.46 599.17 1666.69 598.842C1665.94 598.503 1665.29 598.036 1664.75 597.442C1664.2 596.835 1663.78 596.126 1663.49 595.313C1663.2 594.489 1663.05 593.585 1663.05 592.603C1663.05 591.511 1663.24 590.511 1663.6 589.601C1663.96 588.692 1664.49 587.922 1665.18 587.291C1665.72 586.806 1666.33 586.436 1667.02 586.181C1667.71 585.927 1668.49 585.799 1669.37 585.799C1670.18 585.799 1670.91 585.908 1671.55 586.127C1672.2 586.333 1672.76 586.63 1673.22 587.018C1673.68 587.406 1674.05 587.867 1674.33 588.401C1674.62 588.934 1674.82 589.516 1674.93 590.147H1672.35C1672.2 589.516 1671.89 589.001 1671.4 588.601C1670.92 588.188 1670.26 587.982 1669.42 587.982C1668.8 587.982 1668.26 588.103 1667.8 588.346C1667.35 588.576 1666.97 588.904 1666.66 589.328C1666.35 589.741 1666.12 590.232 1665.96 590.802C1665.82 591.36 1665.75 591.96 1665.75 592.603C1665.75 593.27 1665.83 593.888 1666 594.458C1666.17 595.016 1666.41 595.501 1666.73 595.913C1667.04 596.314 1667.43 596.629 1667.88 596.859C1668.32 597.09 1668.83 597.205 1669.38 597.205C1669.89 597.205 1670.36 597.12 1670.77 596.95C1671.18 596.781 1671.53 596.556 1671.82 596.277C1672.11 595.998 1672.34 595.683 1672.5 595.331C1672.65 594.98 1672.73 594.622 1672.73 594.258V594.185H1669.6V592.148H1675.08V599.061H1673.1L1673 597.314ZM1682.6 599.061C1682.53 598.964 1682.47 598.818 1682.42 598.624C1682.37 598.43 1682.33 598.23 1682.31 598.024H1682.27C1682.15 598.206 1682.01 598.375 1681.85 598.533C1681.71 598.679 1681.53 598.806 1681.31 598.915C1681.1 599.024 1680.85 599.109 1680.56 599.17C1680.27 599.242 1679.92 599.279 1679.52 599.279C1678.57 599.279 1677.78 599.036 1677.18 598.551C1676.57 598.066 1676.27 597.357 1676.27 596.423C1676.27 595.913 1676.36 595.483 1676.56 595.131C1676.75 594.78 1677.02 594.489 1677.36 594.258C1677.7 594.028 1678.09 593.852 1678.54 593.731C1679 593.597 1679.49 593.494 1680.02 593.421C1680.79 593.312 1681.36 593.197 1681.73 593.076C1682.09 592.954 1682.27 592.718 1682.27 592.366C1682.27 592.027 1682.14 591.76 1681.87 591.566C1681.62 591.36 1681.23 591.257 1680.71 591.257C1680.12 591.257 1679.69 591.366 1679.4 591.584C1679.11 591.79 1678.94 592.118 1678.91 592.566H1676.7C1676.72 592.154 1676.81 591.766 1676.98 591.402C1677.15 591.026 1677.4 590.699 1677.72 590.42C1678.05 590.141 1678.46 589.916 1678.96 589.747C1679.46 589.577 1680.05 589.492 1680.72 589.492C1682.12 589.492 1683.12 589.795 1683.73 590.402C1684.34 590.996 1684.65 591.839 1684.65 592.93V597.678C1684.65 598.381 1684.76 598.812 1684.98 598.97V599.061H1682.6ZM1680.12 597.551C1680.48 597.551 1680.79 597.502 1681.05 597.405C1681.33 597.296 1681.56 597.163 1681.74 597.005C1681.94 596.835 1682.08 596.647 1682.18 596.441C1682.28 596.223 1682.33 595.998 1682.33 595.768V594.367C1682.11 594.501 1681.84 594.61 1681.53 594.695C1681.22 594.767 1680.91 594.84 1680.6 594.913C1679.94 595.059 1679.46 595.228 1679.14 595.422C1678.83 595.616 1678.67 595.932 1678.67 596.368C1678.67 596.805 1678.8 597.114 1679.07 597.296C1679.34 597.466 1679.69 597.551 1680.12 597.551ZM1686.26 586.054H1688.74V599.061H1686.26V586.054ZM1690.4 586.054H1692.88V599.061H1690.4V586.054ZM1698.89 599.333C1698.11 599.333 1697.42 599.206 1696.82 598.951C1696.22 598.697 1695.72 598.351 1695.31 597.915C1694.89 597.466 1694.58 596.938 1694.36 596.332C1694.15 595.726 1694.05 595.077 1694.05 594.385C1694.05 593.694 1694.16 593.051 1694.38 592.457C1694.61 591.851 1694.92 591.329 1695.32 590.893C1695.74 590.456 1696.22 590.111 1696.78 589.856C1697.35 589.601 1697.97 589.474 1698.65 589.474C1699.4 589.474 1700.07 589.613 1700.64 589.892C1701.21 590.159 1701.68 590.541 1702.07 591.038C1702.46 591.536 1702.75 592.13 1702.95 592.821C1703.15 593.5 1703.26 594.258 1703.26 595.095H1696.49C1696.59 595.823 1696.83 596.393 1697.22 596.805C1697.62 597.217 1698.17 597.423 1698.87 597.423C1699.36 597.423 1699.74 597.32 1700.04 597.114C1700.33 596.908 1700.54 596.629 1700.67 596.277H1703.11C1703.02 596.69 1702.87 597.084 1702.64 597.46C1702.42 597.824 1702.13 598.145 1701.76 598.424C1701.41 598.703 1700.99 598.921 1700.51 599.079C1700.02 599.249 1699.48 599.333 1698.89 599.333ZM1698.69 591.384C1698.03 591.384 1697.54 591.566 1697.2 591.93C1696.86 592.281 1696.63 592.766 1696.52 593.385H1700.67C1700.64 592.791 1700.44 592.312 1700.07 591.948C1699.72 591.572 1699.26 591.384 1698.69 591.384ZM1706.78 591.22H1706.84C1707.12 590.687 1707.43 590.286 1707.78 590.02C1708.14 589.753 1708.58 589.619 1709.13 589.619C1709.38 589.619 1709.58 589.644 1709.71 589.692V591.857H1709.66C1708.84 591.772 1708.18 591.948 1707.66 592.384C1707.13 592.821 1706.87 593.53 1706.87 594.513V599.061H1704.4V589.729H1706.78V591.22ZM1711.07 600.17H1711.94C1712.44 600.17 1712.79 600.055 1712.99 599.825C1713.21 599.594 1713.32 599.285 1713.32 598.897C1713.32 598.776 1713.31 598.642 1713.29 598.497C1713.26 598.339 1713.22 598.163 1713.16 597.969C1713.11 597.775 1713.04 597.551 1712.94 597.296C1712.86 597.029 1712.75 596.72 1712.61 596.368L1710.1 589.729H1712.7L1714.09 593.931C1714.16 594.149 1714.23 594.379 1714.29 594.622C1714.36 594.852 1714.43 595.071 1714.49 595.277C1714.55 595.507 1714.61 595.738 1714.69 595.968H1714.72C1714.77 595.738 1714.83 595.507 1714.89 595.277C1714.94 595.071 1714.99 594.852 1715.05 594.622C1715.12 594.379 1715.2 594.149 1715.27 593.931L1716.58 589.729H1719.07L1715.81 599.297C1715.63 599.819 1715.44 600.255 1715.25 600.607C1715.07 600.971 1714.85 601.262 1714.6 601.48C1714.35 601.71 1714.06 601.874 1713.72 601.971C1713.4 602.068 1712.99 602.117 1712.52 602.117H1711.07V600.17ZM1728.2 599.352C1726.43 599.352 1725.06 598.982 1724.09 598.242C1723.13 597.49 1722.63 596.423 1722.58 595.04H1725.17C1725.26 595.829 1725.54 596.393 1726 596.732C1726.46 597.06 1727.16 597.223 1728.09 597.223C1728.43 597.223 1728.76 597.193 1729.06 597.132C1729.36 597.072 1729.63 596.975 1729.86 596.841C1730.09 596.708 1730.27 596.538 1730.4 596.332C1730.55 596.114 1730.62 595.853 1730.62 595.55C1730.62 595.234 1730.54 594.974 1730.39 594.767C1730.24 594.561 1730.03 594.392 1729.75 594.258C1729.47 594.113 1729.13 593.991 1728.73 593.894C1728.34 593.785 1727.9 593.676 1727.4 593.567C1726.82 593.433 1726.26 593.288 1725.71 593.13C1725.18 592.96 1724.7 592.736 1724.29 592.457C1723.89 592.178 1723.56 591.82 1723.31 591.384C1723.07 590.947 1722.95 590.389 1722.95 589.71C1722.95 589.068 1723.07 588.504 1723.31 588.019C1723.56 587.533 1723.91 587.127 1724.35 586.8C1724.8 586.472 1725.32 586.23 1725.93 586.072C1726.54 585.902 1727.2 585.817 1727.93 585.817C1729.4 585.817 1730.57 586.163 1731.46 586.854C1732.36 587.546 1732.85 588.552 1732.95 589.874H1730.42C1730.35 589.219 1730.08 588.728 1729.62 588.401C1729.16 588.073 1728.59 587.909 1727.91 587.909C1727.2 587.909 1726.63 588.049 1726.2 588.328C1725.78 588.607 1725.57 588.977 1725.57 589.437C1725.57 589.704 1725.62 589.929 1725.73 590.111C1725.85 590.28 1726.03 590.432 1726.26 590.565C1726.5 590.699 1726.8 590.814 1727.15 590.911C1727.5 591.008 1727.92 591.111 1728.4 591.22C1729.07 591.366 1729.7 591.529 1730.28 591.711C1730.87 591.881 1731.39 592.112 1731.82 592.403C1732.27 592.694 1732.62 593.064 1732.88 593.512C1733.13 593.961 1733.26 594.537 1733.26 595.24C1733.26 595.895 1733.13 596.483 1732.88 597.005C1732.62 597.514 1732.27 597.945 1731.82 598.297C1731.37 598.636 1730.84 598.897 1730.22 599.079C1729.6 599.261 1728.93 599.352 1728.2 599.352ZM1734.64 589.729H1737.02V590.893H1737.07C1737.38 590.48 1737.75 590.141 1738.18 589.874C1738.63 589.607 1739.18 589.474 1739.82 589.474C1740.44 589.474 1741 589.595 1741.49 589.838C1741.99 590.08 1742.42 590.42 1742.77 590.856C1743.13 591.281 1743.4 591.796 1743.59 592.403C1743.78 593.009 1743.88 593.676 1743.88 594.404C1743.88 595.156 1743.78 595.841 1743.59 596.459C1743.39 597.066 1743.11 597.581 1742.75 598.005C1742.4 598.43 1741.97 598.757 1741.48 598.988C1740.98 599.218 1740.43 599.333 1739.84 599.333C1739.18 599.333 1738.64 599.212 1738.2 598.97C1737.76 598.727 1737.41 598.406 1737.15 598.005H1737.11V602.117H1734.64V589.729ZM1739.31 597.278C1739.94 597.278 1740.44 597.035 1740.8 596.55C1741.18 596.053 1741.37 595.362 1741.37 594.476C1741.37 593.591 1741.2 592.87 1740.86 592.312C1740.53 591.754 1739.98 591.475 1739.22 591.475C1738.83 591.475 1738.5 591.554 1738.22 591.711C1737.95 591.869 1737.73 592.081 1737.55 592.348C1737.38 592.615 1737.25 592.936 1737.16 593.312C1737.09 593.676 1737.06 594.064 1737.06 594.476C1737.06 595.325 1737.24 596.004 1737.62 596.514C1738.01 597.023 1738.57 597.278 1739.31 597.278ZM1750.9 599.061C1750.83 598.964 1750.77 598.818 1750.72 598.624C1750.67 598.43 1750.64 598.23 1750.61 598.024H1750.58C1750.46 598.206 1750.32 598.375 1750.16 598.533C1750.01 598.679 1749.83 598.806 1749.61 598.915C1749.41 599.024 1749.16 599.109 1748.87 599.17C1748.58 599.242 1748.23 599.279 1747.83 599.279C1746.87 599.279 1746.09 599.036 1745.48 598.551C1744.88 598.066 1744.57 597.357 1744.57 596.423C1744.57 595.913 1744.67 595.483 1744.86 595.131C1745.06 594.78 1745.33 594.489 1745.66 594.258C1746 594.028 1746.4 593.852 1746.85 593.731C1747.31 593.597 1747.8 593.494 1748.32 593.421C1749.1 593.312 1749.67 593.197 1750.03 593.076C1750.39 592.954 1750.58 592.718 1750.58 592.366C1750.58 592.027 1750.44 591.76 1750.18 591.566C1749.92 591.36 1749.53 591.257 1749.01 591.257C1748.43 591.257 1747.99 591.366 1747.7 591.584C1747.41 591.79 1747.25 592.118 1747.21 592.566H1745.01C1745.02 592.154 1745.11 591.766 1745.28 591.402C1745.45 591.026 1745.7 590.699 1746.03 590.42C1746.36 590.141 1746.77 589.916 1747.27 589.747C1747.76 589.577 1748.35 589.492 1749.03 589.492C1750.42 589.492 1751.43 589.795 1752.03 590.402C1752.65 590.996 1752.96 591.839 1752.96 592.93V597.678C1752.96 598.381 1753.07 598.812 1753.29 598.97V599.061H1750.9ZM1748.43 597.551C1748.78 597.551 1749.09 597.502 1749.36 597.405C1749.64 597.296 1749.87 597.163 1750.05 597.005C1750.24 596.835 1750.39 596.647 1750.49 596.441C1750.58 596.223 1750.63 595.998 1750.63 595.768V594.367C1750.41 594.501 1750.15 594.61 1749.83 594.695C1749.53 594.767 1749.22 594.84 1748.9 594.913C1748.25 595.059 1747.76 595.228 1747.45 595.422C1747.13 595.616 1746.97 595.932 1746.97 596.368C1746.97 596.805 1747.11 597.114 1747.37 597.296C1747.64 597.466 1747.99 597.551 1748.43 597.551ZM1758.86 599.333C1758.12 599.333 1757.45 599.206 1756.86 598.951C1756.28 598.697 1755.78 598.351 1755.37 597.915C1754.96 597.466 1754.64 596.944 1754.4 596.35C1754.19 595.744 1754.08 595.095 1754.08 594.404C1754.08 593.712 1754.19 593.07 1754.4 592.475C1754.62 591.869 1754.93 591.348 1755.33 590.911C1755.74 590.462 1756.24 590.111 1756.81 589.856C1757.38 589.601 1758.02 589.474 1758.73 589.474C1759.34 589.474 1759.89 589.559 1760.37 589.729C1760.86 589.898 1761.28 590.135 1761.63 590.438C1761.99 590.729 1762.28 591.087 1762.5 591.511C1762.73 591.924 1762.89 592.384 1762.97 592.894H1760.55C1760.47 592.481 1760.27 592.142 1759.97 591.875C1759.68 591.596 1759.3 591.457 1758.84 591.457C1758.09 591.457 1757.53 591.723 1757.15 592.257C1756.78 592.779 1756.59 593.494 1756.59 594.404C1756.59 595.289 1756.76 596.004 1757.12 596.55C1757.48 597.084 1758.04 597.351 1758.81 597.351C1759.32 597.351 1759.73 597.223 1760.06 596.969C1760.39 596.702 1760.6 596.302 1760.68 595.768H1763.06C1763.03 596.265 1762.9 596.732 1762.68 597.169C1762.48 597.593 1762.19 597.969 1761.83 598.297C1761.48 598.612 1761.04 598.867 1760.54 599.061C1760.04 599.242 1759.48 599.333 1758.86 599.333ZM1768.53 599.333C1767.75 599.333 1767.06 599.206 1766.45 598.951C1765.86 598.697 1765.36 598.351 1764.94 597.915C1764.53 597.466 1764.22 596.938 1764 596.332C1763.79 595.726 1763.69 595.077 1763.69 594.385C1763.69 593.694 1763.8 593.051 1764.02 592.457C1764.25 591.851 1764.56 591.329 1764.96 590.893C1765.37 590.456 1765.86 590.111 1766.42 589.856C1766.99 589.601 1767.61 589.474 1768.29 589.474C1769.04 589.474 1769.7 589.613 1770.27 589.892C1770.84 590.159 1771.32 590.541 1771.71 591.038C1772.1 591.536 1772.39 592.13 1772.58 592.821C1772.79 593.5 1772.89 594.258 1772.89 595.095H1766.13C1766.22 595.823 1766.47 596.393 1766.85 596.805C1767.25 597.217 1767.81 597.423 1768.51 597.423C1768.99 597.423 1769.38 597.32 1769.67 597.114C1769.96 596.908 1770.18 596.629 1770.31 596.277H1772.75C1772.66 596.69 1772.5 597.084 1772.27 597.46C1772.06 597.824 1771.76 598.145 1771.4 598.424C1771.05 598.703 1770.63 598.921 1770.15 599.079C1769.66 599.249 1769.12 599.333 1768.53 599.333ZM1768.33 591.384C1767.67 591.384 1767.17 591.566 1766.84 591.93C1766.5 592.281 1766.27 592.766 1766.16 593.385H1770.31C1770.27 592.791 1770.07 592.312 1769.71 591.948C1769.36 591.572 1768.9 591.384 1768.33 591.384ZM1777.82 599.333C1776.46 599.333 1775.41 599.036 1774.67 598.442C1773.93 597.836 1773.53 597.035 1773.46 596.041H1775.75C1775.83 596.587 1776.05 596.981 1776.4 597.223C1776.77 597.466 1777.23 597.587 1777.79 597.587C1778.33 597.587 1778.75 597.49 1779.04 597.296C1779.34 597.102 1779.5 596.841 1779.5 596.514C1779.5 596.296 1779.42 596.12 1779.28 595.986C1779.14 595.853 1778.96 595.744 1778.73 595.659C1778.51 595.574 1778.25 595.507 1777.95 595.459C1777.66 595.398 1777.35 595.337 1777.04 595.277C1776.61 595.192 1776.2 595.095 1775.8 594.986C1775.41 594.877 1775.06 594.719 1774.75 594.513C1774.44 594.307 1774.2 594.04 1774 593.712C1773.82 593.385 1773.73 592.967 1773.73 592.457C1773.73 591.948 1773.83 591.511 1774.02 591.147C1774.21 590.771 1774.48 590.462 1774.82 590.22C1775.17 589.965 1775.58 589.777 1776.04 589.656C1776.5 589.534 1777 589.474 1777.53 589.474C1778.77 589.474 1779.72 589.753 1780.39 590.311C1781.05 590.868 1781.44 591.62 1781.53 592.566H1779.3C1779.23 592.057 1779.05 591.705 1778.75 591.511C1778.45 591.305 1778.03 591.202 1777.49 591.202C1777.01 591.202 1776.62 591.293 1776.33 591.475C1776.04 591.645 1775.89 591.899 1775.89 592.239C1775.89 592.445 1775.97 592.609 1776.11 592.73C1776.26 592.839 1776.45 592.936 1776.68 593.021C1776.92 593.094 1777.19 593.155 1777.49 593.203C1777.81 593.252 1778.13 593.312 1778.46 593.385C1778.85 593.47 1779.23 593.567 1779.62 593.676C1780.02 593.785 1780.38 593.949 1780.7 594.167C1781.01 594.373 1781.27 594.652 1781.46 595.004C1781.65 595.344 1781.75 595.786 1781.75 596.332C1781.75 596.805 1781.65 597.229 1781.46 597.605C1781.27 597.969 1780.99 598.278 1780.64 598.533C1780.3 598.788 1779.89 598.982 1779.4 599.115C1778.93 599.261 1778.4 599.333 1777.82 599.333Z" fill="#8DA400"/>
<path fill-rule="evenodd" clip-rule="evenodd" d="M1609.84 460.389C1611.96 462.148 1615.7 463.498 1618.44 463.498L1623.28 463.498L1620.28 459.221C1617.42 455.157 1617.29 453.501 1617.74 425.854C1618.25 393.828 1618.79 391.521 1627.83 382.59C1642.65 367.959 1665.69 372.278 1674.92 391.416C1678.79 399.427 1678.85 399.976 1678.85 427.572C1678.85 453.651 1678.64 455.869 1675.89 459.546L1672.93 463.498L1677.84 463.498C1680.64 463.498 1684.36 462.165 1686.5 460.389L1690.26 457.282L1690.23 422.523C1690.2 392.107 1689.88 387.013 1687.59 381.734C1684.02 373.457 1676.79 366.256 1667.44 361.647C1656.68 356.342 1640.23 356.213 1629.31 361.346C1620.2 365.629 1609.72 377.04 1607.63 384.943C1606.74 388.295 1606.09 404.876 1606.08 424.023L1606.08 457.282L1609.84 460.389ZM1614.95 363.607C1617.54 361.223 1622.38 357.988 1625.71 356.42C1631.32 353.773 1631.76 353.147 1631.76 347.731L1631.76 341.894L1621.41 342.335L1611.07 342.776L1610.65 355.359L1610.24 367.943L1614.95 363.607ZM1624.91 455.7C1627.31 458.216 1669.03 458.216 1671.43 455.7C1672.63 454.434 1673.13 446.092 1673.11 427.581C1673.08 405.209 1672.68 400.344 1670.43 395.145C1661.81 375.183 1636.37 374.736 1626.51 394.374C1623.41 400.568 1623.2 402.648 1623.2 427.442C1623.2 446.021 1623.71 454.436 1624.91 455.7ZM1648.02 411.01C1660.65 411.01 1664.44 411.479 1665.04 413.113C1665.46 414.269 1665.43 415.619 1664.96 416.112C1664.49 416.605 1656.83 417.009 1647.93 417.009C1632.71 417.009 1631.76 416.832 1631.76 414.009C1631.76 411.186 1632.71 411.01 1648.02 411.01ZM1648.02 399.013C1660.65 399.013 1664.44 399.482 1665.04 401.115C1665.46 402.272 1665.43 403.621 1664.96 404.115C1664.49 404.608 1656.83 405.011 1647.93 405.011C1632.71 405.011 1631.76 404.834 1631.76 402.012C1631.76 399.188 1632.71 399.013 1648.02 399.013ZM1669.37 355.451C1672 356.364 1676.84 359.53 1680.13 362.487L1686.1 367.862L1685.69 355.319L1685.27 342.776L1674.92 342.335L1664.58 341.894L1664.58 347.843C1664.58 353.261 1665 353.938 1669.37 355.451Z" fill="black"/>
<path fill-rule="evenodd" clip-rule="evenodd" d="M1693.68 462.127C1680.99 471.614 1665.23 477.231 1648.17 477.231C1606.14 477.231 1572.07 443.162 1572.07 401.136C1572.07 381.954 1579.17 364.429 1590.88 351.045L1693.68 462.127ZM1705.96 450.643L1603.28 339.686C1615.86 330.477 1631.38 325.04 1648.17 325.04C1690.2 325.04 1724.26 359.11 1724.26 401.136C1724.26 420.041 1717.37 437.335 1705.96 450.643ZM1743.27 401.136C1743.27 453.659 1700.69 496.237 1648.17 496.237C1595.65 496.237 1553.07 453.659 1553.07 401.136C1553.07 348.613 1595.65 306.035 1648.17 306.035C1700.69 306.035 1743.27 348.613 1743.27 401.136Z" fill="#CDEC0D"/>
<path fill-rule="evenodd" clip-rule="evenodd" d="M1395.61 308.202C1361.82 315.466 1333.34 343.751 1324.51 378.812C1320.62 394.259 1322.11 421.285 1327.62 435.563C1338.11 462.697 1357.7 482.556 1383.92 492.643C1392.1 495.79 1396 496.239 1415.1 496.232C1433.82 496.224 1438.23 495.733 1446.11 492.775C1471.76 483.143 1492.27 462.376 1502.58 435.603C1508.09 421.273 1509.57 394.25 1505.69 378.812C1496.76 343.365 1468.26 315.329 1433.81 308.115C1420.43 305.315 1408.92 305.341 1395.61 308.202ZM1433.51 325.199C1447.59 328.858 1457.93 334.94 1468.9 346.03C1484.26 361.555 1492.27 380.704 1492.27 401.889C1492.27 417.908 1485.79 438.009 1477.24 448.513L1474.34 452.064L1466.77 444.388L1459.2 436.712L1463.85 403.717C1466.74 383.203 1469.25 370.261 1470.48 369.503C1471.57 368.832 1472.04 367.185 1471.52 365.843C1470.76 363.856 1467.19 363.323 1452.3 362.965L1434.01 362.527L1430.79 352.41C1427.97 343.538 1427.14 342.355 1424.06 342.8C1420.4 343.331 1420.37 345.685 1423.9 355.243C1426.33 361.816 1425.58 363.304 1419.83 363.304C1416.1 363.304 1413.94 364.228 1412.83 366.288C1411.68 368.434 1411.75 369.446 1413.08 369.888C1414.91 370.497 1417.61 389.736 1415.87 389.736C1414.38 389.736 1369.93 341.507 1369.43 339.357C1368.85 336.806 1384.93 328.248 1395.79 325.337C1406.83 322.375 1422.42 322.318 1433.51 325.199ZM1378.74 376.132C1421.13 420.792 1420.56 420.094 1420.57 426.624C1420.58 429.852 1421.03 436.166 1421.57 440.656L1422.55 448.819L1435.19 448.889L1447.84 448.959L1454.63 456.701C1462.63 465.824 1462.37 466.473 1448.21 473.335C1426.01 484.087 1404.56 484.067 1381.58 473.275C1361.88 464.022 1344.14 440.831 1339.41 418.132C1337.01 406.611 1338.34 386.793 1342.27 375.743C1345.38 366.994 1353.49 352.421 1355.26 352.421C1355.8 352.421 1366.37 363.09 1378.74 376.132ZM1364.74 417.334C1363.01 418.831 1361.12 421.63 1360.57 423.553L1359.54 427.052H1386.88C1412.25 427.052 1414.15 426.856 1413.26 424.331C1412.73 422.834 1410.88 420.035 1409.14 418.112C1406.19 414.847 1404.71 414.613 1386.94 414.613C1371.04 414.613 1367.37 415.063 1364.74 417.334ZM1356.64 434.083V438.002L1386.65 437.581C1416.44 437.161 1416.66 437.132 1417.16 433.66L1417.66 430.161H1387.15H1356.64V434.083ZM1361.31 442.359C1361.31 443.082 1362.79 445.005 1364.59 446.635C1367.28 449.062 1370.82 449.693 1384.19 450.13C1401.54 450.697 1408.55 449.099 1411.32 443.942C1412.8 441.171 1411.76 441.045 1387.09 441.045C1372.91 441.045 1361.31 441.636 1361.31 442.359Z" fill="#CDEC0D"/>
<path fill-rule="evenodd" clip-rule="evenodd" d="M1423.49 343.054C1423.01 343.834 1423.66 347.962 1424.95 352.228C1428.36 363.593 1428.14 364.293 1421.13 364.293C1414.02 364.293 1412.14 365.527 1414.64 368.546C1415.61 369.724 1416.8 375.571 1417.28 381.543L1418.14 392.401L1438.23 413.727C1449.28 425.455 1458.83 434.489 1459.45 433.804C1460.06 433.116 1462.52 418.46 1464.9 401.234C1467.29 384.009 1469.9 369.229 1470.72 368.389C1474 365.022 1471.55 364.287 1456.56 364.133C1434.23 363.905 1433.63 363.631 1430.61 352.331C1428.23 343.425 1425.47 339.837 1423.49 343.054ZM1366.81 417.307C1363.74 418.545 1359.89 423.396 1359.89 426.023C1359.89 426.523 1371.8 426.932 1386.36 426.932C1400.92 426.932 1412.81 426.39 1412.79 425.728C1412.7 423.603 1408.93 419.483 1405.32 417.557C1401.24 415.381 1372.06 415.192 1366.81 417.307ZM1421.79 431.839C1422.25 436.65 1422.99 442.934 1423.43 445.805L1424.22 451.025H1435.48H1446.75L1443.56 446.608C1441.8 444.178 1435.99 437.894 1430.65 432.642L1420.94 423.094L1421.79 431.839ZM1356.14 432.822C1355.55 433.41 1355.07 434.856 1355.07 436.034C1355.07 437.743 1361.22 438.175 1385.56 438.175C1414.98 438.175 1416.05 438.063 1416.05 434.963C1416.05 431.868 1414.98 431.751 1386.63 431.751C1370.45 431.751 1356.73 432.233 1356.14 432.822ZM1363.59 447.061C1367.8 450.772 1369.23 451.025 1386.09 451.025C1399.79 451.025 1404.95 450.427 1407.67 448.524C1409.63 447.149 1411.23 445.342 1411.23 444.508C1411.23 443.62 1400.46 443.015 1385.16 443.045L1359.08 443.095L1363.59 447.061Z" fill="black"/>
<mask id="path-11-inside-1_2465_5" fill="white">
<path fill-rule="evenodd" clip-rule="evenodd" d="M1158.42 379.497V398.746H1122.82V446.824H1252.67C1261.07 433.504 1265.93 417.729 1265.93 400.819C1265.93 400.126 1265.92 399.435 1265.9 398.746H1201.08V379.497L1188.7 364.814H1170.8L1158.42 379.497Z"/>
</mask>
<path fill-rule="evenodd" clip-rule="evenodd" d="M1158.42 379.497V398.746H1122.82V446.824H1252.67C1261.07 433.504 1265.93 417.729 1265.93 400.819C1265.93 400.126 1265.92 399.435 1265.9 398.746H1201.08V379.497L1188.7 364.814H1170.8L1158.42 379.497Z" fill="white" fill-opacity="0.58"/>
<path d="M1158.42 398.746V401.367H1161.04V398.746H1158.42ZM1158.42 379.497L1156.41 377.807L1155.79 378.539V379.497H1158.42ZM1122.82 398.746V396.126H1120.2V398.746H1122.82ZM1122.82 446.824H1120.2V449.444H1122.82V446.824ZM1252.67 446.824V449.444H1254.12L1254.89 448.222L1252.67 446.824ZM1265.9 398.746L1268.52 398.684L1268.46 396.126H1265.9V398.746ZM1201.08 398.746H1198.46V401.367H1201.08V398.746ZM1201.08 379.497H1203.7V378.539L1203.08 377.807L1201.08 379.497ZM1188.7 364.814L1190.7 363.125L1189.92 362.194H1188.7V364.814ZM1170.8 364.814V362.194H1169.58L1168.8 363.125L1170.8 364.814ZM1161.04 398.746V379.497H1155.79V398.746H1161.04ZM1122.82 401.367H1158.42V396.126H1122.82V401.367ZM1125.44 446.824V398.746H1120.2V446.824H1125.44ZM1252.67 444.204H1122.82V449.444H1252.67V444.204ZM1263.31 400.819C1263.31 417.22 1258.6 432.513 1250.45 445.426L1254.89 448.222C1263.54 434.496 1268.55 418.238 1268.55 400.819H1263.31ZM1263.28 398.808C1263.3 399.476 1263.31 400.147 1263.31 400.819H1268.55C1268.55 400.106 1268.54 399.394 1268.52 398.684L1263.28 398.808ZM1201.08 401.367H1265.9V396.126H1201.08V401.367ZM1198.46 379.497V398.746H1203.7V379.497H1198.46ZM1186.69 366.504L1199.08 381.186L1203.08 377.807L1190.7 363.125L1186.69 366.504ZM1170.8 367.435H1188.7V362.194H1170.8V367.435ZM1160.42 381.186L1172.8 366.504L1168.8 363.125L1156.41 377.807L1160.42 381.186Z" fill="black" mask="url(#path-11-inside-1_2465_5)"/>
<circle cx="1179.96" cy="352.919" r="9.05361" fill="black"/>
<path d="M1163.21 379.683V400.182H1196.71V379.683L1186.99 368.338H1172.93L1163.21 379.683Z" fill="black"/>
<rect x="1175.07" y="379.166" width="9.78206" height="21.2292" fill="white"/>
<path d="M1176.79 410.522L1179.86 410.522L1179.86 413.587L1176.79 413.587L1176.79 410.522ZM1176.79 416.652L1179.86 416.652L1179.86 438.107L1176.79 438.107L1176.79 416.652Z" fill="#CDEC0D"/>
<circle cx="1178.31" cy="423.15" r="18.4629" stroke="#CDEC0D" stroke-width="1.95587"/>
<circle cx="1180.46" cy="401.136" r="85.133" stroke="#CDEC0D" stroke-width="19.9354"/>
</svg>
