<svg width="2245" height="428" viewBox="0 0 2245 428" fill="none" xmlns="http://www.w3.org/2000/svg">
<rect width="2245" height="428" fill="#D9D9D9"/>
<path d="M358.66 179.736C358.66 177.875 358.179 176.557 357.217 175.781C356.256 175.006 354.72 174.618 352.611 174.618H342.84L342.375 175.083V184.389L342.84 184.854H352.611C354.72 184.854 356.256 184.466 357.217 183.691C358.179 182.915 358.66 181.597 358.66 179.736ZM363.313 179.736C363.313 182.311 362.677 184.311 361.405 185.738C360.133 187.165 358.443 188.111 356.333 188.576V189.042L362.847 199.278V202.535L362.382 203H360.521L359.59 202.535L351.215 189.507L350.285 189.042H342.84L342.375 189.507V202.535L341.91 203H338.188L337.722 202.535V170.896L338.188 170.43H352.611C355.868 170.43 358.458 171.175 360.381 172.664C362.335 174.122 363.313 176.479 363.313 179.736ZM381 189.042C381 188.7 380.938 188.22 380.814 187.599C380.721 186.948 380.489 186.328 380.116 185.738C379.744 185.118 379.186 184.59 378.441 184.156C377.697 183.691 376.689 183.458 375.417 183.458C374.145 183.458 373.137 183.691 372.393 184.156C371.648 184.59 371.09 185.118 370.718 185.738C370.346 186.328 370.097 186.948 369.973 187.599C369.88 188.22 369.834 188.7 369.834 189.042L370.299 189.507H380.535L381 189.042ZM375.882 203.465C374.021 203.465 372.393 203.171 370.997 202.581C369.601 201.961 368.438 201.123 367.507 200.069C366.577 198.983 365.879 197.696 365.414 196.207C364.948 194.718 364.716 193.105 364.716 191.368C364.716 189.755 364.917 188.22 365.321 186.762C365.755 185.273 366.406 183.986 367.275 182.9C368.143 181.783 369.244 180.899 370.578 180.248C371.943 179.596 373.556 179.271 375.417 179.271C377.278 179.271 378.876 179.596 380.209 180.248C381.574 180.899 382.691 181.783 383.559 182.9C384.428 183.986 385.064 185.273 385.467 186.762C385.901 188.22 386.118 189.755 386.118 191.368V192.764L385.653 193.229H370.299L369.834 193.694C369.834 193.943 369.88 194.377 369.973 194.997C370.097 195.587 370.361 196.207 370.764 196.858C371.168 197.479 371.772 198.037 372.579 198.533C373.385 199.03 374.487 199.278 375.882 199.278C376.348 199.278 376.797 199.247 377.232 199.185C377.697 199.092 378.131 198.952 378.534 198.766C378.969 198.549 379.341 198.27 379.651 197.928C379.992 197.556 380.287 197.075 380.535 196.486L381 196.021H384.723L385.188 196.486C385.064 197.417 384.769 198.301 384.304 199.138C383.87 199.976 383.249 200.72 382.443 201.372C381.667 202.023 380.721 202.535 379.605 202.907C378.519 203.279 377.278 203.465 375.882 203.465ZM408.43 203H405.173L404.708 202.535L404.243 200.674H403.777C403.064 201.573 402.18 202.271 401.125 202.767C400.102 203.233 398.969 203.465 397.729 203.465C396.085 203.465 394.627 203.171 393.355 202.581C392.114 201.961 391.044 201.123 390.145 200.069C389.276 198.983 388.609 197.696 388.144 196.207C387.71 194.718 387.493 193.105 387.493 191.368C387.493 189.631 387.71 188.018 388.144 186.529C388.609 185.04 389.276 183.768 390.145 182.714C391.044 181.628 392.114 180.791 393.355 180.201C394.627 179.581 396.085 179.271 397.729 179.271C398.907 179.271 400.024 179.503 401.079 179.969C402.164 180.434 403.064 181.132 403.777 182.062H404.243V170.896L404.708 170.43H408.43L408.895 170.896V202.535L408.43 203ZM404.243 191.368C404.243 188.576 403.7 186.56 402.614 185.319C401.528 184.079 400.055 183.458 398.194 183.458C396.333 183.458 394.859 184.125 393.774 185.459C392.688 186.793 392.145 188.762 392.145 191.368C392.145 193.974 392.688 195.943 393.774 197.277C394.859 198.611 396.333 199.278 398.194 199.278C400.055 199.278 401.528 198.657 402.614 197.417C403.7 196.176 404.243 194.16 404.243 191.368ZM431.685 203H428.428L427.963 202.535L427.497 200.674H427.032C426.412 201.511 425.605 202.194 424.613 202.721C423.62 203.217 422.565 203.465 421.449 203.465C419.805 203.465 418.424 203.202 417.308 202.674C416.191 202.116 415.276 201.387 414.563 200.487C413.88 199.588 413.384 198.549 413.074 197.37C412.764 196.191 412.608 194.966 412.608 193.694V180.201L413.074 179.736H416.796L417.261 180.201V193.694C417.261 194.408 417.323 195.106 417.447 195.788C417.602 196.44 417.851 197.029 418.192 197.556C418.533 198.053 418.998 198.471 419.588 198.812C420.208 199.123 420.983 199.278 421.914 199.278C423.527 199.278 424.861 198.657 425.915 197.417C426.97 196.176 427.497 194.16 427.497 191.368V180.201L427.963 179.736H431.685L432.15 180.201V202.535L431.685 203ZM439.607 191.368C439.607 193.943 440.166 195.912 441.282 197.277C442.399 198.611 444.012 199.278 446.121 199.278C447.052 199.278 447.843 199.169 448.494 198.952C449.146 198.735 449.688 198.456 450.123 198.115C450.557 197.773 450.898 197.386 451.146 196.951C451.394 196.486 451.581 196.021 451.705 195.556L452.17 195.09H455.892L456.357 195.556C456.233 196.61 455.939 197.618 455.473 198.58C455.008 199.51 454.357 200.348 453.519 201.092C452.682 201.806 451.643 202.38 450.402 202.814C449.161 203.248 447.734 203.465 446.121 203.465C444.384 203.465 442.818 203.186 441.422 202.628C440.057 202.069 438.894 201.263 437.932 200.208C436.971 199.154 436.226 197.882 435.699 196.393C435.203 194.904 434.955 193.229 434.955 191.368C434.955 189.507 435.203 187.832 435.699 186.343C436.226 184.854 436.971 183.582 437.932 182.528C438.894 181.473 440.057 180.667 441.422 180.108C442.818 179.55 444.384 179.271 446.121 179.271C447.734 179.271 449.161 179.488 450.402 179.922C451.643 180.356 452.682 180.946 453.519 181.69C454.357 182.404 455.008 183.241 455.473 184.203C455.939 185.133 456.233 186.126 456.357 187.181L455.892 187.646H452.17L451.705 187.181C451.581 186.715 451.394 186.265 451.146 185.831C450.898 185.366 450.557 184.963 450.123 184.621C449.688 184.28 449.146 184.001 448.494 183.784C447.843 183.567 447.052 183.458 446.121 183.458C444.012 183.458 442.399 184.141 441.282 185.506C440.166 186.839 439.607 188.793 439.607 191.368ZM474.016 189.042C474.016 188.7 473.954 188.22 473.83 187.599C473.737 186.948 473.504 186.328 473.132 185.738C472.76 185.118 472.202 184.59 471.457 184.156C470.713 183.691 469.705 183.458 468.433 183.458C467.161 183.458 466.153 183.691 465.409 184.156C464.664 184.59 464.106 185.118 463.734 185.738C463.361 186.328 463.113 186.948 462.989 187.599C462.896 188.22 462.849 188.7 462.849 189.042L463.315 189.507H473.551L474.016 189.042ZM468.898 203.465C467.037 203.465 465.409 203.171 464.013 202.581C462.617 201.961 461.454 201.123 460.523 200.069C459.593 198.983 458.895 197.696 458.429 196.207C457.964 194.718 457.731 193.105 457.731 191.368C457.731 189.755 457.933 188.22 458.336 186.762C458.771 185.273 459.422 183.986 460.29 182.9C461.159 181.783 462.26 180.899 463.594 180.248C464.959 179.596 466.572 179.271 468.433 179.271C470.294 179.271 471.891 179.596 473.225 180.248C474.59 180.899 475.707 181.783 476.575 182.9C477.444 183.986 478.08 185.273 478.483 186.762C478.917 188.22 479.134 189.755 479.134 191.368V192.764L478.669 193.229H463.315L462.849 193.694C462.849 193.943 462.896 194.377 462.989 194.997C463.113 195.587 463.377 196.207 463.78 196.858C464.183 197.479 464.788 198.037 465.595 198.533C466.401 199.03 467.502 199.278 468.898 199.278C469.363 199.278 469.813 199.247 470.247 199.185C470.713 199.092 471.147 198.952 471.55 198.766C471.984 198.549 472.357 198.27 472.667 197.928C473.008 197.556 473.303 197.075 473.551 196.486L474.016 196.021H477.738L478.204 196.486C478.08 197.417 477.785 198.301 477.32 199.138C476.885 199.976 476.265 200.72 475.459 201.372C474.683 202.023 473.737 202.535 472.62 202.907C471.535 203.279 470.294 203.465 468.898 203.465ZM512.136 203H508.414L507.949 202.535V189.042C507.949 188.452 507.902 187.832 507.809 187.181C507.716 186.529 507.499 185.924 507.158 185.366C506.848 184.808 506.382 184.358 505.762 184.017C505.173 183.644 504.351 183.458 503.296 183.458C501.156 183.458 499.605 184.079 498.643 185.319C497.713 186.529 497.247 188.545 497.247 191.368V202.535L496.782 203H493.06L492.595 202.535V180.201L493.06 179.736H496.317L496.782 180.201L497.247 182.062H497.713C498.395 181.163 499.264 180.481 500.318 180.015C501.373 179.519 502.521 179.271 503.761 179.271C505.374 179.271 506.739 179.519 507.856 180.015C509.003 180.512 509.918 181.194 510.601 182.062C511.314 182.931 511.826 183.97 512.136 185.18C512.446 186.359 512.602 187.646 512.602 189.042V202.535L512.136 203ZM531.215 189.042C531.215 188.7 531.153 188.22 531.028 187.599C530.935 186.948 530.703 186.328 530.331 185.738C529.958 185.118 529.4 184.59 528.656 184.156C527.911 183.691 526.903 183.458 525.631 183.458C524.359 183.458 523.351 183.691 522.607 184.156C521.862 184.59 521.304 185.118 520.932 185.738C520.56 186.328 520.312 186.948 520.187 187.599C520.094 188.22 520.048 188.7 520.048 189.042L520.513 189.507H530.749L531.215 189.042ZM526.096 203.465C524.235 203.465 522.607 203.171 521.211 202.581C519.815 201.961 518.652 201.123 517.721 200.069C516.791 198.983 516.093 197.696 515.628 196.207C515.162 194.718 514.93 193.105 514.93 191.368C514.93 189.755 515.131 188.22 515.535 186.762C515.969 185.273 516.62 183.986 517.489 182.9C518.357 181.783 519.459 180.899 520.792 180.248C522.157 179.596 523.77 179.271 525.631 179.271C527.492 179.271 529.09 179.596 530.424 180.248C531.788 180.899 532.905 181.783 533.774 182.9C534.642 183.986 535.278 185.273 535.681 186.762C536.115 188.22 536.333 189.755 536.333 191.368V192.764L535.867 193.229H520.513L520.048 193.694C520.048 193.943 520.094 194.377 520.187 194.997C520.312 195.587 520.575 196.207 520.978 196.858C521.382 197.479 521.987 198.037 522.793 198.533C523.599 199.03 524.701 199.278 526.096 199.278C526.562 199.278 527.012 199.247 527.446 199.185C527.911 199.092 528.345 198.952 528.749 198.766C529.183 198.549 529.555 198.27 529.865 197.928C530.206 197.556 530.501 197.075 530.749 196.486L531.215 196.021H534.937L535.402 196.486C535.278 197.417 534.983 198.301 534.518 199.138C534.084 199.976 533.463 200.72 532.657 201.372C531.881 202.023 530.935 202.535 529.819 202.907C528.733 203.279 527.492 203.465 526.096 203.465ZM548.408 208.583C550.548 208.583 552.084 207.916 553.014 206.583C553.976 205.249 554.457 203.279 554.457 200.674H553.991C553.278 201.573 552.394 202.271 551.339 202.767C550.316 203.233 549.184 203.465 547.943 203.465C546.299 203.465 544.841 203.171 543.569 202.581C542.328 201.961 541.258 201.123 540.359 200.069C539.49 198.983 538.823 197.696 538.358 196.207C537.924 194.718 537.707 193.105 537.707 191.368C537.707 189.631 537.924 188.018 538.358 186.529C538.823 185.04 539.49 183.768 540.359 182.714C541.258 181.628 542.328 180.791 543.569 180.201C544.841 179.581 546.299 179.271 547.943 179.271C549.121 179.271 550.238 179.503 551.293 179.969C552.378 180.434 553.278 181.132 553.991 182.062H554.457L554.922 180.201L555.387 179.736H558.644L559.109 180.201V200.208C559.109 202.535 558.815 204.489 558.225 206.071C557.636 207.684 556.845 208.987 555.853 209.979C554.86 210.972 553.712 211.685 552.409 212.119C551.138 212.554 549.804 212.771 548.408 212.771C545.585 212.771 543.383 212.15 541.801 210.91C540.25 209.669 539.351 208.118 539.102 206.257L539.568 205.792H543.29L543.755 206.257C544.221 207.188 544.81 207.808 545.523 208.118C546.268 208.428 547.229 208.583 548.408 208.583ZM554.457 191.368C554.457 188.576 553.914 186.56 552.828 185.319C551.743 184.079 550.269 183.458 548.408 183.458C546.547 183.458 545.074 184.125 543.988 185.459C542.902 186.793 542.359 188.762 542.359 191.368C542.359 193.974 542.902 195.943 543.988 197.277C545.074 198.611 546.547 199.278 548.408 199.278C550.269 199.278 551.743 198.657 552.828 197.417C553.914 196.176 554.457 194.16 554.457 191.368ZM580.968 203H577.712L577.246 202.535L576.781 200.674H576.316C575.54 201.604 574.579 202.302 573.431 202.767C572.314 203.233 571.105 203.465 569.802 203.465C567.196 203.465 565.227 202.814 563.893 201.511C562.559 200.177 561.892 198.347 561.892 196.021C561.892 194.749 562.14 193.648 562.636 192.717C563.133 191.756 563.831 190.98 564.73 190.391C565.63 189.771 566.7 189.321 567.941 189.042C569.212 188.731 570.608 188.576 572.128 188.576C572.842 188.576 573.571 188.623 574.315 188.716C575.059 188.809 575.726 188.918 576.316 189.042L576.781 188.576V187.646C576.781 186.002 576.409 184.901 575.664 184.342C574.951 183.753 573.772 183.458 572.128 183.458C570.453 183.458 569.259 183.691 568.546 184.156C567.832 184.621 567.475 185.319 567.475 186.25L567.01 186.715H563.288L562.823 186.25C562.823 185.443 562.978 184.621 563.288 183.784C563.598 182.946 564.11 182.202 564.823 181.551C565.568 180.868 566.529 180.325 567.708 179.922C568.918 179.488 570.391 179.271 572.128 179.271C573.865 179.271 575.323 179.488 576.502 179.922C577.712 180.325 578.673 180.946 579.387 181.783C580.131 182.621 580.658 183.691 580.968 184.994C581.279 186.265 581.434 187.77 581.434 189.507V202.535L580.968 203ZM576.781 193.229L576.316 192.764C575.602 192.578 574.951 192.454 574.362 192.392C573.772 192.33 573.183 192.299 572.593 192.299C570.453 192.299 568.902 192.624 567.941 193.276C567.01 193.927 566.545 194.842 566.545 196.021C566.545 197.2 566.886 198.037 567.568 198.533C568.282 199.03 569.337 199.278 570.732 199.278C572.593 199.278 574.067 198.859 575.152 198.022C576.238 197.153 576.781 196.021 576.781 194.625V193.229ZM597.264 203H593.542C592.735 203 591.929 202.891 591.122 202.674C590.347 202.426 589.649 202.054 589.029 201.558C588.439 201.061 587.959 200.441 587.586 199.697C587.214 198.921 587.028 198.006 587.028 196.951V184.389L586.563 183.924H583.306L582.841 183.458V180.201L583.306 179.736H586.563L587.028 179.271V175.083L587.493 174.618H591.216L591.681 175.083V179.271L592.146 179.736H597.264L597.729 180.201V183.458L597.264 183.924H592.146L591.681 184.389V196.951C591.681 197.665 591.867 198.161 592.239 198.44C592.642 198.688 593.077 198.812 593.542 198.812H597.264L597.729 199.278V202.535L597.264 203ZM605.168 176.014H601.446L600.981 175.549V171.826L601.446 171.361H605.168L605.634 171.826V175.549L605.168 176.014ZM605.168 203H601.446L600.981 202.535V180.201L601.446 179.736H605.168L605.634 180.201V202.535L605.168 203ZM621.44 202.535L620.975 203H616.788L616.322 202.535L608.413 183.458V180.201L608.878 179.736H611.67L612.135 180.201L618.649 196.486H619.114L625.628 180.201L626.093 179.736H628.885L629.35 180.201V183.458L621.44 202.535ZM646.566 189.042C646.566 188.7 646.503 188.22 646.379 187.599C646.286 186.948 646.054 186.328 645.681 185.738C645.309 185.118 644.751 184.59 644.006 184.156C643.262 183.691 642.254 183.458 640.982 183.458C639.71 183.458 638.702 183.691 637.958 184.156C637.213 184.59 636.655 185.118 636.283 185.738C635.911 186.328 635.662 186.948 635.538 187.599C635.445 188.22 635.399 188.7 635.399 189.042L635.864 189.507H646.1L646.566 189.042ZM641.447 203.465C639.586 203.465 637.958 203.171 636.562 202.581C635.166 201.961 634.003 201.123 633.072 200.069C632.142 198.983 631.444 197.696 630.979 196.207C630.513 194.718 630.281 193.105 630.281 191.368C630.281 189.755 630.482 188.22 630.886 186.762C631.32 185.273 631.971 183.986 632.84 182.9C633.708 181.783 634.809 180.899 636.143 180.248C637.508 179.596 639.121 179.271 640.982 179.271C642.843 179.271 644.441 179.596 645.775 180.248C647.139 180.899 648.256 181.783 649.125 182.9C649.993 183.986 650.629 185.273 651.032 186.762C651.466 188.22 651.684 189.755 651.684 191.368V192.764L651.218 193.229H635.864L635.399 193.694C635.399 193.943 635.445 194.377 635.538 194.997C635.662 195.587 635.926 196.207 636.329 196.858C636.733 197.479 637.337 198.037 638.144 198.533C638.95 199.03 640.052 199.278 641.447 199.278C641.913 199.278 642.362 199.247 642.797 199.185C643.262 199.092 643.696 198.952 644.1 198.766C644.534 198.549 644.906 198.27 645.216 197.928C645.557 197.556 645.852 197.075 646.1 196.486L646.566 196.021H650.288L650.753 196.486C650.629 197.417 650.334 198.301 649.869 199.138C649.435 199.976 648.814 200.72 648.008 201.372C647.232 202.023 646.286 202.535 645.17 202.907C644.084 203.279 642.843 203.465 641.447 203.465ZM676.776 202.535L676.311 203H672.123L671.658 202.535L663.748 183.458V180.201L664.213 179.736H667.005L667.47 180.201L673.984 196.486H674.45L680.963 180.201L681.429 179.736H684.22L684.686 180.201V183.458L676.776 202.535ZM691.654 176.014H687.932L687.466 175.549V171.826L687.932 171.361H691.654L692.119 171.826V175.549L691.654 176.014ZM691.654 203H687.932L687.466 202.535V180.201L687.932 179.736H691.654L692.119 180.201V202.535L691.654 203ZM713.509 196.486C713.509 197.417 713.323 198.301 712.951 199.138C712.61 199.976 712.051 200.72 711.276 201.372C710.532 202.023 709.57 202.535 708.391 202.907C707.213 203.279 705.817 203.465 704.204 203.465C701.164 203.465 698.853 202.798 697.271 201.465C695.689 200.1 694.898 198.13 694.898 195.556L695.363 195.09H699.086L699.551 195.556C699.551 196.734 699.908 197.649 700.621 198.301C701.366 198.952 702.56 199.278 704.204 199.278C705.848 199.278 707.026 199.045 707.74 198.58C708.484 198.115 708.857 197.417 708.857 196.486C708.857 195.897 708.748 195.416 708.531 195.044C708.345 194.672 708.019 194.361 707.554 194.113C707.088 193.834 706.468 193.601 705.693 193.415C704.917 193.229 703.956 193.012 702.808 192.764C701.629 192.547 700.575 192.252 699.644 191.88C698.744 191.508 697.969 191.042 697.318 190.484C696.697 189.926 696.216 189.274 695.875 188.53C695.534 187.754 695.363 186.839 695.363 185.785C695.363 184.978 695.519 184.187 695.829 183.412C696.139 182.605 696.635 181.907 697.318 181.318C698.031 180.698 698.946 180.201 700.063 179.829C701.179 179.457 702.56 179.271 704.204 179.271C705.475 179.271 706.654 179.426 707.74 179.736C708.825 180.015 709.756 180.449 710.532 181.039C711.338 181.597 711.958 182.326 712.393 183.226C712.827 184.094 713.044 185.102 713.044 186.25L712.579 186.715H708.857L708.391 186.25C708.391 185.909 708.329 185.568 708.205 185.226C708.081 184.885 707.848 184.59 707.507 184.342C707.197 184.063 706.763 183.846 706.204 183.691C705.677 183.536 705.01 183.458 704.204 183.458C703.025 183.458 702.032 183.613 701.226 183.924C700.419 184.234 700.016 184.854 700.016 185.785C700.016 186.374 700.14 186.855 700.388 187.227C700.637 187.599 701.009 187.925 701.505 188.204C702.032 188.452 702.699 188.685 703.506 188.902C704.343 189.088 705.351 189.29 706.53 189.507C708.857 189.972 710.594 190.732 711.741 191.787C712.92 192.81 713.509 194.377 713.509 196.486ZM720.487 176.014H716.764L716.299 175.549V171.826L716.764 171.361H720.487L720.952 171.826V175.549L720.487 176.014ZM720.487 203H716.764L716.299 202.535V180.201L716.764 179.736H720.487L720.952 180.201V202.535L720.487 203ZM737.689 203H733.967C733.161 203 732.354 202.891 731.548 202.674C730.772 202.426 730.074 202.054 729.454 201.558C728.864 201.061 728.384 200.441 728.011 199.697C727.639 198.921 727.453 198.006 727.453 196.951V184.389L726.988 183.924H723.731L723.266 183.458V180.201L723.731 179.736H726.988L727.453 179.271V175.083L727.918 174.618H731.641L732.106 175.083V179.271L732.571 179.736H737.689L738.155 180.201V183.458L737.689 183.924H732.571L732.106 184.389V196.951C732.106 197.665 732.292 198.161 732.664 198.44C733.067 198.688 733.502 198.812 733.967 198.812H737.689L738.155 199.278V202.535L737.689 203ZM739.101 191.368C739.101 189.507 739.35 187.832 739.846 186.343C740.373 184.854 741.118 183.582 742.079 182.528C743.041 181.473 744.204 180.667 745.569 180.108C746.965 179.55 748.531 179.271 750.268 179.271C752.005 179.271 753.556 179.55 754.921 180.108C756.317 180.667 757.495 181.473 758.457 182.528C759.419 183.582 760.148 184.854 760.644 186.343C761.171 187.832 761.435 189.507 761.435 191.368C761.435 193.229 761.171 194.904 760.644 196.393C760.148 197.882 759.419 199.154 758.457 200.208C757.495 201.263 756.317 202.069 754.921 202.628C753.556 203.186 752.005 203.465 750.268 203.465C748.531 203.465 746.965 203.186 745.569 202.628C744.204 202.069 743.041 201.263 742.079 200.208C741.118 199.154 740.373 197.882 739.846 196.393C739.35 194.904 739.101 193.229 739.101 191.368ZM743.754 191.368C743.754 193.943 744.313 195.912 745.429 197.277C746.546 198.611 748.159 199.278 750.268 199.278C752.377 199.278 753.99 198.611 755.107 197.277C756.224 195.912 756.782 193.943 756.782 191.368C756.782 188.793 756.224 186.839 755.107 185.506C753.99 184.141 752.377 183.458 750.268 183.458C748.159 183.458 746.546 184.141 745.429 185.506C744.313 186.839 743.754 188.793 743.754 191.368ZM777.256 183.924H774.93C773.999 183.924 773.162 184.032 772.417 184.249C771.673 184.435 771.037 184.792 770.51 185.319C769.982 185.847 769.579 186.56 769.3 187.46C769.021 188.359 768.881 189.507 768.881 190.903V202.535L768.416 203H764.694L764.228 202.535V180.201L764.694 179.736H767.951L768.416 180.201L768.881 182.062H769.346C769.688 181.721 770.044 181.411 770.417 181.132C770.789 180.822 771.207 180.574 771.673 180.387C772.138 180.17 772.665 180.015 773.255 179.922C773.875 179.798 774.589 179.736 775.395 179.736H777.256L777.721 180.201V183.458L777.256 183.924ZM780.062 202.535L779.597 203H777.271L776.805 202.535V199.278L793.555 170.896L794.021 170.43H796.347L796.812 170.896V174.153L780.062 202.535ZM822.401 202.535L821.936 203H817.748L817.283 202.535L812.63 186.25H812.165L807.512 202.535L807.047 203H802.859L802.394 202.535L796.811 183.458V180.201L797.276 179.736H800.067L800.533 180.201L804.72 196.021H805.186L809.838 180.201L810.304 179.736H814.491L814.956 180.201L819.609 196.021H820.074L824.262 180.201L824.727 179.736H827.519L827.984 180.201V183.458L822.401 202.535ZM829.391 191.368C829.391 189.507 829.639 187.832 830.135 186.343C830.663 184.854 831.407 183.582 832.369 182.528C833.33 181.473 834.494 180.667 835.858 180.108C837.254 179.55 838.821 179.271 840.558 179.271C842.295 179.271 843.846 179.55 845.21 180.108C846.606 180.667 847.785 181.473 848.747 182.528C849.708 183.582 850.437 184.854 850.933 186.343C851.461 187.832 851.724 189.507 851.724 191.368C851.724 193.229 851.461 194.904 850.933 196.393C850.437 197.882 849.708 199.154 848.747 200.208C847.785 201.263 846.606 202.069 845.21 202.628C843.846 203.186 842.295 203.465 840.558 203.465C838.821 203.465 837.254 203.186 835.858 202.628C834.494 202.069 833.33 201.263 832.369 200.208C831.407 199.154 830.663 197.882 830.135 196.393C829.639 194.904 829.391 193.229 829.391 191.368ZM834.044 191.368C834.044 193.943 834.602 195.912 835.719 197.277C836.835 198.611 838.448 199.278 840.558 199.278C842.667 199.278 844.28 198.611 845.397 197.277C846.513 195.912 847.072 193.943 847.072 191.368C847.072 188.793 846.513 186.839 845.397 185.506C844.28 184.141 842.667 183.458 840.558 183.458C838.448 183.458 836.835 184.141 835.719 185.506C834.602 186.839 834.044 188.793 834.044 191.368ZM867.546 183.924H865.219C864.289 183.924 863.451 184.032 862.707 184.249C861.962 184.435 861.326 184.792 860.799 185.319C860.272 185.847 859.869 186.56 859.589 187.46C859.31 188.359 859.171 189.507 859.171 190.903V202.535L858.705 203H854.983L854.518 202.535V180.201L854.983 179.736H858.24L858.705 180.201L859.171 182.062H859.636C859.977 181.721 860.334 181.411 860.706 181.132C861.078 180.822 861.497 180.574 861.962 180.387C862.428 180.17 862.955 180.015 863.544 179.922C864.165 179.798 864.878 179.736 865.684 179.736H867.546L868.011 180.201V183.458L867.546 183.924ZM888.954 203H887.093L886.162 202.535L879.183 193.694H878.718L875.461 196.951L874.996 197.882V202.535L874.53 203H870.808L870.343 202.535V170.896L870.808 170.43H874.53L874.996 170.896V190.903H875.461L886.162 180.201L887.093 179.736H888.489L888.954 180.201V183.458L882.44 189.972V190.437L889.419 199.278V202.535L888.954 203ZM906.645 189.042C906.645 188.7 906.583 188.22 906.459 187.599C906.366 186.948 906.134 186.328 905.761 185.738C905.389 185.118 904.831 184.59 904.086 184.156C903.342 183.691 902.334 183.458 901.062 183.458C899.79 183.458 898.782 183.691 898.038 184.156C897.293 184.59 896.735 185.118 896.363 185.738C895.99 186.328 895.742 186.948 895.618 187.599C895.525 188.22 895.479 188.7 895.479 189.042L895.944 189.507H906.18L906.645 189.042ZM901.527 203.465C899.666 203.465 898.038 203.171 896.642 202.581C895.246 201.961 894.083 201.123 893.152 200.069C892.222 198.983 891.524 197.696 891.059 196.207C890.593 194.718 890.361 193.105 890.361 191.368C890.361 189.755 890.562 188.22 890.965 186.762C891.4 185.273 892.051 183.986 892.92 182.9C893.788 181.783 894.889 180.899 896.223 180.248C897.588 179.596 899.201 179.271 901.062 179.271C902.923 179.271 904.521 179.596 905.854 180.248C907.219 180.899 908.336 181.783 909.204 182.9C910.073 183.986 910.709 185.273 911.112 186.762C911.546 188.22 911.763 189.755 911.763 191.368V192.764L911.298 193.229H895.944L895.479 193.694C895.479 193.943 895.525 194.377 895.618 194.997C895.742 195.587 896.006 196.207 896.409 196.858C896.812 197.479 897.417 198.037 898.224 198.533C899.03 199.03 900.131 199.278 901.527 199.278C901.993 199.278 902.442 199.247 902.877 199.185C903.342 199.092 903.776 198.952 904.179 198.766C904.614 198.549 904.986 198.27 905.296 197.928C905.637 197.556 905.932 197.075 906.18 196.486L906.645 196.021H910.368L910.833 196.486C910.709 197.417 910.414 198.301 909.949 199.138C909.515 199.976 908.894 200.72 908.088 201.372C907.312 202.023 906.366 202.535 905.25 202.907C904.164 203.279 902.923 203.465 901.527 203.465ZM927.561 183.924H925.235C924.304 183.924 923.467 184.032 922.722 184.249C921.978 184.435 921.342 184.792 920.815 185.319C920.287 185.847 919.884 186.56 919.605 187.46C919.326 188.359 919.186 189.507 919.186 190.903V202.535L918.721 203H914.999L914.533 202.535V180.201L914.999 179.736H918.256L918.721 180.201L919.186 182.062H919.651C919.993 181.721 920.349 181.411 920.722 181.132C921.094 180.822 921.512 180.574 921.978 180.387C922.443 180.17 922.97 180.015 923.56 179.922C924.18 179.798 924.894 179.736 925.7 179.736H927.561L928.026 180.201V183.458L927.561 183.924ZM945.236 176.014H941.514L941.049 175.549V171.826L941.514 171.361H945.236L945.702 171.826V175.549L945.236 176.014ZM945.236 203H941.514L941.049 202.535V180.201L941.514 179.736H945.236L945.702 180.201V202.535L945.236 203ZM969.418 203H965.696L965.231 202.535V189.042C965.231 188.452 965.184 187.832 965.091 187.181C964.998 186.529 964.781 185.924 964.44 185.366C964.129 184.808 963.664 184.358 963.044 184.017C962.454 183.644 961.632 183.458 960.578 183.458C958.437 183.458 956.887 184.079 955.925 185.319C954.994 186.529 954.529 188.545 954.529 191.368V202.535L954.064 203H950.342L949.876 202.535V180.201L950.342 179.736H953.599L954.064 180.201L954.529 182.062H954.994C955.677 181.163 956.545 180.481 957.6 180.015C958.655 179.519 959.802 179.271 961.043 179.271C962.656 179.271 964.021 179.519 965.137 180.015C966.285 180.512 967.2 181.194 967.883 182.062C968.596 182.931 969.108 183.97 969.418 185.18C969.728 186.359 969.883 187.646 969.883 189.042V202.535L969.418 203ZM985.716 203H981.993C981.187 203 980.38 202.891 979.574 202.674C978.798 202.426 978.1 202.054 977.48 201.558C976.891 201.061 976.41 200.441 976.038 199.697C975.666 198.921 975.479 198.006 975.479 196.951V184.389L975.014 183.924H971.757L971.292 183.458V180.201L971.757 179.736H975.014L975.479 179.271V175.083L975.945 174.618H979.667L980.132 175.083V179.271L980.597 179.736H985.716L986.181 180.201V183.458L985.716 183.924H980.597L980.132 184.389V196.951C980.132 197.665 980.318 198.161 980.691 198.44C981.094 198.688 981.528 198.812 981.993 198.812H985.716L986.181 199.278V202.535L985.716 203ZM1003.41 189.042C1003.41 188.7 1003.35 188.22 1003.23 187.599C1003.13 186.948 1002.9 186.328 1002.53 185.738C1002.16 185.118 1001.6 184.59 1000.85 184.156C1000.11 183.691 999.101 183.458 997.829 183.458C996.557 183.458 995.549 183.691 994.805 184.156C994.06 184.59 993.502 185.118 993.13 185.738C992.758 186.328 992.509 186.948 992.385 187.599C992.292 188.22 992.246 188.7 992.246 189.042L992.711 189.507H1002.95L1003.41 189.042ZM998.294 203.465C996.433 203.465 994.805 203.171 993.409 202.581C992.013 201.961 990.85 201.123 989.919 200.069C988.989 198.983 988.291 197.696 987.826 196.207C987.36 194.718 987.128 193.105 987.128 191.368C987.128 189.755 987.329 188.22 987.733 186.762C988.167 185.273 988.818 183.986 989.687 182.9C990.555 181.783 991.656 180.899 992.99 180.248C994.355 179.596 995.968 179.271 997.829 179.271C999.69 179.271 1001.29 179.596 1002.62 180.248C1003.99 180.899 1005.1 181.783 1005.97 182.9C1006.84 183.986 1007.48 185.273 1007.88 186.762C1008.31 188.22 1008.53 189.755 1008.53 191.368V192.764L1008.07 193.229H992.711L992.246 193.694C992.246 193.943 992.292 194.377 992.385 194.997C992.509 195.587 992.773 196.207 993.176 196.858C993.58 197.479 994.184 198.037 994.991 198.533C995.797 199.03 996.899 199.278 998.294 199.278C998.76 199.278 999.209 199.247 999.644 199.185C1000.11 199.092 1000.54 198.952 1000.95 198.766C1001.38 198.549 1001.75 198.27 1002.06 197.928C1002.4 197.556 1002.7 197.075 1002.95 196.486L1003.41 196.021H1007.13L1007.6 196.486C1007.48 197.417 1007.18 198.301 1006.72 199.138C1006.28 199.976 1005.66 200.72 1004.85 201.372C1004.08 202.023 1003.13 202.535 1002.02 202.907C1000.93 203.279 999.69 203.465 998.294 203.465ZM1024.33 183.924H1022C1021.07 183.924 1020.23 184.032 1019.49 184.249C1018.74 184.435 1018.11 184.792 1017.58 185.319C1017.05 185.847 1016.65 186.56 1016.37 187.46C1016.09 188.359 1015.95 189.507 1015.95 190.903V202.535L1015.49 203H1011.77L1011.3 202.535V180.201L1011.77 179.736H1015.02L1015.49 180.201L1015.95 182.062H1016.42C1016.76 181.721 1017.12 181.411 1017.49 181.132C1017.86 180.822 1018.28 180.574 1018.74 180.387C1019.21 180.17 1019.74 180.015 1020.33 179.922C1020.95 179.798 1021.66 179.736 1022.47 179.736H1024.33L1024.79 180.201V183.458L1024.33 183.924ZM1043.9 203H1040.64L1040.17 202.535L1039.71 200.674H1039.24C1038.47 201.604 1037.51 202.302 1036.36 202.767C1035.24 203.233 1034.03 203.465 1032.73 203.465C1030.12 203.465 1028.16 202.814 1026.82 201.511C1025.49 200.177 1024.82 198.347 1024.82 196.021C1024.82 194.749 1025.07 193.648 1025.57 192.717C1026.06 191.756 1026.76 190.98 1027.66 190.391C1028.56 189.771 1029.63 189.321 1030.87 189.042C1032.14 188.731 1033.54 188.576 1035.06 188.576C1035.77 188.576 1036.5 188.623 1037.24 188.716C1037.99 188.809 1038.65 188.918 1039.24 189.042L1039.71 188.576V187.646C1039.71 186.002 1039.34 184.901 1038.59 184.342C1037.88 183.753 1036.7 183.458 1035.06 183.458C1033.38 183.458 1032.19 183.691 1031.47 184.156C1030.76 184.621 1030.4 185.319 1030.4 186.25L1029.94 186.715H1026.22L1025.75 186.25C1025.75 185.443 1025.91 184.621 1026.22 183.784C1026.53 182.946 1027.04 182.202 1027.75 181.551C1028.5 180.868 1029.46 180.325 1030.64 179.922C1031.85 179.488 1033.32 179.271 1035.06 179.271C1036.79 179.271 1038.25 179.488 1039.43 179.922C1040.64 180.325 1041.6 180.946 1042.32 181.783C1043.06 182.621 1043.59 183.691 1043.9 184.994C1044.21 186.265 1044.36 187.77 1044.36 189.507V202.535L1043.9 203ZM1039.71 193.229L1039.24 192.764C1038.53 192.578 1037.88 192.454 1037.29 192.392C1036.7 192.33 1036.11 192.299 1035.52 192.299C1033.38 192.299 1031.83 192.624 1030.87 193.276C1029.94 193.927 1029.47 194.842 1029.47 196.021C1029.47 197.2 1029.81 198.037 1030.5 198.533C1031.21 199.03 1032.27 199.278 1033.66 199.278C1035.52 199.278 1037 198.859 1038.08 198.022C1039.17 197.153 1039.71 196.021 1039.71 194.625V193.229ZM1051.34 191.368C1051.34 193.943 1051.9 195.912 1053.02 197.277C1054.13 198.611 1055.75 199.278 1057.86 199.278C1058.79 199.278 1059.58 199.169 1060.23 198.952C1060.88 198.735 1061.42 198.456 1061.86 198.115C1062.29 197.773 1062.63 197.386 1062.88 196.951C1063.13 196.486 1063.31 196.021 1063.44 195.556L1063.9 195.09H1067.63L1068.09 195.556C1067.97 196.61 1067.67 197.618 1067.21 198.58C1066.74 199.51 1066.09 200.348 1065.25 201.092C1064.42 201.806 1063.38 202.38 1062.14 202.814C1060.9 203.248 1059.47 203.465 1057.86 203.465C1056.12 203.465 1054.55 203.186 1053.16 202.628C1051.79 202.069 1050.63 201.263 1049.67 200.208C1048.71 199.154 1047.96 197.882 1047.43 196.393C1046.94 194.904 1046.69 193.229 1046.69 191.368C1046.69 189.507 1046.94 187.832 1047.43 186.343C1047.96 184.854 1048.71 183.582 1049.67 182.528C1050.63 181.473 1051.79 180.667 1053.16 180.108C1054.55 179.55 1056.12 179.271 1057.86 179.271C1059.47 179.271 1060.9 179.488 1062.14 179.922C1063.38 180.356 1064.42 180.946 1065.25 181.69C1066.09 182.404 1066.74 183.241 1067.21 184.203C1067.67 185.133 1067.97 186.126 1068.09 187.181L1067.63 187.646H1063.9L1063.44 187.181C1063.31 186.715 1063.13 186.265 1062.88 185.831C1062.63 185.366 1062.29 184.963 1061.86 184.621C1061.42 184.28 1060.88 184.001 1060.23 183.784C1059.58 183.567 1058.79 183.458 1057.86 183.458C1055.75 183.458 1054.13 184.141 1053.02 185.506C1051.9 186.839 1051.34 188.793 1051.34 191.368ZM1082.97 203H1079.25C1078.44 203 1077.63 202.891 1076.83 202.674C1076.05 202.426 1075.35 202.054 1074.73 201.558C1074.14 201.061 1073.66 200.441 1073.29 199.697C1072.92 198.921 1072.73 198.006 1072.73 196.951V184.389L1072.27 183.924H1069.01L1068.55 183.458V180.201L1069.01 179.736H1072.27L1072.73 179.271V175.083L1073.2 174.618H1076.92L1077.39 175.083V179.271L1077.85 179.736H1082.97L1083.43 180.201V183.458L1082.97 183.924H1077.85L1077.39 184.389V196.951C1077.39 197.665 1077.57 198.161 1077.94 198.44C1078.35 198.688 1078.78 198.812 1079.25 198.812H1082.97L1083.43 199.278V202.535L1082.97 203ZM1090.87 176.014H1087.15L1086.69 175.549V171.826L1087.15 171.361H1090.87L1091.34 171.826V175.549L1090.87 176.014ZM1090.87 203H1087.15L1086.69 202.535V180.201L1087.15 179.736H1090.87L1091.34 180.201V202.535L1090.87 203ZM1094.12 191.368C1094.12 189.507 1094.37 187.832 1094.86 186.343C1095.39 184.854 1096.13 183.582 1097.1 182.528C1098.06 181.473 1099.22 180.667 1100.59 180.108C1101.98 179.55 1103.55 179.271 1105.28 179.271C1107.02 179.271 1108.57 179.55 1109.94 180.108C1111.33 180.667 1112.51 181.473 1113.47 182.528C1114.44 183.582 1115.16 184.854 1115.66 186.343C1116.19 187.832 1116.45 189.507 1116.45 191.368C1116.45 193.229 1116.19 194.904 1115.66 196.393C1115.16 197.882 1114.44 199.154 1113.47 200.208C1112.51 201.263 1111.33 202.069 1109.94 202.628C1108.57 203.186 1107.02 203.465 1105.28 203.465C1103.55 203.465 1101.98 203.186 1100.59 202.628C1099.22 202.069 1098.06 201.263 1097.1 200.208C1096.13 199.154 1095.39 197.882 1094.86 196.393C1094.37 194.904 1094.12 193.229 1094.12 191.368ZM1098.77 191.368C1098.77 193.943 1099.33 195.912 1100.45 197.277C1101.56 198.611 1103.18 199.278 1105.28 199.278C1107.39 199.278 1109.01 198.611 1110.12 197.277C1111.24 195.912 1111.8 193.943 1111.8 191.368C1111.8 188.793 1111.24 186.839 1110.12 185.506C1109.01 184.141 1107.39 183.458 1105.28 183.458C1103.18 183.458 1101.56 184.141 1100.45 185.506C1099.33 186.839 1098.77 188.793 1098.77 191.368ZM1138.79 203H1135.06L1134.6 202.535V189.042C1134.6 188.452 1134.55 187.832 1134.46 187.181C1134.37 186.529 1134.15 185.924 1133.81 185.366C1133.5 184.808 1133.03 184.358 1132.41 184.017C1131.82 183.644 1131 183.458 1129.95 183.458C1127.81 183.458 1126.26 184.079 1125.29 185.319C1124.36 186.529 1123.9 188.545 1123.9 191.368V202.535L1123.43 203H1119.71L1119.25 202.535V180.201L1119.71 179.736H1122.97L1123.43 180.201L1123.9 182.062H1124.36C1125.05 181.163 1125.91 180.481 1126.97 180.015C1128.02 179.519 1129.17 179.271 1130.41 179.271C1132.02 179.271 1133.39 179.519 1134.51 180.015C1135.65 180.512 1136.57 181.194 1137.25 182.062C1137.96 182.931 1138.48 183.97 1138.79 185.18C1139.1 186.359 1139.25 187.646 1139.25 189.042V202.535L1138.79 203ZM1160.19 196.486C1160.19 197.417 1160.01 198.301 1159.63 199.138C1159.29 199.976 1158.73 200.72 1157.96 201.372C1157.21 202.023 1156.25 202.535 1155.07 202.907C1153.89 203.279 1152.5 203.465 1150.89 203.465C1147.85 203.465 1145.54 202.798 1143.95 201.465C1142.37 200.1 1141.58 198.13 1141.58 195.556L1142.05 195.09H1145.77L1146.23 195.556C1146.23 196.734 1146.59 197.649 1147.3 198.301C1148.05 198.952 1149.24 199.278 1150.89 199.278C1152.53 199.278 1153.71 199.045 1154.42 198.58C1155.17 198.115 1155.54 197.417 1155.54 196.486C1155.54 195.897 1155.43 195.416 1155.21 195.044C1155.03 194.672 1154.7 194.361 1154.24 194.113C1153.77 193.834 1153.15 193.601 1152.37 193.415C1151.6 193.229 1150.64 193.012 1149.49 192.764C1148.31 192.547 1147.26 192.252 1146.33 191.88C1145.43 191.508 1144.65 191.042 1144 190.484C1143.38 189.926 1142.9 189.274 1142.56 188.53C1142.22 187.754 1142.05 186.839 1142.05 185.785C1142.05 184.978 1142.2 184.187 1142.51 183.412C1142.82 182.605 1143.32 181.907 1144 181.318C1144.71 180.698 1145.63 180.201 1146.74 179.829C1147.86 179.457 1149.24 179.271 1150.89 179.271C1152.16 179.271 1153.34 179.426 1154.42 179.736C1155.51 180.015 1156.44 180.449 1157.21 181.039C1158.02 181.597 1158.64 182.326 1159.07 183.226C1159.51 184.094 1159.73 185.102 1159.73 186.25L1159.26 186.715H1155.54L1155.07 186.25C1155.07 185.909 1155.01 185.568 1154.89 185.226C1154.76 184.885 1154.53 184.59 1154.19 184.342C1153.88 184.063 1153.44 183.846 1152.89 183.691C1152.36 183.536 1151.69 183.458 1150.89 183.458C1149.71 183.458 1148.71 183.613 1147.91 183.924C1147.1 184.234 1146.7 184.854 1146.7 185.785C1146.7 186.374 1146.82 186.855 1147.07 187.227C1147.32 187.599 1147.69 187.925 1148.19 188.204C1148.71 188.452 1149.38 188.685 1150.19 188.902C1151.03 189.088 1152.03 189.29 1153.21 189.507C1155.54 189.972 1157.28 190.732 1158.42 191.787C1159.6 192.81 1160.19 194.377 1160.19 196.486ZM1195.07 191.368C1195.07 193.105 1194.83 194.718 1194.33 196.207C1193.83 197.696 1193.14 198.983 1192.24 200.069C1191.34 201.123 1190.25 201.961 1188.98 202.581C1187.74 203.171 1186.36 203.465 1184.84 203.465C1183.66 203.465 1182.54 203.233 1181.49 202.767C1180.43 202.302 1179.53 201.604 1178.79 200.674H1178.32L1177.86 202.535L1177.39 203H1174.14L1173.67 202.535V170.896L1174.14 170.43H1177.86L1178.32 170.896V182.062H1178.79C1179.5 181.163 1180.37 180.481 1181.4 180.015C1182.45 179.519 1183.6 179.271 1184.84 179.271C1186.36 179.271 1187.74 179.55 1188.98 180.108C1190.25 180.667 1191.34 181.473 1192.24 182.528C1193.14 183.582 1193.83 184.854 1194.33 186.343C1194.83 187.832 1195.07 189.507 1195.07 191.368ZM1190.42 191.368C1190.42 188.762 1189.88 186.793 1188.79 185.459C1187.71 184.125 1186.23 183.458 1184.37 183.458C1182.51 183.458 1181.04 184.079 1179.95 185.319C1178.87 186.56 1178.32 188.576 1178.32 191.368C1178.32 194.16 1178.87 196.176 1179.95 197.417C1181.04 198.657 1182.51 199.278 1184.37 199.278C1186.23 199.278 1187.71 198.611 1188.79 197.277C1189.88 195.943 1190.42 193.974 1190.42 191.368ZM1209.5 202.069C1208.79 203.806 1208.12 205.218 1207.5 206.303C1206.88 207.42 1206.18 208.273 1205.41 208.863C1204.66 209.483 1203.79 209.902 1202.8 210.119C1201.84 210.336 1200.66 210.444 1199.26 210.444H1198.33L1197.87 209.979V206.722L1198.33 206.257H1199.26C1200.44 206.257 1201.39 206.086 1202.1 205.745C1202.85 205.404 1203.45 204.644 1203.92 203.465V203L1196.01 183.458V180.201L1196.47 179.736H1199.26L1199.73 180.201L1206.24 197.417H1206.71L1213.22 180.201L1213.69 179.736H1216.48L1216.94 180.201V183.458L1209.5 202.069ZM1234.6 203H1230.88L1230.42 202.535V170.896L1230.88 170.43H1234.6L1235.07 170.896V202.535L1234.6 203ZM1243.43 176.014H1239.71L1239.24 175.549V171.826L1239.71 171.361H1243.43L1243.9 171.826V175.549L1243.43 176.014ZM1243.43 203H1239.71L1239.24 202.535V180.201L1239.71 179.736H1243.43L1243.9 180.201V202.535L1243.43 203ZM1280.18 203H1276.45L1275.99 202.535V188.576C1275.99 187.894 1275.94 187.243 1275.85 186.622C1275.75 186.002 1275.57 185.459 1275.29 184.994C1275.01 184.528 1274.59 184.156 1274.03 183.877C1273.48 183.598 1272.73 183.458 1271.8 183.458C1270.16 183.458 1268.88 184.001 1267.98 185.087C1267.12 186.172 1266.68 187.646 1266.68 189.507V202.535L1266.22 203H1262.49L1262.03 202.535V188.576C1262.03 187.894 1261.98 187.243 1261.89 186.622C1261.8 186.002 1261.61 185.459 1261.33 184.994C1261.05 184.528 1260.63 184.156 1260.08 183.877C1259.52 183.598 1258.77 183.458 1257.84 183.458C1257.25 183.458 1256.65 183.567 1256.03 183.784C1255.44 183.97 1254.89 184.296 1254.4 184.761C1253.9 185.226 1253.5 185.847 1253.19 186.622C1252.88 187.398 1252.72 188.359 1252.72 189.507V202.535L1252.26 203H1248.54L1248.07 202.535V180.201L1248.54 179.736H1251.79L1252.26 180.201L1252.72 182.062H1253.19C1253.65 181.349 1254.37 180.713 1255.33 180.155C1256.29 179.565 1257.59 179.271 1259.24 179.271C1260.17 179.271 1260.96 179.379 1261.61 179.596C1262.26 179.783 1262.82 180.046 1263.29 180.387C1263.75 180.698 1264.14 181.054 1264.45 181.458C1264.76 181.83 1265.04 182.187 1265.29 182.528H1265.75C1266.46 181.597 1267.4 180.822 1268.54 180.201C1269.69 179.581 1271.09 179.271 1272.73 179.271C1274.34 179.271 1275.66 179.519 1276.69 180.015C1277.74 180.512 1278.55 181.178 1279.11 182.016C1279.69 182.853 1280.1 183.846 1280.31 184.994C1280.53 186.11 1280.64 187.305 1280.64 188.576V202.535L1280.18 203ZM1288.53 176.014H1284.81L1284.34 175.549V171.826L1284.81 171.361H1288.53L1289 171.826V175.549L1288.53 176.014ZM1288.53 203H1284.81L1284.34 202.535V180.201L1284.81 179.736H1288.53L1289 180.201V202.535L1288.53 203ZM1305.73 203H1302.01C1301.2 203 1300.4 202.891 1299.59 202.674C1298.82 202.426 1298.12 202.054 1297.5 201.558C1296.91 201.061 1296.43 200.441 1296.05 199.697C1295.68 198.921 1295.5 198.006 1295.5 196.951V184.389L1295.03 183.924H1291.77L1291.31 183.458V180.201L1291.77 179.736H1295.03L1295.5 179.271V175.083L1295.96 174.618H1299.68L1300.15 175.083V179.271L1300.61 179.736H1305.73L1306.2 180.201V183.458L1305.73 183.924H1300.61L1300.15 184.389V196.951C1300.15 197.665 1300.34 198.161 1300.71 198.44C1301.11 198.688 1301.55 198.812 1302.01 198.812H1305.73L1306.2 199.278V202.535L1305.73 203ZM1313.64 176.014H1309.91L1309.45 175.549V171.826L1309.91 171.361H1313.64L1314.1 171.826V175.549L1313.64 176.014ZM1313.64 203H1309.91L1309.45 202.535V180.201L1309.91 179.736H1313.64L1314.1 180.201V202.535L1313.64 203ZM1337.82 203H1334.1L1333.63 202.535V189.042C1333.63 188.452 1333.58 187.832 1333.49 187.181C1333.4 186.529 1333.18 185.924 1332.84 185.366C1332.53 184.808 1332.06 184.358 1331.44 184.017C1330.86 183.644 1330.03 183.458 1328.98 183.458C1326.84 183.458 1325.29 184.079 1324.33 185.319C1323.4 186.529 1322.93 188.545 1322.93 191.368V202.535L1322.46 203H1318.74L1318.28 202.535V180.201L1318.74 179.736H1322L1322.46 180.201L1322.93 182.062H1323.4C1324.08 181.163 1324.95 180.481 1326 180.015C1327.06 179.519 1328.2 179.271 1329.44 179.271C1331.06 179.271 1332.42 179.519 1333.54 180.015C1334.69 180.512 1335.6 181.194 1336.28 182.062C1337 182.931 1337.51 183.97 1337.82 185.18C1338.13 186.359 1338.28 187.646 1338.28 189.042V202.535L1337.82 203ZM1351.31 208.583C1353.45 208.583 1354.99 207.916 1355.92 206.583C1356.88 205.249 1357.36 203.279 1357.36 200.674H1356.9C1356.18 201.573 1355.3 202.271 1354.24 202.767C1353.22 203.233 1352.09 203.465 1350.85 203.465C1349.2 203.465 1347.75 203.171 1346.47 202.581C1345.23 201.961 1344.16 201.123 1343.26 200.069C1342.4 198.983 1341.73 197.696 1341.26 196.207C1340.83 194.718 1340.61 193.105 1340.61 191.368C1340.61 189.631 1340.83 188.018 1341.26 186.529C1341.73 185.04 1342.4 183.768 1343.26 182.714C1344.16 181.628 1345.23 180.791 1346.47 180.201C1347.75 179.581 1349.2 179.271 1350.85 179.271C1352.03 179.271 1353.14 179.503 1354.2 179.969C1355.28 180.434 1356.18 181.132 1356.9 182.062H1357.36L1357.83 180.201L1358.29 179.736H1361.55L1362.02 180.201V200.208C1362.02 202.535 1361.72 204.489 1361.13 206.071C1360.54 207.684 1359.75 208.987 1358.76 209.979C1357.77 210.972 1356.62 211.685 1355.32 212.119C1354.04 212.554 1352.71 212.771 1351.31 212.771C1348.49 212.771 1346.29 212.15 1344.71 210.91C1343.16 209.669 1342.26 208.118 1342.01 206.257L1342.47 205.792H1346.2L1346.66 206.257C1347.13 207.188 1347.72 207.808 1348.43 208.118C1349.17 208.428 1350.13 208.583 1351.31 208.583ZM1357.36 191.368C1357.36 188.576 1356.82 186.56 1355.73 185.319C1354.65 184.079 1353.17 183.458 1351.31 183.458C1349.45 183.458 1347.98 184.125 1346.89 185.459C1345.81 186.793 1345.27 188.762 1345.27 191.368C1345.27 193.974 1345.81 195.943 1346.89 197.277C1347.98 198.611 1349.45 199.278 1351.31 199.278C1353.17 199.278 1354.65 198.657 1355.73 197.417C1356.82 196.176 1357.36 194.16 1357.36 191.368ZM1389.45 203H1385.72C1384.92 203 1384.11 202.891 1383.3 202.674C1382.53 202.426 1381.83 202.054 1381.21 201.558C1380.62 201.061 1380.14 200.441 1379.77 199.697C1379.4 198.921 1379.21 198.006 1379.21 196.951V184.389L1378.75 183.924H1375.49L1375.02 183.458V180.201L1375.49 179.736H1378.75L1379.21 179.271V175.083L1379.68 174.618H1383.4L1383.86 175.083V179.271L1384.33 179.736H1389.45L1389.91 180.201V183.458L1389.45 183.924H1384.33L1383.86 184.389V196.951C1383.86 197.665 1384.05 198.161 1384.42 198.44C1384.82 198.688 1385.26 198.812 1385.72 198.812H1389.45L1389.91 199.278V202.535L1389.45 203ZM1412.71 203H1408.98L1408.52 202.535V189.042C1408.52 188.359 1408.44 187.677 1408.28 186.994C1408.16 186.312 1407.93 185.723 1407.59 185.226C1407.25 184.699 1406.77 184.28 1406.14 183.97C1405.56 183.629 1404.8 183.458 1403.86 183.458C1402 183.458 1400.53 184.001 1399.44 185.087C1398.36 186.172 1397.82 188.111 1397.82 190.903V202.535L1397.35 203H1393.63L1393.16 202.535V170.896L1393.63 170.43H1397.35L1397.82 170.896V182.062H1398.28C1398.96 181.163 1399.83 180.481 1400.89 180.015C1401.94 179.519 1403.09 179.271 1404.33 179.271C1406.07 179.271 1407.51 179.55 1408.66 180.108C1409.8 180.636 1410.7 181.349 1411.36 182.249C1412.04 183.148 1412.5 184.187 1412.75 185.366C1413.03 186.545 1413.17 187.77 1413.17 189.042V202.535L1412.71 203ZM1432.24 189.042C1432.24 188.7 1432.18 188.22 1432.05 187.599C1431.96 186.948 1431.73 186.328 1431.35 185.738C1430.98 185.118 1430.42 184.59 1429.68 184.156C1428.93 183.691 1427.93 183.458 1426.65 183.458C1425.38 183.458 1424.37 183.691 1423.63 184.156C1422.89 184.59 1422.33 185.118 1421.95 185.738C1421.58 186.328 1421.33 186.948 1421.21 187.599C1421.12 188.22 1421.07 188.7 1421.07 189.042L1421.54 189.507H1431.77L1432.24 189.042ZM1427.12 203.465C1425.26 203.465 1423.63 203.171 1422.23 202.581C1420.84 201.961 1419.68 201.123 1418.74 200.069C1417.81 198.983 1417.12 197.696 1416.65 196.207C1416.19 194.718 1415.95 193.105 1415.95 191.368C1415.95 189.755 1416.15 188.22 1416.56 186.762C1416.99 185.273 1417.64 183.986 1418.51 182.9C1419.38 181.783 1420.48 180.899 1421.82 180.248C1423.18 179.596 1424.79 179.271 1426.65 179.271C1428.52 179.271 1430.11 179.596 1431.45 180.248C1432.81 180.899 1433.93 181.783 1434.8 182.9C1435.67 183.986 1436.3 185.273 1436.7 186.762C1437.14 188.22 1437.36 189.755 1437.36 191.368V192.764L1436.89 193.229H1421.54L1421.07 193.694C1421.07 193.943 1421.12 194.377 1421.21 194.997C1421.33 195.587 1421.6 196.207 1422 196.858C1422.4 197.479 1423.01 198.037 1423.82 198.533C1424.62 199.03 1425.72 199.278 1427.12 199.278C1427.58 199.278 1428.03 199.247 1428.47 199.185C1428.93 199.092 1429.37 198.952 1429.77 198.766C1430.21 198.549 1430.58 198.27 1430.89 197.928C1431.23 197.556 1431.52 197.075 1431.77 196.486L1432.24 196.021H1435.96L1436.43 196.486C1436.3 197.417 1436.01 198.301 1435.54 199.138C1435.11 199.976 1434.49 200.72 1433.68 201.372C1432.9 202.023 1431.96 202.535 1430.84 202.907C1429.76 203.279 1428.52 203.465 1427.12 203.465ZM1468.5 203H1465.24L1464.77 202.535L1464.31 200.674H1463.84C1463.07 201.604 1462.11 202.302 1460.96 202.767C1459.84 203.233 1458.63 203.465 1457.33 203.465C1454.72 203.465 1452.75 202.814 1451.42 201.511C1450.09 200.177 1449.42 198.347 1449.42 196.021C1449.42 194.749 1449.67 193.648 1450.16 192.717C1450.66 191.756 1451.36 190.98 1452.26 190.391C1453.16 189.771 1454.23 189.321 1455.47 189.042C1456.74 188.731 1458.14 188.576 1459.66 188.576C1460.37 188.576 1461.1 188.623 1461.84 188.716C1462.59 188.809 1463.25 188.918 1463.84 189.042L1464.31 188.576V187.646C1464.31 186.002 1463.94 184.901 1463.19 184.342C1462.48 183.753 1461.3 183.458 1459.66 183.458C1457.98 183.458 1456.79 183.691 1456.07 184.156C1455.36 184.621 1455 185.319 1455 186.25L1454.54 186.715H1450.82L1450.35 186.25C1450.35 185.443 1450.51 184.621 1450.82 183.784C1451.13 182.946 1451.64 182.202 1452.35 181.551C1453.1 180.868 1454.06 180.325 1455.24 179.922C1456.45 179.488 1457.92 179.271 1459.66 179.271C1461.39 179.271 1462.85 179.488 1464.03 179.922C1465.24 180.325 1466.2 180.946 1466.91 181.783C1467.66 182.621 1468.19 183.691 1468.5 184.994C1468.81 186.265 1468.96 187.77 1468.96 189.507V202.535L1468.5 203ZM1464.31 193.229L1463.84 192.764C1463.13 192.578 1462.48 192.454 1461.89 192.392C1461.3 192.33 1460.71 192.299 1460.12 192.299C1457.98 192.299 1456.43 192.624 1455.47 193.276C1454.54 193.927 1454.07 194.842 1454.07 196.021C1454.07 197.2 1454.41 198.037 1455.1 198.533C1455.81 199.03 1456.86 199.278 1458.26 199.278C1460.12 199.278 1461.6 198.859 1462.68 198.022C1463.77 197.153 1464.31 196.021 1464.31 194.625V193.229ZM1504.79 203H1501.07L1500.6 202.535V188.576C1500.6 187.894 1500.55 187.243 1500.46 186.622C1500.37 186.002 1500.18 185.459 1499.9 184.994C1499.62 184.528 1499.21 184.156 1498.65 183.877C1498.09 183.598 1497.34 183.458 1496.41 183.458C1494.77 183.458 1493.5 184.001 1492.6 185.087C1491.73 186.172 1491.3 187.646 1491.3 189.507V202.535L1490.83 203H1487.11L1486.64 202.535V188.576C1486.64 187.894 1486.6 187.243 1486.5 186.622C1486.41 186.002 1486.22 185.459 1485.94 184.994C1485.67 184.528 1485.25 184.156 1484.69 183.877C1484.13 183.598 1483.39 183.458 1482.45 183.458C1481.87 183.458 1481.26 183.567 1480.64 183.784C1480.05 183.97 1479.51 184.296 1479.01 184.761C1478.52 185.226 1478.11 185.847 1477.8 186.622C1477.49 187.398 1477.34 188.359 1477.34 189.507V202.535L1476.87 203H1473.15L1472.68 202.535V180.201L1473.15 179.736H1476.41L1476.87 180.201L1477.34 182.062H1477.8C1478.27 181.349 1478.98 180.713 1479.94 180.155C1480.9 179.565 1482.21 179.271 1483.85 179.271C1484.78 179.271 1485.57 179.379 1486.22 179.596C1486.88 179.783 1487.43 180.046 1487.9 180.387C1488.36 180.698 1488.75 181.054 1489.06 181.458C1489.37 181.83 1489.65 182.187 1489.9 182.528H1490.36C1491.08 181.597 1492.01 180.822 1493.16 180.201C1494.3 179.581 1495.7 179.271 1497.34 179.271C1498.96 179.271 1500.28 179.519 1501.3 180.015C1502.35 180.512 1503.16 181.178 1503.72 182.016C1504.31 182.853 1504.71 183.846 1504.93 184.994C1505.15 186.11 1505.25 187.305 1505.25 188.576V202.535L1504.79 203ZM1507.56 191.368C1507.56 189.507 1507.81 187.832 1508.3 186.343C1508.83 184.854 1509.58 183.582 1510.54 182.528C1511.5 181.473 1512.66 180.667 1514.03 180.108C1515.42 179.55 1516.99 179.271 1518.73 179.271C1520.46 179.271 1522.01 179.55 1523.38 180.108C1524.78 180.667 1525.95 181.473 1526.92 182.528C1527.88 183.582 1528.61 184.854 1529.1 186.343C1529.63 187.832 1529.89 189.507 1529.89 191.368C1529.89 193.229 1529.63 194.904 1529.1 196.393C1528.61 197.882 1527.88 199.154 1526.92 200.208C1525.95 201.263 1524.78 202.069 1523.38 202.628C1522.01 203.186 1520.46 203.465 1518.73 203.465C1516.99 203.465 1515.42 203.186 1514.03 202.628C1512.66 202.069 1511.5 201.263 1510.54 200.208C1509.58 199.154 1508.83 197.882 1508.3 196.393C1507.81 194.904 1507.56 193.229 1507.56 191.368ZM1512.21 191.368C1512.21 193.943 1512.77 195.912 1513.89 197.277C1515 198.611 1516.62 199.278 1518.73 199.278C1520.84 199.278 1522.45 198.611 1523.57 197.277C1524.68 195.912 1525.24 193.943 1525.24 191.368C1525.24 188.793 1524.68 186.839 1523.57 185.506C1522.45 184.141 1520.84 183.458 1518.73 183.458C1516.62 183.458 1515 184.141 1513.89 185.506C1512.77 186.839 1512.21 188.793 1512.21 191.368ZM1551.3 203H1548.04L1547.58 202.535L1547.11 200.674H1546.65C1546.02 201.511 1545.22 202.194 1544.23 202.721C1543.23 203.217 1542.18 203.465 1541.06 203.465C1539.42 203.465 1538.04 203.202 1536.92 202.674C1535.8 202.116 1534.89 201.387 1534.18 200.487C1533.49 199.588 1533 198.549 1532.69 197.37C1532.38 196.191 1532.22 194.966 1532.22 193.694V180.201L1532.69 179.736H1536.41L1536.87 180.201V193.694C1536.87 194.408 1536.94 195.106 1537.06 195.788C1537.22 196.44 1537.46 197.029 1537.81 197.556C1538.15 198.053 1538.61 198.471 1539.2 198.812C1539.82 199.123 1540.6 199.278 1541.53 199.278C1543.14 199.278 1544.47 198.657 1545.53 197.417C1546.58 196.176 1547.11 194.16 1547.11 191.368V180.201L1547.58 179.736H1551.3L1551.76 180.201V202.535L1551.3 203ZM1575.51 203H1571.78L1571.32 202.535V189.042C1571.32 188.452 1571.27 187.832 1571.18 187.181C1571.09 186.529 1570.87 185.924 1570.53 185.366C1570.22 184.808 1569.75 184.358 1569.13 184.017C1568.54 183.644 1567.72 183.458 1566.67 183.458C1564.52 183.458 1562.97 184.079 1562.01 185.319C1561.08 186.529 1560.62 188.545 1560.62 191.368V202.535L1560.15 203H1556.43L1555.96 202.535V180.201L1556.43 179.736H1559.69L1560.15 180.201L1560.62 182.062H1561.08C1561.76 181.163 1562.63 180.481 1563.69 180.015C1564.74 179.519 1565.89 179.271 1567.13 179.271C1568.74 179.271 1570.11 179.519 1571.22 180.015C1572.37 180.512 1573.29 181.194 1573.97 182.062C1574.68 182.931 1575.2 183.97 1575.51 185.18C1575.82 186.359 1575.97 187.646 1575.97 189.042V202.535L1575.51 203ZM1591.8 203H1588.08C1587.27 203 1586.47 202.891 1585.66 202.674C1584.89 202.426 1584.19 202.054 1583.57 201.558C1582.98 201.061 1582.5 200.441 1582.13 199.697C1581.75 198.921 1581.57 198.006 1581.57 196.951V184.389L1581.1 183.924H1577.84L1577.38 183.458V180.201L1577.84 179.736H1581.1L1581.57 179.271V175.083L1582.03 174.618H1585.75L1586.22 175.083V179.271L1586.68 179.736H1591.8L1592.27 180.201V183.458L1591.8 183.924H1586.68L1586.22 184.389V196.951C1586.22 197.665 1586.41 198.161 1586.78 198.44C1587.18 198.688 1587.62 198.812 1588.08 198.812H1591.8L1592.27 199.278V202.535L1591.8 203ZM335.396 245.368C335.396 243.507 335.644 241.832 336.14 240.343C336.668 238.854 337.412 237.582 338.374 236.528C339.335 235.473 340.498 234.667 341.863 234.108C343.259 233.55 344.825 233.271 346.563 233.271C348.3 233.271 349.85 233.55 351.215 234.108C352.611 234.667 353.79 235.473 354.751 236.528C355.713 237.582 356.442 238.854 356.938 240.343C357.466 241.832 357.729 243.507 357.729 245.368C357.729 247.229 357.466 248.904 356.938 250.393C356.442 251.882 355.713 253.154 354.751 254.208C353.79 255.263 352.611 256.069 351.215 256.628C349.85 257.186 348.3 257.465 346.563 257.465C344.825 257.465 343.259 257.186 341.863 256.628C340.498 256.069 339.335 255.263 338.374 254.208C337.412 253.154 336.668 251.882 336.14 250.393C335.644 248.904 335.396 247.229 335.396 245.368ZM340.049 245.368C340.049 247.943 340.607 249.912 341.724 251.277C342.84 252.611 344.453 253.278 346.563 253.278C348.672 253.278 350.285 252.611 351.401 251.277C352.518 249.912 353.076 247.943 353.076 245.368C353.076 242.793 352.518 240.839 351.401 239.506C350.285 238.141 348.672 237.458 346.563 237.458C344.453 237.458 342.84 238.141 341.724 239.506C340.607 240.839 340.049 242.793 340.049 245.368ZM372.631 237.924H367.978L367.513 238.389V256.535L367.048 257H363.325L362.86 256.535V238.389L362.395 237.924H359.138L358.672 237.458V234.201L359.138 233.736H362.395L362.86 233.271V231.41C362.86 230.355 363.046 229.455 363.418 228.711C363.791 227.936 364.271 227.3 364.861 226.803C365.481 226.307 366.179 225.95 366.954 225.733C367.761 225.485 368.567 225.361 369.374 225.361H373.096L373.561 225.826V229.083L373.096 229.549H369.374C368.909 229.549 368.474 229.688 368.071 229.967C367.699 230.215 367.513 230.696 367.513 231.41V233.271L367.978 233.736H372.631L373.096 234.201V237.458L372.631 237.924ZM390.771 230.014H387.049L386.584 229.549V225.826L387.049 225.361H390.771L391.237 225.826V229.549L390.771 230.014ZM390.771 257H387.049L386.584 256.535V234.201L387.049 233.736H390.771L391.237 234.201V256.535L390.771 257ZM414.953 257H411.231L410.766 256.535V243.042C410.766 242.452 410.719 241.832 410.626 241.181C410.533 240.529 410.316 239.924 409.975 239.366C409.664 238.808 409.199 238.358 408.579 238.017C407.989 237.644 407.167 237.458 406.113 237.458C403.972 237.458 402.422 238.079 401.46 239.319C400.529 240.529 400.064 242.545 400.064 245.368V256.535L399.599 257H395.877L395.411 256.535V234.201L395.877 233.736H399.134L399.599 234.201L400.064 236.062H400.529C401.212 235.163 402.08 234.481 403.135 234.015C404.19 233.519 405.337 233.271 406.578 233.271C408.191 233.271 409.556 233.519 410.672 234.015C411.82 234.512 412.735 235.194 413.418 236.062C414.131 236.931 414.643 237.97 414.953 239.18C415.263 240.359 415.418 241.646 415.418 243.042V256.535L414.953 257ZM431.251 257H427.528C426.722 257 425.915 256.891 425.109 256.674C424.333 256.426 423.635 256.054 423.015 255.558C422.426 255.061 421.945 254.441 421.573 253.697C421.2 252.921 421.014 252.006 421.014 250.951V238.389L420.549 237.924H417.292L416.827 237.458V234.201L417.292 233.736H420.549L421.014 233.271V229.083L421.48 228.618H425.202L425.667 229.083V233.271L426.132 233.736H431.251L431.716 234.201V237.458L431.251 237.924H426.132L425.667 238.389V250.951C425.667 251.665 425.853 252.161 426.226 252.44C426.629 252.688 427.063 252.812 427.528 252.812H431.251L431.716 253.278V256.535L431.251 257ZM448.947 243.042C448.947 242.7 448.885 242.22 448.761 241.599C448.668 240.948 448.436 240.328 448.063 239.738C447.691 239.118 447.133 238.59 446.388 238.156C445.644 237.691 444.636 237.458 443.364 237.458C442.092 237.458 441.084 237.691 440.34 238.156C439.595 238.59 439.037 239.118 438.665 239.738C438.293 240.328 438.044 240.948 437.92 241.599C437.827 242.22 437.781 242.7 437.781 243.042L438.246 243.507H448.482L448.947 243.042ZM443.829 257.465C441.968 257.465 440.34 257.171 438.944 256.581C437.548 255.961 436.385 255.123 435.454 254.069C434.524 252.983 433.826 251.696 433.361 250.207C432.895 248.718 432.663 247.105 432.663 245.368C432.663 243.755 432.864 242.22 433.268 240.762C433.702 239.273 434.353 237.986 435.222 236.9C436.09 235.783 437.191 234.899 438.525 234.248C439.89 233.596 441.503 233.271 443.364 233.271C445.225 233.271 446.823 233.596 448.156 234.248C449.521 234.899 450.638 235.783 451.507 236.9C452.375 237.986 453.011 239.273 453.414 240.762C453.848 242.22 454.066 243.755 454.066 245.368V246.764L453.6 247.229H438.246L437.781 247.694C437.781 247.943 437.827 248.377 437.92 248.997C438.044 249.587 438.308 250.207 438.711 250.858C439.115 251.479 439.719 252.037 440.526 252.533C441.332 253.03 442.434 253.278 443.829 253.278C444.295 253.278 444.744 253.247 445.179 253.185C445.644 253.092 446.078 252.952 446.481 252.766C446.916 252.549 447.288 252.27 447.598 251.928C447.939 251.556 448.234 251.075 448.482 250.486L448.947 250.021H452.67L453.135 250.486C453.011 251.417 452.716 252.301 452.251 253.138C451.817 253.976 451.196 254.72 450.39 255.372C449.614 256.023 448.668 256.535 447.552 256.907C446.466 257.279 445.225 257.465 443.829 257.465ZM469.863 237.924H467.537C466.606 237.924 465.769 238.032 465.024 238.249C464.28 238.435 463.644 238.792 463.117 239.319C462.589 239.847 462.186 240.56 461.907 241.46C461.628 242.359 461.488 243.507 461.488 244.903V256.535L461.023 257H457.301L456.835 256.535V234.201L457.301 233.736H460.558L461.023 234.201L461.488 236.062H461.953C462.295 235.721 462.651 235.411 463.024 235.132C463.396 234.822 463.815 234.574 464.28 234.387C464.745 234.17 465.272 234.015 465.862 233.922C466.482 233.798 467.196 233.736 468.002 233.736H469.863L470.328 234.201V237.458L469.863 237.924ZM485.688 237.924H483.362C482.431 237.924 481.594 238.032 480.849 238.249C480.105 238.435 479.469 238.792 478.942 239.319C478.414 239.847 478.011 240.56 477.732 241.46C477.453 242.359 477.313 243.507 477.313 244.903V256.535L476.848 257H473.126L472.66 256.535V234.201L473.126 233.736H476.383L476.848 234.201L477.313 236.062H477.778C478.12 235.721 478.476 235.411 478.849 235.132C479.221 234.822 479.64 234.574 480.105 234.387C480.57 234.17 481.097 234.015 481.687 233.922C482.307 233.798 483.021 233.736 483.827 233.736H485.688L486.153 234.201V237.458L485.688 237.924ZM507.096 257H503.839L503.374 256.535L502.909 254.674H502.444C501.823 255.511 501.017 256.194 500.024 256.721C499.032 257.217 497.977 257.465 496.86 257.465C495.216 257.465 493.836 257.202 492.719 256.674C491.603 256.116 490.688 255.387 489.974 254.487C489.292 253.588 488.795 252.549 488.485 251.37C488.175 250.191 488.02 248.966 488.02 247.694V234.201L488.485 233.736H492.207L492.673 234.201V247.694C492.673 248.408 492.735 249.106 492.859 249.788C493.014 250.44 493.262 251.029 493.603 251.556C493.945 252.053 494.41 252.471 494.999 252.812C495.62 253.123 496.395 253.278 497.326 253.278C498.939 253.278 500.272 252.657 501.327 251.417C502.382 250.176 502.909 248.16 502.909 245.368V234.201L503.374 233.736H507.096L507.562 234.201V256.535L507.096 257ZM533.165 245.368C533.165 247.105 532.932 248.718 532.467 250.207C532.033 251.696 531.366 252.983 530.466 254.069C529.598 255.123 528.527 255.961 527.256 256.581C525.984 257.171 524.542 257.465 522.929 257.465C521.874 257.465 520.959 257.31 520.183 257C519.439 256.721 518.819 256.411 518.322 256.069C517.795 255.666 517.314 255.201 516.88 254.674H516.415V265.84L515.949 266.306H512.227L511.762 265.84V234.201L512.227 233.736H515.484L515.949 234.201L516.415 236.062H516.88C517.562 235.163 518.431 234.481 519.486 234.015C520.54 233.519 521.688 233.271 522.929 233.271C524.542 233.271 525.984 233.581 527.256 234.201C528.527 234.791 529.598 235.628 530.466 236.714C531.366 237.768 532.033 239.04 532.467 240.529C532.932 242.018 533.165 243.631 533.165 245.368ZM528.512 245.368C528.512 242.762 527.969 240.793 526.883 239.459C525.798 238.125 524.324 237.458 522.463 237.458C520.602 237.458 519.129 238.079 518.043 239.319C516.958 240.56 516.415 242.576 516.415 245.368C516.415 248.16 516.958 250.176 518.043 251.417C519.129 252.657 520.602 253.278 522.463 253.278C524.324 253.278 525.798 252.611 526.883 251.277C527.969 249.943 528.512 247.974 528.512 245.368ZM548.055 257H544.333C543.527 257 542.72 256.891 541.914 256.674C541.138 256.426 540.44 256.054 539.82 255.558C539.231 255.061 538.75 254.441 538.378 253.697C538.005 252.921 537.819 252.006 537.819 250.951V238.389L537.354 237.924H534.097L533.632 237.458V234.201L534.097 233.736H537.354L537.819 233.271V229.083L538.285 228.618H542.007L542.472 229.083V233.271L542.937 233.736H548.055L548.521 234.201V237.458L548.055 237.924H542.937L542.472 238.389V250.951C542.472 251.665 542.658 252.161 543.03 252.44C543.434 252.688 543.868 252.812 544.333 252.812H548.055L548.521 253.278V256.535L548.055 257ZM555.96 230.014H552.238L551.772 229.549V225.826L552.238 225.361H555.96L556.425 225.826V229.549L555.96 230.014ZM555.96 257H552.238L551.772 256.535V234.201L552.238 233.736H555.96L556.425 234.201V256.535L555.96 257ZM559.204 245.368C559.204 243.507 559.452 241.832 559.948 240.343C560.476 238.854 561.22 237.582 562.182 236.528C563.143 235.473 564.307 234.667 565.671 234.108C567.067 233.55 568.634 233.271 570.371 233.271C572.108 233.271 573.659 233.55 575.023 234.108C576.419 234.667 577.598 235.473 578.56 236.528C579.521 237.582 580.25 238.854 580.746 240.343C581.274 241.832 581.537 243.507 581.537 245.368C581.537 247.229 581.274 248.904 580.746 250.393C580.25 251.882 579.521 253.154 578.56 254.208C577.598 255.263 576.419 256.069 575.023 256.628C573.659 257.186 572.108 257.465 570.371 257.465C568.634 257.465 567.067 257.186 565.671 256.628C564.307 256.069 563.143 255.263 562.182 254.208C561.22 253.154 560.476 251.882 559.948 250.393C559.452 248.904 559.204 247.229 559.204 245.368ZM563.857 245.368C563.857 247.943 564.415 249.912 565.532 251.277C566.648 252.611 568.261 253.278 570.371 253.278C572.48 253.278 574.093 252.611 575.21 251.277C576.326 249.912 576.885 247.943 576.885 245.368C576.885 242.793 576.326 240.839 575.21 239.506C574.093 238.141 572.48 237.458 570.371 237.458C568.261 237.458 566.648 238.141 565.532 239.506C564.415 240.839 563.857 242.793 563.857 245.368ZM603.873 257H600.15L599.685 256.535V243.042C599.685 242.452 599.639 241.832 599.545 241.181C599.452 240.529 599.235 239.924 598.894 239.366C598.584 238.808 598.119 238.358 597.498 238.017C596.909 237.644 596.087 237.458 595.032 237.458C592.892 237.458 591.341 238.079 590.379 239.319C589.449 240.529 588.984 242.545 588.984 245.368V256.535L588.518 257H584.796L584.331 256.535V234.201L584.796 233.736H588.053L588.518 234.201L588.984 236.062H589.449C590.131 235.163 591 234.481 592.054 234.015C593.109 233.519 594.257 233.271 595.498 233.271C597.11 233.271 598.475 233.519 599.592 234.015C600.74 234.512 601.655 235.194 602.337 236.062C603.051 236.931 603.562 237.97 603.873 239.18C604.183 240.359 604.338 241.646 604.338 243.042V256.535L603.873 257ZM625.277 250.486C625.277 251.417 625.091 252.301 624.719 253.138C624.378 253.976 623.819 254.72 623.044 255.372C622.299 256.023 621.338 256.535 620.159 256.907C618.98 257.279 617.585 257.465 615.972 257.465C612.932 257.465 610.621 256.798 609.039 255.465C607.457 254.1 606.666 252.13 606.666 249.556L607.131 249.09H610.854L611.319 249.556C611.319 250.734 611.676 251.649 612.389 252.301C613.133 252.952 614.328 253.278 615.972 253.278C617.616 253.278 618.794 253.045 619.508 252.58C620.252 252.115 620.624 251.417 620.624 250.486C620.624 249.897 620.516 249.416 620.299 249.044C620.113 248.672 619.787 248.361 619.322 248.113C618.856 247.834 618.236 247.601 617.461 247.415C616.685 247.229 615.723 247.012 614.576 246.764C613.397 246.547 612.342 246.252 611.412 245.88C610.512 245.508 609.737 245.042 609.085 244.484C608.465 243.926 607.984 243.274 607.643 242.53C607.302 241.754 607.131 240.839 607.131 239.785C607.131 238.978 607.286 238.187 607.597 237.412C607.907 236.605 608.403 235.907 609.085 235.318C609.799 234.698 610.714 234.201 611.831 233.829C612.947 233.457 614.328 233.271 615.972 233.271C617.243 233.271 618.422 233.426 619.508 233.736C620.593 234.015 621.524 234.449 622.299 235.039C623.106 235.597 623.726 236.326 624.161 237.226C624.595 238.094 624.812 239.102 624.812 240.25L624.347 240.715H620.624L620.159 240.25C620.159 239.909 620.097 239.568 619.973 239.226C619.849 238.885 619.616 238.59 619.275 238.342C618.965 238.063 618.531 237.846 617.972 237.691C617.445 237.536 616.778 237.458 615.972 237.458C614.793 237.458 613.8 237.613 612.994 237.924C612.187 238.234 611.784 238.854 611.784 239.785C611.784 240.374 611.908 240.855 612.156 241.227C612.404 241.599 612.777 241.925 613.273 242.204C613.8 242.452 614.467 242.685 615.274 242.902C616.111 243.088 617.119 243.29 618.298 243.507C620.624 243.972 622.361 244.732 623.509 245.787C624.688 246.81 625.277 248.377 625.277 250.486ZM657.369 257H654.112L653.646 256.535L653.181 254.674H652.716C652.096 255.511 651.289 256.194 650.296 256.721C649.304 257.217 648.249 257.465 647.133 257.465C645.489 257.465 644.108 257.202 642.992 256.674C641.875 256.116 640.96 255.387 640.246 254.487C639.564 253.588 639.068 252.549 638.758 251.37C638.447 250.191 638.292 248.966 638.292 247.694V234.201L638.758 233.736H642.48L642.945 234.201V247.694C642.945 248.408 643.007 249.106 643.131 249.788C643.286 250.44 643.534 251.029 643.876 251.556C644.217 252.053 644.682 252.471 645.271 252.812C645.892 253.123 646.667 253.278 647.598 253.278C649.211 253.278 650.545 252.657 651.599 251.417C652.654 250.176 653.181 248.16 653.181 245.368V234.201L653.646 233.736H657.369L657.834 234.201V256.535L657.369 257ZM683.437 245.368C683.437 247.105 683.204 248.718 682.739 250.207C682.305 251.696 681.638 252.983 680.738 254.069C679.87 255.123 678.8 255.961 677.528 256.581C676.256 257.171 674.814 257.465 673.201 257.465C672.146 257.465 671.231 257.31 670.456 257C669.711 256.721 669.091 256.411 668.595 256.069C668.067 255.666 667.587 255.201 667.152 254.674H666.687V265.84L666.222 266.306H662.499L662.034 265.84V234.201L662.499 233.736H665.756L666.222 234.201L666.687 236.062H667.152C667.835 235.163 668.703 234.481 669.758 234.015C670.812 233.519 671.96 233.271 673.201 233.271C674.814 233.271 676.256 233.581 677.528 234.201C678.8 234.791 679.87 235.628 680.738 236.714C681.638 237.768 682.305 239.04 682.739 240.529C683.204 242.018 683.437 243.631 683.437 245.368ZM678.784 245.368C678.784 242.762 678.241 240.793 677.156 239.459C676.07 238.125 674.597 237.458 672.736 237.458C670.874 237.458 669.401 238.079 668.315 239.319C667.23 240.56 666.687 242.576 666.687 245.368C666.687 248.16 667.23 250.176 668.315 251.417C669.401 252.657 670.874 253.278 672.736 253.278C674.597 253.278 676.07 252.611 677.156 251.277C678.241 249.943 678.784 247.974 678.784 245.368ZM684.824 245.368C684.824 243.507 685.072 241.832 685.568 240.343C686.096 238.854 686.84 237.582 687.802 236.528C688.763 235.473 689.926 234.667 691.291 234.108C692.687 233.55 694.253 233.271 695.99 233.271C697.728 233.271 699.278 233.55 700.643 234.108C702.039 234.667 703.218 235.473 704.179 236.528C705.141 237.582 705.87 238.854 706.366 240.343C706.894 241.832 707.157 243.507 707.157 245.368C707.157 247.229 706.894 248.904 706.366 250.393C705.87 251.882 705.141 253.154 704.179 254.208C703.218 255.263 702.039 256.069 700.643 256.628C699.278 257.186 697.728 257.465 695.99 257.465C694.253 257.465 692.687 257.186 691.291 256.628C689.926 256.069 688.763 255.263 687.802 254.208C686.84 253.154 686.096 251.882 685.568 250.393C685.072 248.904 684.824 247.229 684.824 245.368ZM689.477 245.368C689.477 247.943 690.035 249.912 691.152 251.277C692.268 252.611 693.881 253.278 695.99 253.278C698.1 253.278 699.713 252.611 700.829 251.277C701.946 249.912 702.504 247.943 702.504 245.368C702.504 242.793 701.946 240.839 700.829 239.506C699.713 238.141 698.1 237.458 695.99 237.458C693.881 237.458 692.268 238.141 691.152 239.506C690.035 240.839 689.477 242.793 689.477 245.368ZM729.492 257H725.77L725.305 256.535V243.042C725.305 242.452 725.258 241.832 725.165 241.181C725.072 240.529 724.855 239.924 724.514 239.366C724.204 238.808 723.738 238.358 723.118 238.017C722.529 237.644 721.707 237.458 720.652 237.458C718.512 237.458 716.961 238.079 715.999 239.319C715.069 240.529 714.603 242.545 714.603 245.368V256.535L714.138 257H710.416L709.951 256.535V234.201L710.416 233.736H713.673L714.138 234.201L714.603 236.062H715.069C715.751 235.163 716.62 234.481 717.674 234.015C718.729 233.519 719.877 233.271 721.117 233.271C722.73 233.271 724.095 233.519 725.212 234.015C726.359 234.512 727.275 235.194 727.957 236.062C728.67 236.931 729.182 237.97 729.492 239.18C729.803 240.359 729.958 241.646 729.958 243.042V256.535L729.492 257ZM759.261 243.042C759.261 242.7 759.199 242.22 759.075 241.599C758.982 240.948 758.749 240.328 758.377 239.738C758.005 239.118 757.447 238.59 756.702 238.156C755.958 237.691 754.95 237.458 753.678 237.458C752.406 237.458 751.398 237.691 750.653 238.156C749.909 238.59 749.351 239.118 748.978 239.738C748.606 240.328 748.358 240.948 748.234 241.599C748.141 242.22 748.094 242.7 748.094 243.042L748.56 243.507H758.796L759.261 243.042ZM754.143 257.465C752.282 257.465 750.653 257.171 749.258 256.581C747.862 255.961 746.699 255.123 745.768 254.069C744.837 252.983 744.14 251.696 743.674 250.207C743.209 248.718 742.976 247.105 742.976 245.368C742.976 243.755 743.178 242.22 743.581 240.762C744.015 239.273 744.667 237.986 745.535 236.9C746.404 235.783 747.505 234.899 748.839 234.248C750.204 233.596 751.817 233.271 753.678 233.271C755.539 233.271 757.136 233.596 758.47 234.248C759.835 234.899 760.952 235.783 761.82 236.9C762.689 237.986 763.325 239.273 763.728 240.762C764.162 242.22 764.379 243.755 764.379 245.368V246.764L763.914 247.229H748.56L748.094 247.694C748.094 247.943 748.141 248.377 748.234 248.997C748.358 249.587 748.622 250.207 749.025 250.858C749.428 251.479 750.033 252.037 750.84 252.533C751.646 253.03 752.747 253.278 754.143 253.278C754.608 253.278 755.058 253.247 755.492 253.185C755.958 253.092 756.392 252.952 756.795 252.766C757.229 252.549 757.602 252.27 757.912 251.928C758.253 251.556 758.548 251.075 758.796 250.486L759.261 250.021H762.983L763.449 250.486C763.325 251.417 763.03 252.301 762.565 253.138C762.13 253.976 761.51 254.72 760.703 255.372C759.928 256.023 758.982 256.535 757.865 256.907C756.78 257.279 755.539 257.465 754.143 257.465ZM786.691 257H782.969L782.503 256.535V243.042C782.503 242.452 782.457 241.832 782.364 241.181C782.271 240.529 782.053 239.924 781.712 239.366C781.402 238.808 780.937 238.358 780.316 238.017C779.727 237.644 778.905 237.458 777.85 237.458C775.71 237.458 774.159 238.079 773.198 239.319C772.267 240.529 771.802 242.545 771.802 245.368V256.535L771.337 257H767.614L767.149 256.535V234.201L767.614 233.736H770.871L771.337 234.201L771.802 236.062H772.267C772.95 235.163 773.818 234.481 774.873 234.015C775.927 233.519 777.075 233.271 778.316 233.271C779.929 233.271 781.294 233.519 782.41 234.015C783.558 234.512 784.473 235.194 785.155 236.062C785.869 236.931 786.381 237.97 786.691 239.18C787.001 240.359 787.156 241.646 787.156 243.042V256.535L786.691 257ZM802.988 257H799.266C798.459 257 797.653 256.891 796.847 256.674C796.071 256.426 795.373 256.054 794.753 255.558C794.163 255.061 793.683 254.441 793.31 253.697C792.938 252.921 792.752 252.006 792.752 250.951V238.389L792.287 237.924H789.03L788.565 237.458V234.201L789.03 233.736H792.287L792.752 233.271V229.083L793.217 228.618H796.94L797.405 229.083V233.271L797.87 233.736H802.988L803.453 234.201V237.458L802.988 237.924H797.87L797.405 238.389V250.951C797.405 251.665 797.591 252.161 797.963 252.44C798.366 252.688 798.801 252.812 799.266 252.812H802.988L803.453 253.278V256.535L802.988 257ZM820.685 243.042C820.685 242.7 820.623 242.22 820.499 241.599C820.406 240.948 820.173 240.328 819.801 239.738C819.429 239.118 818.871 238.59 818.126 238.156C817.382 237.691 816.374 237.458 815.102 237.458C813.83 237.458 812.822 237.691 812.077 238.156C811.333 238.59 810.775 239.118 810.402 239.738C810.03 240.328 809.782 240.948 809.658 241.599C809.565 242.22 809.518 242.7 809.518 243.042L809.984 243.507H820.22L820.685 243.042ZM815.567 257.465C813.706 257.465 812.077 257.171 810.682 256.581C809.286 255.961 808.123 255.123 807.192 254.069C806.261 252.983 805.564 251.696 805.098 250.207C804.633 248.718 804.4 247.105 804.4 245.368C804.4 243.755 804.602 242.22 805.005 240.762C805.44 239.273 806.091 237.986 806.959 236.9C807.828 235.783 808.929 234.899 810.263 234.248C811.628 233.596 813.241 233.271 815.102 233.271C816.963 233.271 818.56 233.596 819.894 234.248C821.259 234.899 822.376 235.783 823.244 236.9C824.113 237.986 824.749 239.273 825.152 240.762C825.586 242.22 825.803 243.755 825.803 245.368V246.764L825.338 247.229H809.984L809.518 247.694C809.518 247.943 809.565 248.377 809.658 248.997C809.782 249.587 810.046 250.207 810.449 250.858C810.852 251.479 811.457 252.037 812.264 252.533C813.07 253.03 814.171 253.278 815.567 253.278C816.032 253.278 816.482 253.247 816.916 253.185C817.382 253.092 817.816 252.952 818.219 252.766C818.653 252.549 819.026 252.27 819.336 251.928C819.677 251.556 819.972 251.075 820.22 250.486L820.685 250.021H824.407L824.873 250.486C824.749 251.417 824.454 252.301 823.989 253.138C823.554 253.976 822.934 254.72 822.128 255.372C821.352 256.023 820.406 256.535 819.289 256.907C818.204 257.279 816.963 257.465 815.567 257.465ZM841.601 237.924H839.274C838.344 237.924 837.506 238.032 836.762 238.249C836.018 238.435 835.382 238.792 834.854 239.319C834.327 239.847 833.924 240.56 833.645 241.46C833.365 242.359 833.226 243.507 833.226 244.903V256.535L832.761 257H829.038L828.573 256.535V234.201L829.038 233.736H832.295L832.761 234.201L833.226 236.062H833.691C834.032 235.721 834.389 235.411 834.761 235.132C835.134 234.822 835.552 234.574 836.018 234.387C836.483 234.17 837.01 234.015 837.599 233.922C838.22 233.798 838.933 233.736 839.74 233.736H841.601L842.066 234.201V237.458L841.601 237.924ZM848.586 230.014H844.863L844.398 229.549V225.826L844.863 225.361H848.586L849.051 225.826V229.549L848.586 230.014ZM848.586 257H844.863L844.398 256.535V234.201L844.863 233.736H848.586L849.051 234.201V256.535L848.586 257ZM872.767 257H869.045L868.58 256.535V243.042C868.58 242.452 868.533 241.832 868.44 241.181C868.347 240.529 868.13 239.924 867.789 239.366C867.479 238.808 867.013 238.358 866.393 238.017C865.804 237.644 864.982 237.458 863.927 237.458C861.787 237.458 860.236 238.079 859.274 239.319C858.344 240.529 857.878 242.545 857.878 245.368V256.535L857.413 257H853.691L853.226 256.535V234.201L853.691 233.736H856.948L857.413 234.201L857.878 236.062H858.344C859.026 235.163 859.895 234.481 860.949 234.015C862.004 233.519 863.152 233.271 864.392 233.271C866.005 233.271 867.37 233.519 868.487 234.015C869.634 234.512 870.549 235.194 871.232 236.062C871.945 236.931 872.457 237.97 872.767 239.18C873.077 240.359 873.233 241.646 873.233 243.042V256.535L872.767 257ZM886.262 262.583C888.402 262.583 889.938 261.916 890.868 260.583C891.83 259.249 892.311 257.279 892.311 254.674H891.846C891.132 255.573 890.248 256.271 889.193 256.767C888.17 257.233 887.038 257.465 885.797 257.465C884.153 257.465 882.695 257.171 881.423 256.581C880.183 255.961 879.112 255.123 878.213 254.069C877.344 252.983 876.677 251.696 876.212 250.207C875.778 248.718 875.561 247.105 875.561 245.368C875.561 243.631 875.778 242.018 876.212 240.529C876.677 239.04 877.344 237.768 878.213 236.714C879.112 235.628 880.183 234.791 881.423 234.201C882.695 233.581 884.153 233.271 885.797 233.271C886.976 233.271 888.092 233.503 889.147 233.969C890.233 234.434 891.132 235.132 891.846 236.062H892.311L892.776 234.201L893.241 233.736H896.498L896.964 234.201V254.208C896.964 256.535 896.669 258.489 896.08 260.071C895.49 261.684 894.699 262.987 893.707 263.979C892.714 264.972 891.566 265.685 890.264 266.119C888.992 266.554 887.658 266.771 886.262 266.771C883.439 266.771 881.237 266.15 879.655 264.91C878.104 263.669 877.205 262.118 876.957 260.257L877.422 259.792H881.144L881.609 260.257C882.075 261.188 882.664 261.808 883.377 262.118C884.122 262.428 885.083 262.583 886.262 262.583ZM892.311 245.368C892.311 242.576 891.768 240.56 890.682 239.319C889.597 238.079 888.123 237.458 886.262 237.458C884.401 237.458 882.928 238.125 881.842 239.459C880.756 240.793 880.214 242.762 880.214 245.368C880.214 247.974 880.756 249.943 881.842 251.277C882.928 252.611 884.401 253.278 886.262 253.278C888.123 253.278 889.597 252.657 890.682 251.417C891.768 250.176 892.311 248.16 892.311 245.368ZM924.395 257H920.673C919.866 257 919.06 256.891 918.253 256.674C917.478 256.426 916.78 256.054 916.16 255.558C915.57 255.061 915.089 254.441 914.717 253.697C914.345 252.921 914.159 252.006 914.159 250.951V238.389L913.694 237.924H910.437L909.971 237.458V234.201L910.437 233.736H913.694L914.159 233.271V229.083L914.624 228.618H918.346L918.812 229.083V233.271L919.277 233.736H924.395L924.86 234.201V237.458L924.395 237.924H919.277L918.812 238.389V250.951C918.812 251.665 918.998 252.161 919.37 252.44C919.773 252.688 920.208 252.812 920.673 252.812H924.395L924.86 253.278V256.535L924.395 257ZM947.654 257H943.931L943.466 256.535V243.042C943.466 242.359 943.388 241.677 943.233 240.994C943.109 240.312 942.877 239.723 942.535 239.226C942.194 238.699 941.713 238.28 941.093 237.97C940.504 237.629 939.744 237.458 938.813 237.458C936.952 237.458 935.479 238.001 934.393 239.087C933.307 240.172 932.765 242.111 932.765 244.903V256.535L932.299 257H928.577L928.112 256.535V224.896L928.577 224.43H932.299L932.765 224.896V236.062H933.23C933.912 235.163 934.781 234.481 935.835 234.015C936.89 233.519 938.038 233.271 939.278 233.271C941.016 233.271 942.458 233.55 943.606 234.108C944.753 234.636 945.653 235.349 946.304 236.249C946.987 237.148 947.452 238.187 947.7 239.366C947.979 240.545 948.119 241.77 948.119 243.042V256.535L947.654 257ZM967.186 243.042C967.186 242.7 967.124 242.22 967 241.599C966.907 240.948 966.674 240.328 966.302 239.738C965.93 239.118 965.372 238.59 964.627 238.156C963.883 237.691 962.875 237.458 961.603 237.458C960.331 237.458 959.323 237.691 958.578 238.156C957.834 238.59 957.276 239.118 956.903 239.738C956.531 240.328 956.283 240.948 956.159 241.599C956.066 242.22 956.019 242.7 956.019 243.042L956.485 243.507H966.721L967.186 243.042ZM962.068 257.465C960.207 257.465 958.578 257.171 957.183 256.581C955.787 255.961 954.624 255.123 953.693 254.069C952.763 252.983 952.065 251.696 951.599 250.207C951.134 248.718 950.901 247.105 950.901 245.368C950.901 243.755 951.103 242.22 951.506 240.762C951.941 239.273 952.592 237.986 953.46 236.9C954.329 235.783 955.43 234.899 956.764 234.248C958.129 233.596 959.742 233.271 961.603 233.271C963.464 233.271 965.061 233.596 966.395 234.248C967.76 234.899 968.877 235.783 969.745 236.9C970.614 237.986 971.25 239.273 971.653 240.762C972.087 242.22 972.304 243.755 972.304 245.368V246.764L971.839 247.229H956.485L956.019 247.694C956.019 247.943 956.066 248.377 956.159 248.997C956.283 249.587 956.547 250.207 956.95 250.858C957.353 251.479 957.958 252.037 958.765 252.533C959.571 253.03 960.672 253.278 962.068 253.278C962.533 253.278 962.983 253.247 963.417 253.185C963.883 253.092 964.317 252.952 964.72 252.766C965.154 252.549 965.527 252.27 965.837 251.928C966.178 251.556 966.473 251.075 966.721 250.486L967.186 250.021H970.908L971.374 250.486C971.25 251.417 970.955 252.301 970.49 253.138C970.055 253.976 969.435 254.72 968.629 255.372C967.853 256.023 966.907 256.535 965.79 256.907C964.705 257.279 963.464 257.465 962.068 257.465ZM995.07 262.583C997.21 262.583 998.746 261.916 999.676 260.583C1000.64 259.249 1001.12 257.279 1001.12 254.674H1000.65C999.94 255.573 999.056 256.271 998.001 256.767C996.978 257.233 995.846 257.465 994.605 257.465C992.961 257.465 991.503 257.171 990.231 256.581C988.991 255.961 987.92 255.123 987.021 254.069C986.152 252.983 985.485 251.696 985.02 250.207C984.586 248.718 984.369 247.105 984.369 245.368C984.369 243.631 984.586 242.018 985.02 240.529C985.485 239.04 986.152 237.768 987.021 236.714C987.92 235.628 988.991 234.791 990.231 234.201C991.503 233.581 992.961 233.271 994.605 233.271C995.784 233.271 996.9 233.503 997.955 233.969C999.041 234.434 999.94 235.132 1000.65 236.062H1001.12L1001.58 234.201L1002.05 233.736H1005.31L1005.77 234.201V254.208C1005.77 256.535 1005.48 258.489 1004.89 260.071C1004.3 261.684 1003.51 262.987 1002.51 263.979C1001.52 264.972 1000.37 265.685 999.072 266.119C997.8 266.554 996.466 266.771 995.07 266.771C992.247 266.771 990.045 266.15 988.463 264.91C986.912 263.669 986.013 262.118 985.765 260.257L986.23 259.792H989.952L990.417 260.257C990.883 261.188 991.472 261.808 992.185 262.118C992.93 262.428 993.891 262.583 995.07 262.583ZM1001.12 245.368C1001.12 242.576 1000.58 240.56 999.49 239.319C998.405 238.079 996.931 237.458 995.07 237.458C993.209 237.458 991.736 238.125 990.65 239.459C989.564 240.793 989.022 242.762 989.022 245.368C989.022 247.974 989.564 249.943 990.65 251.277C991.736 252.611 993.209 253.278 995.07 253.278C996.931 253.278 998.405 252.657 999.49 251.417C1000.58 250.176 1001.12 248.16 1001.12 245.368ZM1027.63 257H1024.37L1023.91 256.535L1023.44 254.674H1022.98C1022.2 255.604 1021.24 256.302 1020.09 256.767C1018.98 257.233 1017.77 257.465 1016.46 257.465C1013.86 257.465 1011.89 256.814 1010.55 255.511C1009.22 254.177 1008.55 252.347 1008.55 250.021C1008.55 248.749 1008.8 247.648 1009.3 246.717C1009.79 245.756 1010.49 244.98 1011.39 244.391C1012.29 243.771 1013.36 243.321 1014.6 243.042C1015.87 242.731 1017.27 242.576 1018.79 242.576C1019.5 242.576 1020.23 242.623 1020.98 242.716C1021.72 242.809 1022.39 242.918 1022.98 243.042L1023.44 242.576V241.646C1023.44 240.002 1023.07 238.901 1022.33 238.342C1021.61 237.753 1020.43 237.458 1018.79 237.458C1017.12 237.458 1015.92 237.691 1015.21 238.156C1014.49 238.621 1014.14 239.319 1014.14 240.25L1013.67 240.715H1009.95L1009.48 240.25C1009.48 239.443 1009.64 238.621 1009.95 237.784C1010.26 236.946 1010.77 236.202 1011.49 235.551C1012.23 234.868 1013.19 234.325 1014.37 233.922C1015.58 233.488 1017.05 233.271 1018.79 233.271C1020.53 233.271 1021.99 233.488 1023.16 233.922C1024.37 234.325 1025.34 234.946 1026.05 235.783C1026.79 236.621 1027.32 237.691 1027.63 238.994C1027.94 240.265 1028.1 241.77 1028.1 243.507V256.535L1027.63 257ZM1023.44 247.229L1022.98 246.764C1022.26 246.578 1021.61 246.454 1021.02 246.392C1020.43 246.33 1019.84 246.299 1019.26 246.299C1017.12 246.299 1015.56 246.624 1014.6 247.276C1013.67 247.927 1013.21 248.842 1013.21 250.021C1013.21 251.2 1013.55 252.037 1014.23 252.533C1014.94 253.03 1016 253.278 1017.39 253.278C1019.26 253.278 1020.73 252.859 1021.81 252.022C1022.9 251.153 1023.44 250.021 1023.44 248.625V247.229ZM1036.01 257H1032.28L1031.82 256.535V224.896L1032.28 224.43H1036.01L1036.47 224.896V256.535L1036.01 257ZM1044.83 257H1041.11L1040.65 256.535V224.896L1041.11 224.43H1044.83L1045.3 224.896V256.535L1044.83 257ZM1064.36 243.042C1064.36 242.7 1064.3 242.22 1064.18 241.599C1064.08 240.948 1063.85 240.328 1063.48 239.738C1063.11 239.118 1062.55 238.59 1061.8 238.156C1061.06 237.691 1060.05 237.458 1058.78 237.458C1057.51 237.458 1056.5 237.691 1055.75 238.156C1055.01 238.59 1054.45 239.118 1054.08 239.738C1053.71 240.328 1053.46 240.948 1053.34 241.599C1053.24 242.22 1053.2 242.7 1053.2 243.042L1053.66 243.507H1063.9L1064.36 243.042ZM1059.24 257.465C1057.38 257.465 1055.75 257.171 1054.36 256.581C1052.96 255.961 1051.8 255.123 1050.87 254.069C1049.94 252.983 1049.24 251.696 1048.78 250.207C1048.31 248.718 1048.08 247.105 1048.08 245.368C1048.08 243.755 1048.28 242.22 1048.68 240.762C1049.12 239.273 1049.77 237.986 1050.64 236.9C1051.5 235.783 1052.61 234.899 1053.94 234.248C1055.3 233.596 1056.92 233.271 1058.78 233.271C1060.64 233.271 1062.24 233.596 1063.57 234.248C1064.94 234.899 1066.05 235.783 1066.92 236.9C1067.79 237.986 1068.43 239.273 1068.83 240.762C1069.26 242.22 1069.48 243.755 1069.48 245.368V246.764L1069.01 247.229H1053.66L1053.2 247.694C1053.2 247.943 1053.24 248.377 1053.34 248.997C1053.46 249.587 1053.72 250.207 1054.13 250.858C1054.53 251.479 1055.13 252.037 1055.94 252.533C1056.75 253.03 1057.85 253.278 1059.24 253.278C1059.71 253.278 1060.16 253.247 1060.59 253.185C1061.06 253.092 1061.49 252.952 1061.9 252.766C1062.33 252.549 1062.7 252.27 1063.01 251.928C1063.35 251.556 1063.65 251.075 1063.9 250.486L1064.36 250.021H1068.08L1068.55 250.486C1068.43 251.417 1068.13 252.301 1067.67 253.138C1067.23 253.976 1066.61 254.72 1065.8 255.372C1065.03 256.023 1064.08 256.535 1062.97 256.907C1061.88 257.279 1060.64 257.465 1059.24 257.465ZM1085.28 237.924H1082.95C1082.02 237.924 1081.18 238.032 1080.44 238.249C1079.69 238.435 1079.06 238.792 1078.53 239.319C1078 239.847 1077.6 240.56 1077.32 241.46C1077.04 242.359 1076.9 243.507 1076.9 244.903V256.535L1076.44 257H1072.72L1072.25 256.535V234.201L1072.72 233.736H1075.97L1076.44 234.201L1076.9 236.062H1077.37C1077.71 235.721 1078.07 235.411 1078.44 235.132C1078.81 234.822 1079.23 234.574 1079.69 234.387C1080.16 234.17 1080.69 234.015 1081.28 233.922C1081.9 233.798 1082.61 233.736 1083.42 233.736H1085.28L1085.74 234.201V237.458L1085.28 237.924ZM1100.17 256.069C1099.46 257.806 1098.79 259.218 1098.17 260.303C1097.55 261.42 1096.85 262.273 1096.08 262.863C1095.33 263.483 1094.46 263.902 1093.47 264.119C1092.51 264.336 1091.33 264.444 1089.94 264.444H1089.01L1088.54 263.979V260.722L1089.01 260.257H1089.94C1091.11 260.257 1092.06 260.086 1092.77 259.745C1093.52 259.404 1094.12 258.644 1094.59 257.465V257L1086.68 237.458V234.201L1087.14 233.736H1089.94L1090.4 234.201L1096.92 251.417H1097.38L1103.89 234.201L1104.36 233.736H1107.15L1107.62 234.201V237.458L1100.17 256.069ZM1113.17 257H1108.52L1108.06 256.535V251.882L1108.52 251.417H1113.17L1113.64 251.882V256.535L1113.17 257Z" fill="black"/>
</svg>
