<svg width="2244" height="430" viewBox="0 0 2244 430" fill="none" xmlns="http://www.w3.org/2000/svg">
<rect x="-3" width="2247" height="430" fill="#F3F3F3"/>
<path d="M362.998 204H359.256L358.789 203.532V189.969L358.321 189.501H342.886L342.419 189.969V203.532L341.951 204H338.209L337.742 203.532V171.728L338.209 171.26H341.951L342.419 171.728V184.824L342.886 185.292H358.321L358.789 184.824V171.728L359.256 171.26H362.998L363.466 171.728V203.532L362.998 204ZM367.205 192.307C367.205 190.436 367.455 188.753 367.954 187.256C368.484 185.759 369.232 184.481 370.199 183.421C371.165 182.361 372.335 181.55 373.707 180.989C375.11 180.427 376.684 180.147 378.43 180.147C380.177 180.147 381.736 180.427 383.108 180.989C384.511 181.55 385.696 182.361 386.662 183.421C387.629 184.481 388.361 185.759 388.86 187.256C389.39 188.753 389.655 190.436 389.655 192.307C389.655 194.178 389.39 195.862 388.86 197.359C388.361 198.855 387.629 200.134 386.662 201.194C385.696 202.254 384.511 203.065 383.108 203.626C381.736 204.187 380.177 204.468 378.43 204.468C376.684 204.468 375.11 204.187 373.707 203.626C372.335 203.065 371.165 202.254 370.199 201.194C369.232 200.134 368.484 198.855 367.954 197.359C367.455 195.862 367.205 194.178 367.205 192.307ZM371.883 192.307C371.883 194.895 372.444 196.875 373.566 198.247C374.689 199.588 376.31 200.258 378.43 200.258C380.551 200.258 382.172 199.588 383.295 198.247C384.417 196.875 384.978 194.895 384.978 192.307C384.978 189.719 384.417 187.755 383.295 186.414C382.172 185.042 380.551 184.356 378.43 184.356C376.31 184.356 374.689 185.042 373.566 186.414C372.444 187.755 371.883 189.719 371.883 192.307ZM416.795 203.532L416.328 204H412.118L411.651 203.532L406.973 187.162H406.506L401.829 203.532L401.361 204H397.152L396.684 203.532L391.071 184.356V181.082L391.539 180.615H394.345L394.813 181.082L399.022 196.984H399.49L404.167 181.082L404.635 180.615H408.844L409.312 181.082L413.989 196.984H414.457L418.666 181.082L419.134 180.615H421.94L422.408 181.082V184.356L416.795 203.532ZM468.7 204H464.958L464.491 203.532V189.501C464.491 188.815 464.444 188.16 464.35 187.537C464.257 186.913 464.07 186.367 463.789 185.9C463.508 185.432 463.087 185.058 462.526 184.777C461.965 184.497 461.217 184.356 460.281 184.356C458.629 184.356 457.35 184.902 456.446 185.993C455.573 187.085 455.136 188.566 455.136 190.436V203.532L454.669 204H450.927L450.459 203.532V189.501C450.459 188.815 450.413 188.16 450.319 187.537C450.226 186.913 450.038 186.367 449.758 185.9C449.477 185.432 449.056 185.058 448.495 184.777C447.934 184.497 447.185 184.356 446.25 184.356C445.658 184.356 445.05 184.465 444.426 184.684C443.834 184.871 443.288 185.198 442.789 185.666C442.29 186.134 441.885 186.757 441.573 187.537C441.261 188.316 441.105 189.283 441.105 190.436V203.532L440.637 204H436.896L436.428 203.532V181.082L436.896 180.615H440.17L440.637 181.082L441.105 182.953H441.573C442.041 182.236 442.758 181.597 443.724 181.036C444.691 180.443 446.001 180.147 447.653 180.147C448.589 180.147 449.384 180.256 450.038 180.474C450.693 180.661 451.254 180.926 451.722 181.269C452.19 181.581 452.58 181.94 452.891 182.345C453.203 182.719 453.484 183.078 453.733 183.421H454.201C454.918 182.485 455.854 181.706 457.007 181.082C458.161 180.459 459.564 180.147 461.217 180.147C462.838 180.147 464.163 180.396 465.192 180.895C466.252 181.394 467.063 182.064 467.624 182.906C468.217 183.748 468.622 184.746 468.84 185.9C469.059 187.022 469.168 188.223 469.168 189.501V203.532L468.7 204ZM477.099 176.873H473.357L472.889 176.405V172.664L473.357 172.196H477.099L477.566 172.664V176.405L477.099 176.873ZM477.099 204H473.357L472.889 203.532V181.082L473.357 180.615H477.099L477.566 181.082V203.532L477.099 204ZM491.117 209.613C493.269 209.613 494.812 208.942 495.747 207.601C496.714 206.261 497.197 204.281 497.197 201.661H496.73C496.012 202.566 495.124 203.267 494.064 203.766C493.035 204.234 491.897 204.468 490.649 204.468C488.997 204.468 487.531 204.171 486.253 203.579C485.006 202.955 483.93 202.114 483.026 201.053C482.153 199.962 481.482 198.668 481.015 197.171C480.578 195.675 480.36 194.053 480.36 192.307C480.36 190.561 480.578 188.94 481.015 187.443C481.482 185.946 482.153 184.668 483.026 183.608C483.93 182.517 485.006 181.675 486.253 181.082C487.531 180.459 488.997 180.147 490.649 180.147C491.834 180.147 492.957 180.381 494.017 180.848C495.108 181.316 496.012 182.018 496.73 182.953H497.197L497.665 181.082L498.133 180.615H501.407L501.874 181.082V201.194C501.874 203.532 501.578 205.497 500.986 207.087C500.393 208.708 499.598 210.018 498.6 211.016C497.603 212.013 496.449 212.731 495.139 213.167C493.861 213.604 492.52 213.822 491.117 213.822C488.28 213.822 486.066 213.198 484.476 211.951C482.917 210.704 482.012 209.145 481.763 207.274L482.231 206.806H485.972L486.44 207.274C486.908 208.209 487.5 208.833 488.217 209.145C488.966 209.457 489.932 209.613 491.117 209.613ZM497.197 192.307C497.197 189.501 496.652 187.474 495.56 186.227C494.469 184.98 492.988 184.356 491.117 184.356C489.246 184.356 487.765 185.027 486.674 186.367C485.583 187.708 485.037 189.688 485.037 192.307C485.037 194.926 485.583 196.906 486.674 198.247C487.765 199.588 489.246 200.258 491.117 200.258C492.988 200.258 494.469 199.635 495.56 198.387C496.652 197.14 497.197 195.114 497.197 192.307ZM525.718 204H521.977L521.509 203.532V189.969C521.509 189.283 521.431 188.597 521.275 187.911C521.15 187.225 520.917 186.632 520.574 186.134C520.231 185.603 519.747 185.183 519.124 184.871C518.531 184.528 517.767 184.356 516.832 184.356C514.961 184.356 513.48 184.902 512.389 185.993C511.297 187.085 510.752 189.033 510.752 191.84V203.532L510.284 204H506.542L506.075 203.532V171.728L506.542 171.26H510.284L510.752 171.728V182.953H511.219C511.905 182.049 512.778 181.363 513.839 180.895C514.899 180.396 516.052 180.147 517.3 180.147C519.046 180.147 520.496 180.427 521.649 180.989C522.803 181.519 523.707 182.236 524.362 183.14C525.048 184.044 525.516 185.089 525.765 186.274C526.046 187.459 526.186 188.69 526.186 189.969V203.532L525.718 204ZM542.558 204H538.816C538.005 204 537.195 203.891 536.384 203.673C535.604 203.423 534.903 203.049 534.279 202.55C533.687 202.051 533.204 201.428 532.829 200.679C532.455 199.9 532.268 198.98 532.268 197.92V185.292L531.8 184.824H528.526L528.059 184.356V181.082L528.526 180.615H531.8L532.268 180.147V175.937L532.736 175.47H536.478L536.945 175.937V180.147L537.413 180.615H542.558L543.025 181.082V184.356L542.558 184.824H537.413L536.945 185.292V197.92C536.945 198.637 537.132 199.136 537.506 199.416C537.912 199.666 538.348 199.791 538.816 199.791H542.558L543.025 200.258V203.532L542.558 204ZM581.829 203.532L581.361 204H577.152L576.684 203.532L572.007 187.162H571.539L566.862 203.532L566.394 204H562.185L561.717 203.532L556.105 184.356V181.082L556.573 180.615H559.379L559.846 181.082L564.056 196.984H564.524L569.201 181.082L569.668 180.615H573.878L574.345 181.082L579.023 196.984H579.49L583.7 181.082L584.167 180.615H586.974L587.441 181.082V184.356L581.829 203.532ZM605.225 189.969C605.225 189.626 605.163 189.142 605.038 188.519C604.945 187.864 604.711 187.24 604.337 186.648C603.962 186.024 603.401 185.494 602.653 185.058C601.904 184.59 600.891 184.356 599.613 184.356C598.334 184.356 597.321 184.59 596.573 185.058C595.824 185.494 595.263 186.024 594.889 186.648C594.515 187.24 594.265 187.864 594.14 188.519C594.047 189.142 594 189.626 594 189.969L594.468 190.436H604.757L605.225 189.969ZM600.08 204.468C598.21 204.468 596.573 204.171 595.169 203.579C593.766 202.955 592.597 202.114 591.662 201.053C590.726 199.962 590.025 198.668 589.557 197.171C589.089 195.675 588.855 194.053 588.855 192.307C588.855 190.686 589.058 189.142 589.463 187.677C589.9 186.18 590.555 184.886 591.428 183.795C592.301 182.672 593.408 181.784 594.748 181.129C596.12 180.474 597.742 180.147 599.613 180.147C601.483 180.147 603.089 180.474 604.43 181.129C605.802 181.784 606.924 182.672 607.798 183.795C608.671 184.886 609.31 186.18 609.715 187.677C610.152 189.142 610.37 190.686 610.37 192.307V193.71L609.902 194.178H594.468L594 194.646C594 194.895 594.047 195.332 594.14 195.955C594.265 196.548 594.53 197.171 594.936 197.826C595.341 198.45 595.949 199.011 596.76 199.51C597.57 200.009 598.677 200.258 600.08 200.258C600.548 200.258 601 200.227 601.437 200.165C601.904 200.071 602.341 199.931 602.746 199.744C603.183 199.526 603.557 199.245 603.869 198.902C604.212 198.528 604.508 198.045 604.757 197.452L605.225 196.984H608.967L609.435 197.452C609.31 198.387 609.014 199.276 608.546 200.118C608.109 200.96 607.486 201.708 606.675 202.363C605.896 203.018 604.945 203.532 603.822 203.906C602.731 204.281 601.483 204.468 600.08 204.468ZM641.206 197.452C641.206 198.387 641.019 199.276 640.645 200.118C640.302 200.96 639.74 201.708 638.961 202.363C638.212 203.018 637.246 203.532 636.061 203.906C634.876 204.281 633.473 204.468 631.852 204.468C628.796 204.468 626.473 203.797 624.883 202.457C623.293 201.085 622.497 199.105 622.497 196.517L622.965 196.049H626.707L627.175 196.517C627.175 197.702 627.533 198.621 628.25 199.276C628.999 199.931 630.199 200.258 631.852 200.258C633.504 200.258 634.689 200.024 635.406 199.557C636.155 199.089 636.529 198.387 636.529 197.452C636.529 196.86 636.42 196.376 636.201 196.002C636.014 195.628 635.687 195.316 635.219 195.067C634.751 194.786 634.128 194.552 633.348 194.365C632.569 194.178 631.602 193.96 630.449 193.71C629.264 193.492 628.204 193.196 627.268 192.822C626.364 192.448 625.584 191.98 624.93 191.419C624.306 190.857 623.823 190.203 623.48 189.454C623.137 188.675 622.965 187.755 622.965 186.695C622.965 185.884 623.121 185.089 623.433 184.309C623.745 183.499 624.244 182.797 624.93 182.205C625.647 181.581 626.567 181.082 627.689 180.708C628.812 180.334 630.199 180.147 631.852 180.147C633.13 180.147 634.315 180.303 635.406 180.615C636.498 180.895 637.433 181.332 638.212 181.924C639.023 182.485 639.647 183.218 640.083 184.122C640.52 184.995 640.738 186.009 640.738 187.162L640.27 187.63H636.529L636.061 187.162C636.061 186.82 635.999 186.477 635.874 186.134C635.749 185.791 635.515 185.494 635.172 185.245C634.861 184.964 634.424 184.746 633.863 184.59C633.333 184.434 632.662 184.356 631.852 184.356C630.667 184.356 629.669 184.512 628.858 184.824C628.048 185.136 627.642 185.759 627.642 186.695C627.642 187.287 627.767 187.771 628.016 188.145C628.266 188.519 628.64 188.846 629.139 189.127C629.669 189.376 630.339 189.61 631.15 189.828C631.992 190.016 633.005 190.218 634.19 190.436C636.529 190.904 638.275 191.668 639.429 192.728C640.613 193.757 641.206 195.332 641.206 197.452ZM662.719 204H659.445L658.977 203.532L658.509 201.661H658.041C657.418 202.503 656.607 203.189 655.609 203.719C654.612 204.218 653.551 204.468 652.429 204.468C650.776 204.468 649.389 204.203 648.266 203.673C647.144 203.111 646.224 202.379 645.507 201.474C644.821 200.57 644.322 199.526 644.01 198.341C643.698 197.156 643.543 195.924 643.543 194.646V181.082L644.01 180.615H647.752L648.22 181.082V194.646C648.22 195.363 648.282 196.065 648.407 196.751C648.563 197.405 648.812 197.998 649.155 198.528C649.498 199.027 649.966 199.448 650.558 199.791C651.182 200.102 651.961 200.258 652.897 200.258C654.518 200.258 655.859 199.635 656.919 198.387C657.979 197.14 658.509 195.114 658.509 192.307V181.082L658.977 180.615H662.719L663.186 181.082V203.532L662.719 204ZM688.923 192.307C688.923 194.053 688.689 195.675 688.221 197.171C687.785 198.668 687.115 199.962 686.21 201.053C685.337 202.114 684.262 202.955 682.983 203.579C681.705 204.171 680.255 204.468 678.633 204.468C677.573 204.468 676.653 204.312 675.874 204C675.126 203.719 674.502 203.408 674.003 203.065C673.473 202.659 672.99 202.192 672.553 201.661H672.086V212.886L671.618 213.354H667.876L667.408 212.886V181.082L667.876 180.615H671.15L671.618 181.082L672.086 182.953H672.553C673.239 182.049 674.112 181.363 675.172 180.895C676.233 180.396 677.386 180.147 678.633 180.147C680.255 180.147 681.705 180.459 682.983 181.082C684.262 181.675 685.337 182.517 686.21 183.608C687.115 184.668 687.785 185.946 688.221 187.443C688.689 188.94 688.923 190.561 688.923 192.307ZM684.246 192.307C684.246 189.688 683.7 187.708 682.609 186.367C681.518 185.027 680.037 184.356 678.166 184.356C676.295 184.356 674.814 184.98 673.722 186.227C672.631 187.474 672.086 189.501 672.086 192.307C672.086 195.114 672.631 197.14 673.722 198.387C674.814 199.635 676.295 200.258 678.166 200.258C680.037 200.258 681.518 199.588 682.609 198.247C683.7 196.906 684.246 194.926 684.246 192.307ZM713.235 192.307C713.235 194.053 713.001 195.675 712.533 197.171C712.097 198.668 711.426 199.962 710.522 201.053C709.649 202.114 708.573 202.955 707.295 203.579C706.016 204.171 704.567 204.468 702.945 204.468C701.885 204.468 700.965 204.312 700.186 204C699.437 203.719 698.814 203.408 698.315 203.065C697.785 202.659 697.301 202.192 696.865 201.661H696.397V212.886L695.93 213.354H692.188L691.72 212.886V181.082L692.188 180.615H695.462L695.93 181.082L696.397 182.953H696.865C697.551 182.049 698.424 181.363 699.484 180.895C700.544 180.396 701.698 180.147 702.945 180.147C704.567 180.147 706.016 180.459 707.295 181.082C708.573 181.675 709.649 182.517 710.522 183.608C711.426 184.668 712.097 185.946 712.533 187.443C713.001 188.94 713.235 190.561 713.235 192.307ZM708.558 192.307C708.558 189.688 708.012 187.708 706.921 186.367C705.829 185.027 704.348 184.356 702.477 184.356C700.607 184.356 699.126 184.98 698.034 186.227C696.943 187.474 696.397 189.501 696.397 192.307C696.397 195.114 696.943 197.14 698.034 198.387C699.126 199.635 700.607 200.258 702.477 200.258C704.348 200.258 705.829 199.588 706.921 198.247C708.012 196.906 708.558 194.926 708.558 192.307ZM714.629 192.307C714.629 190.436 714.878 188.753 715.377 187.256C715.907 185.759 716.655 184.481 717.622 183.421C718.589 182.361 719.758 181.55 721.13 180.989C722.533 180.427 724.108 180.147 725.854 180.147C727.6 180.147 729.159 180.427 730.531 180.989C731.934 181.55 733.119 182.361 734.085 183.421C735.052 184.481 735.785 185.759 736.284 187.256C736.814 188.753 737.079 190.436 737.079 192.307C737.079 194.178 736.814 195.862 736.284 197.359C735.785 198.855 735.052 200.134 734.085 201.194C733.119 202.254 731.934 203.065 730.531 203.626C729.159 204.187 727.6 204.468 725.854 204.468C724.108 204.468 722.533 204.187 721.13 203.626C719.758 203.065 718.589 202.254 717.622 201.194C716.655 200.134 715.907 198.855 715.377 197.359C714.878 195.862 714.629 194.178 714.629 192.307ZM719.306 192.307C719.306 194.895 719.867 196.875 720.99 198.247C722.112 199.588 723.733 200.258 725.854 200.258C727.974 200.258 729.595 199.588 730.718 198.247C731.84 196.875 732.402 194.895 732.402 192.307C732.402 189.719 731.84 187.755 730.718 186.414C729.595 185.042 727.974 184.356 725.854 184.356C723.733 184.356 722.112 185.042 720.99 186.414C719.867 187.755 719.306 189.719 719.306 192.307ZM752.983 184.824H750.644C749.709 184.824 748.867 184.933 748.118 185.151C747.37 185.338 746.731 185.697 746.201 186.227C745.671 186.757 745.265 187.474 744.985 188.379C744.704 189.283 744.564 190.436 744.564 191.84V203.532L744.096 204H740.354L739.887 203.532V181.082L740.354 180.615H743.628L744.096 181.082L744.564 182.953H745.032C745.375 182.61 745.733 182.298 746.107 182.018C746.481 181.706 746.902 181.456 747.37 181.269C747.838 181.051 748.368 180.895 748.96 180.802C749.584 180.677 750.301 180.615 751.112 180.615H752.983L753.45 181.082V184.356L752.983 184.824ZM768.422 204H764.681C763.87 204 763.059 203.891 762.249 203.673C761.469 203.423 760.768 203.049 760.144 202.55C759.552 202.051 759.068 201.428 758.694 200.679C758.32 199.9 758.133 198.98 758.133 197.92V185.292L757.665 184.824H754.391L753.924 184.356V181.082L754.391 180.615H757.665L758.133 180.147V175.937L758.601 175.47H762.342L762.81 175.937V180.147L763.278 180.615H768.422L768.89 181.082V184.356L768.422 184.824H763.278L762.81 185.292V197.92C762.81 198.637 762.997 199.136 763.371 199.416C763.777 199.666 764.213 199.791 764.681 199.791H768.422L768.89 200.258V203.532L768.422 204ZM800.21 197.452C800.21 198.387 800.023 199.276 799.649 200.118C799.306 200.96 798.745 201.708 797.965 202.363C797.217 203.018 796.25 203.532 795.065 203.906C793.881 204.281 792.477 204.468 790.856 204.468C787.8 204.468 785.477 203.797 783.887 202.457C782.297 201.085 781.502 199.105 781.502 196.517L781.97 196.049H785.711L786.179 196.517C786.179 197.702 786.538 198.621 787.255 199.276C788.003 199.931 789.203 200.258 790.856 200.258C792.509 200.258 793.693 200.024 794.411 199.557C795.159 199.089 795.533 198.387 795.533 197.452C795.533 196.86 795.424 196.376 795.206 196.002C795.019 195.628 794.691 195.316 794.224 195.067C793.756 194.786 793.132 194.552 792.353 194.365C791.573 194.178 790.607 193.96 789.453 193.71C788.268 193.492 787.208 193.196 786.272 192.822C785.368 192.448 784.589 191.98 783.934 191.419C783.31 190.857 782.827 190.203 782.484 189.454C782.141 188.675 781.97 187.755 781.97 186.695C781.97 185.884 782.125 185.089 782.437 184.309C782.749 183.499 783.248 182.797 783.934 182.205C784.651 181.581 785.571 181.082 786.693 180.708C787.816 180.334 789.203 180.147 790.856 180.147C792.134 180.147 793.319 180.303 794.411 180.615C795.502 180.895 796.437 181.332 797.217 181.924C798.028 182.485 798.651 183.218 799.088 184.122C799.524 184.995 799.742 186.009 799.742 187.162L799.275 187.63H795.533L795.065 187.162C795.065 186.82 795.003 186.477 794.878 186.134C794.754 185.791 794.52 185.494 794.177 185.245C793.865 184.964 793.428 184.746 792.867 184.59C792.337 184.434 791.667 184.356 790.856 184.356C789.671 184.356 788.673 184.512 787.863 184.824C787.052 185.136 786.647 185.759 786.647 186.695C786.647 187.287 786.771 187.771 787.021 188.145C787.27 188.519 787.644 188.846 788.143 189.127C788.673 189.376 789.344 189.61 790.154 189.828C790.996 190.016 792.01 190.218 793.195 190.436C795.533 190.904 797.279 191.668 798.433 192.728C799.618 193.757 800.21 195.332 800.21 197.452ZM801.611 192.307C801.611 190.436 801.861 188.753 802.36 187.256C802.89 185.759 803.638 184.481 804.605 183.421C805.571 182.361 806.741 181.55 808.113 180.989C809.516 180.427 811.09 180.147 812.836 180.147C814.583 180.147 816.142 180.427 817.514 180.989C818.917 181.55 820.102 182.361 821.068 183.421C822.035 184.481 822.768 185.759 823.266 187.256C823.796 188.753 824.062 190.436 824.062 192.307C824.062 194.178 823.796 195.862 823.266 197.359C822.768 198.855 822.035 200.134 821.068 201.194C820.102 202.254 818.917 203.065 817.514 203.626C816.142 204.187 814.583 204.468 812.836 204.468C811.09 204.468 809.516 204.187 808.113 203.626C806.741 203.065 805.571 202.254 804.605 201.194C803.638 200.134 802.89 198.855 802.36 197.359C801.861 195.862 801.611 194.178 801.611 192.307ZM806.289 192.307C806.289 194.895 806.85 196.875 807.972 198.247C809.095 199.588 810.716 200.258 812.836 200.258C814.957 200.258 816.578 199.588 817.701 198.247C818.823 196.875 819.384 194.895 819.384 192.307C819.384 189.719 818.823 187.755 817.701 186.414C816.578 185.042 814.957 184.356 812.836 184.356C810.716 184.356 809.095 185.042 807.972 186.414C806.85 187.755 806.289 189.719 806.289 192.307ZM830.144 192.307C830.144 194.895 830.705 196.875 831.827 198.247C832.95 199.588 834.571 200.258 836.691 200.258C837.627 200.258 838.422 200.149 839.077 199.931C839.732 199.713 840.277 199.432 840.714 199.089C841.15 198.746 841.493 198.356 841.743 197.92C841.992 197.452 842.179 196.984 842.304 196.517L842.772 196.049H846.513L846.981 196.517C846.856 197.577 846.56 198.59 846.092 199.557C845.625 200.492 844.97 201.334 844.128 202.082C843.286 202.8 842.242 203.376 840.994 203.813C839.747 204.249 838.313 204.468 836.691 204.468C834.945 204.468 833.371 204.187 831.968 203.626C830.596 203.065 829.426 202.254 828.46 201.194C827.493 200.134 826.745 198.855 826.215 197.359C825.716 195.862 825.466 194.178 825.466 192.307C825.466 190.436 825.716 188.753 826.215 187.256C826.745 185.759 827.493 184.481 828.46 183.421C829.426 182.361 830.596 181.55 831.968 180.989C833.371 180.427 834.945 180.147 836.691 180.147C838.313 180.147 839.747 180.365 840.994 180.802C842.242 181.238 843.286 181.831 844.128 182.579C844.97 183.296 845.625 184.138 846.092 185.105C846.56 186.04 846.856 187.038 846.981 188.098L846.513 188.566H842.772L842.304 188.098C842.179 187.63 841.992 187.178 841.743 186.742C841.493 186.274 841.15 185.869 840.714 185.526C840.277 185.183 839.732 184.902 839.077 184.684C838.422 184.465 837.627 184.356 836.691 184.356C834.571 184.356 832.95 185.042 831.827 186.414C830.705 187.755 830.144 189.719 830.144 192.307ZM853.975 176.873H850.233L849.765 176.405V172.664L850.233 172.196H853.975L854.442 172.664V176.405L853.975 176.873ZM853.975 204H850.233L849.765 203.532V181.082L850.233 180.615H853.975L854.442 181.082V203.532L853.975 204ZM876.412 204H873.138L872.67 203.532L872.203 201.661H871.735C870.955 202.597 869.989 203.298 868.835 203.766C867.713 204.234 866.497 204.468 865.187 204.468C862.568 204.468 860.588 203.813 859.247 202.503C857.906 201.163 857.236 199.323 857.236 196.984C857.236 195.706 857.485 194.599 857.984 193.664C858.483 192.697 859.185 191.918 860.089 191.325C860.993 190.701 862.069 190.249 863.316 189.969C864.594 189.657 865.998 189.501 867.525 189.501C868.243 189.501 868.975 189.548 869.724 189.641C870.472 189.735 871.142 189.844 871.735 189.969L872.203 189.501V188.566C872.203 186.913 871.828 185.806 871.08 185.245C870.363 184.652 869.178 184.356 867.525 184.356C865.842 184.356 864.641 184.59 863.924 185.058C863.207 185.526 862.848 186.227 862.848 187.162L862.381 187.63H858.639L858.171 187.162C858.171 186.352 858.327 185.526 858.639 184.684C858.951 183.842 859.465 183.093 860.182 182.439C860.931 181.753 861.897 181.207 863.082 180.802C864.298 180.365 865.779 180.147 867.525 180.147C869.272 180.147 870.737 180.365 871.922 180.802C873.138 181.207 874.105 181.831 874.822 182.672C875.57 183.514 876.1 184.59 876.412 185.9C876.724 187.178 876.88 188.69 876.88 190.436V203.532L876.412 204ZM872.203 194.178L871.735 193.71C871.018 193.523 870.363 193.399 869.77 193.336C869.178 193.274 868.586 193.243 867.993 193.243C865.842 193.243 864.283 193.57 863.316 194.225C862.381 194.88 861.913 195.8 861.913 196.984C861.913 198.169 862.256 199.011 862.942 199.51C863.659 200.009 864.719 200.258 866.122 200.258C867.993 200.258 869.474 199.837 870.566 198.996C871.657 198.122 872.203 196.984 872.203 195.581V194.178ZM884.831 204H881.089L880.621 203.532V171.728L881.089 171.26H884.831L885.298 171.728V203.532L884.831 204ZM893.704 204H889.963L889.495 203.532V171.728L889.963 171.26H893.704L894.172 171.728V203.532L893.704 204ZM910.529 203.065C909.812 204.811 909.142 206.229 908.518 207.321C907.894 208.443 907.193 209.301 906.413 209.893C905.665 210.517 904.792 210.938 903.794 211.156C902.827 211.374 901.643 211.483 900.239 211.483H899.304L898.836 211.016V207.742L899.304 207.274H900.239C901.424 207.274 902.375 207.102 903.092 206.759C903.841 206.416 904.449 205.653 904.917 204.468V204L896.966 184.356V181.082L897.433 180.615H900.239L900.707 181.082L907.255 198.387H907.723L914.271 181.082L914.738 180.615H917.545L918.012 181.082V184.356L910.529 203.065ZM935.763 176.873H932.022L931.554 176.405V172.664L932.022 172.196H935.763L936.231 172.664V176.405L935.763 176.873ZM935.763 204H932.022L931.554 203.532V181.082L932.022 180.615H935.763L936.231 181.082V203.532L935.763 204ZM957.733 197.452C957.733 198.387 957.546 199.276 957.172 200.118C956.829 200.96 956.267 201.708 955.488 202.363C954.74 203.018 953.773 203.532 952.588 203.906C951.403 204.281 950 204.468 948.379 204.468C945.323 204.468 943 203.797 941.41 202.457C939.82 201.085 939.025 199.105 939.025 196.517L939.492 196.049H943.234L943.702 196.517C943.702 197.702 944.06 198.621 944.777 199.276C945.526 199.931 946.726 200.258 948.379 200.258C950.031 200.258 951.216 200.024 951.933 199.557C952.682 199.089 953.056 198.387 953.056 197.452C953.056 196.86 952.947 196.376 952.728 196.002C952.541 195.628 952.214 195.316 951.746 195.067C951.279 194.786 950.655 194.552 949.875 194.365C949.096 194.178 948.129 193.96 946.976 193.71C945.791 193.492 944.731 193.196 943.795 192.822C942.891 192.448 942.111 191.98 941.457 191.419C940.833 190.857 940.35 190.203 940.007 189.454C939.664 188.675 939.492 187.755 939.492 186.695C939.492 185.884 939.648 185.089 939.96 184.309C940.272 183.499 940.771 182.797 941.457 182.205C942.174 181.581 943.094 181.082 944.216 180.708C945.339 180.334 946.726 180.147 948.379 180.147C949.657 180.147 950.842 180.303 951.933 180.615C953.025 180.895 953.96 181.332 954.74 181.924C955.55 182.485 956.174 183.218 956.61 184.122C957.047 184.995 957.265 186.009 957.265 187.162L956.798 187.63H953.056L952.588 187.162C952.588 186.82 952.526 186.477 952.401 186.134C952.276 185.791 952.042 185.494 951.699 185.245C951.388 184.964 950.951 184.746 950.39 184.59C949.86 184.434 949.189 184.356 948.379 184.356C947.194 184.356 946.196 184.512 945.385 184.824C944.575 185.136 944.169 185.759 944.169 186.695C944.169 187.287 944.294 187.771 944.544 188.145C944.793 188.519 945.167 188.846 945.666 189.127C946.196 189.376 946.866 189.61 947.677 189.828C948.519 190.016 949.532 190.218 950.717 190.436C953.056 190.904 954.802 191.668 955.956 192.728C957.14 193.757 957.733 195.332 957.733 197.452ZM959.134 192.307C959.134 190.436 959.384 188.753 959.883 187.256C960.413 185.759 961.161 184.481 962.128 183.421C963.094 182.361 964.263 181.55 965.635 180.989C967.038 180.427 968.613 180.147 970.359 180.147C972.105 180.147 973.664 180.427 975.036 180.989C976.439 181.55 977.624 182.361 978.591 183.421C979.557 184.481 980.29 185.759 980.789 187.256C981.319 188.753 981.584 190.436 981.584 192.307C981.584 194.178 981.319 195.862 980.789 197.359C980.29 198.855 979.557 200.134 978.591 201.194C977.624 202.254 976.439 203.065 975.036 203.626C973.664 204.187 972.105 204.468 970.359 204.468C968.613 204.468 967.038 204.187 965.635 203.626C964.263 203.065 963.094 202.254 962.128 201.194C961.161 200.134 960.413 198.855 959.883 197.359C959.384 195.862 959.134 194.178 959.134 192.307ZM963.811 192.307C963.811 194.895 964.373 196.875 965.495 198.247C966.618 199.588 968.239 200.258 970.359 200.258C972.479 200.258 974.101 199.588 975.223 198.247C976.346 196.875 976.907 194.895 976.907 192.307C976.907 189.719 976.346 187.755 975.223 186.414C974.101 185.042 972.479 184.356 970.359 184.356C968.239 184.356 966.618 185.042 965.495 186.414C964.373 187.755 963.811 189.719 963.811 192.307ZM988.602 204H984.86L984.392 203.532V171.728L984.86 171.26H988.602L989.069 171.728V203.532L988.602 204ZM1011.04 204H1007.76L1007.3 203.532L1006.83 201.661H1006.36C1005.58 202.597 1004.62 203.298 1003.46 203.766C1002.34 204.234 1001.12 204.468 999.814 204.468C997.195 204.468 995.215 203.813 993.874 202.503C992.533 201.163 991.863 199.323 991.863 196.984C991.863 195.706 992.112 194.599 992.611 193.664C993.11 192.697 993.812 191.918 994.716 191.325C995.62 190.701 996.696 190.249 997.943 189.969C999.221 189.657 1000.62 189.501 1002.15 189.501C1002.87 189.501 1003.6 189.548 1004.35 189.641C1005.1 189.735 1005.77 189.844 1006.36 189.969L1006.83 189.501V188.566C1006.83 186.913 1006.46 185.806 1005.71 185.245C1004.99 184.652 1003.8 184.356 1002.15 184.356C1000.47 184.356 999.268 184.59 998.551 185.058C997.834 185.526 997.475 186.227 997.475 187.162L997.008 187.63H993.266L992.798 187.162C992.798 186.352 992.954 185.526 993.266 184.684C993.578 183.842 994.092 183.093 994.809 182.439C995.558 181.753 996.524 181.207 997.709 180.802C998.925 180.365 1000.41 180.147 1002.15 180.147C1003.9 180.147 1005.36 180.365 1006.55 180.802C1007.76 181.207 1008.73 181.831 1009.45 182.672C1010.2 183.514 1010.73 184.59 1011.04 185.9C1011.35 187.178 1011.51 188.69 1011.51 190.436V203.532L1011.04 204ZM1006.83 194.178L1006.36 193.71C1005.64 193.523 1004.99 193.399 1004.4 193.336C1003.8 193.274 1003.21 193.243 1002.62 193.243C1000.47 193.243 998.91 193.57 997.943 194.225C997.008 194.88 996.54 195.8 996.54 196.984C996.54 198.169 996.883 199.011 997.569 199.51C998.286 200.009 999.346 200.258 1000.75 200.258C1002.62 200.258 1004.1 199.837 1005.19 198.996C1006.28 198.122 1006.83 196.984 1006.83 195.581V194.178ZM1027.42 204H1023.68C1022.87 204 1022.06 203.891 1021.25 203.673C1020.47 203.423 1019.76 203.049 1019.14 202.55C1018.55 202.051 1018.07 201.428 1017.69 200.679C1017.32 199.9 1017.13 198.98 1017.13 197.92V185.292L1016.66 184.824H1013.39L1012.92 184.356V181.082L1013.39 180.615H1016.66L1017.13 180.147V175.937L1017.6 175.47H1021.34L1021.81 175.937V180.147L1022.27 180.615H1027.42L1027.89 181.082V184.356L1027.42 184.824H1022.27L1021.81 185.292V197.92C1021.81 198.637 1021.99 199.136 1022.37 199.416C1022.77 199.666 1023.21 199.791 1023.68 199.791H1027.42L1027.89 200.258V203.532L1027.42 204ZM1045.21 189.969C1045.21 189.626 1045.15 189.142 1045.02 188.519C1044.93 187.864 1044.69 187.24 1044.32 186.648C1043.95 186.024 1043.38 185.494 1042.64 185.058C1041.89 184.59 1040.87 184.356 1039.6 184.356C1038.32 184.356 1037.3 184.59 1036.56 185.058C1035.81 185.494 1035.25 186.024 1034.87 186.648C1034.5 187.24 1034.25 187.864 1034.12 188.519C1034.03 189.142 1033.98 189.626 1033.98 189.969L1034.45 190.436H1044.74L1045.21 189.969ZM1040.06 204.468C1038.19 204.468 1036.56 204.171 1035.15 203.579C1033.75 202.955 1032.58 202.114 1031.65 201.053C1030.71 199.962 1030.01 198.668 1029.54 197.171C1029.07 195.675 1028.84 194.053 1028.84 192.307C1028.84 190.686 1029.04 189.142 1029.45 187.677C1029.88 186.18 1030.54 184.886 1031.41 183.795C1032.28 182.672 1033.39 181.784 1034.73 181.129C1036.1 180.474 1037.73 180.147 1039.6 180.147C1041.47 180.147 1043.07 180.474 1044.41 181.129C1045.79 181.784 1046.91 182.672 1047.78 183.795C1048.65 184.886 1049.29 186.18 1049.7 187.677C1050.14 189.142 1050.35 190.686 1050.35 192.307V193.71L1049.89 194.178H1034.45L1033.98 194.646C1033.98 194.895 1034.03 195.332 1034.12 195.955C1034.25 196.548 1034.51 197.171 1034.92 197.826C1035.32 198.45 1035.93 199.011 1036.74 199.51C1037.55 200.009 1038.66 200.258 1040.06 200.258C1040.53 200.258 1040.98 200.227 1041.42 200.165C1041.89 200.071 1042.32 199.931 1042.73 199.744C1043.17 199.526 1043.54 199.245 1043.85 198.902C1044.2 198.528 1044.49 198.045 1044.74 197.452L1045.21 196.984H1048.95L1049.42 197.452C1049.29 198.387 1049 199.276 1048.53 200.118C1048.09 200.96 1047.47 201.708 1046.66 202.363C1045.88 203.018 1044.93 203.532 1043.81 203.906C1042.71 204.281 1041.47 204.468 1040.06 204.468ZM1072.78 204H1069.51L1069.04 203.532L1068.57 201.661H1068.1C1067.39 202.566 1066.5 203.267 1065.44 203.766C1064.41 204.234 1063.27 204.468 1062.02 204.468C1060.37 204.468 1058.91 204.171 1057.63 203.579C1056.38 202.955 1055.31 202.114 1054.4 201.053C1053.53 199.962 1052.86 198.668 1052.39 197.171C1051.95 195.675 1051.73 194.053 1051.73 192.307C1051.73 190.561 1051.95 188.94 1052.39 187.443C1052.86 185.946 1053.53 184.668 1054.4 183.608C1055.31 182.517 1056.38 181.675 1057.63 181.082C1058.91 180.459 1060.37 180.147 1062.02 180.147C1063.21 180.147 1064.33 180.381 1065.39 180.848C1066.48 181.316 1067.39 182.018 1068.1 182.953H1068.57V171.728L1069.04 171.26H1072.78L1073.25 171.728V203.532L1072.78 204ZM1068.57 192.307C1068.57 189.501 1068.03 187.474 1066.94 186.227C1065.84 184.98 1064.36 184.356 1062.49 184.356C1060.62 184.356 1059.14 185.027 1058.05 186.367C1056.96 187.708 1056.41 189.688 1056.41 192.307C1056.41 194.926 1056.96 196.906 1058.05 198.247C1059.14 199.588 1060.62 200.258 1062.49 200.258C1064.36 200.258 1065.84 199.635 1066.94 198.387C1068.03 197.14 1068.57 195.114 1068.57 192.307ZM1105.5 197.452C1105.5 198.387 1105.31 199.276 1104.94 200.118C1104.6 200.96 1104.04 201.708 1103.26 202.363C1102.51 203.018 1101.54 203.532 1100.36 203.906C1099.17 204.281 1097.77 204.468 1096.15 204.468C1093.09 204.468 1090.77 203.797 1089.18 202.457C1087.59 201.085 1086.79 199.105 1086.79 196.517L1087.26 196.049H1091L1091.47 196.517C1091.47 197.702 1091.83 198.621 1092.55 199.276C1093.29 199.931 1094.49 200.258 1096.15 200.258C1097.8 200.258 1098.98 200.024 1099.7 199.557C1100.45 199.089 1100.82 198.387 1100.82 197.452C1100.82 196.86 1100.72 196.376 1100.5 196.002C1100.31 195.628 1099.98 195.316 1099.51 195.067C1099.05 194.786 1098.42 194.552 1097.64 194.365C1096.86 194.178 1095.9 193.96 1094.74 193.71C1093.56 193.492 1092.5 193.196 1091.56 192.822C1090.66 192.448 1089.88 191.98 1089.23 191.419C1088.6 190.857 1088.12 190.203 1087.78 189.454C1087.43 188.675 1087.26 187.755 1087.26 186.695C1087.26 185.884 1087.42 185.089 1087.73 184.309C1088.04 183.499 1088.54 182.797 1089.23 182.205C1089.94 181.581 1090.86 181.082 1091.98 180.708C1093.11 180.334 1094.49 180.147 1096.15 180.147C1097.43 180.147 1098.61 180.303 1099.7 180.615C1100.79 180.895 1101.73 181.332 1102.51 181.924C1103.32 182.485 1103.94 183.218 1104.38 184.122C1104.82 184.995 1105.03 186.009 1105.03 187.162L1104.57 187.63H1100.82L1100.36 187.162C1100.36 186.82 1100.29 186.477 1100.17 186.134C1100.04 185.791 1099.81 185.494 1099.47 185.245C1099.16 184.964 1098.72 184.746 1098.16 184.59C1097.63 184.434 1096.96 184.356 1096.15 184.356C1094.96 184.356 1093.96 184.512 1093.15 184.824C1092.34 185.136 1091.94 185.759 1091.94 186.695C1091.94 187.287 1092.06 187.771 1092.31 188.145C1092.56 188.519 1092.94 188.846 1093.43 189.127C1093.96 189.376 1094.63 189.61 1095.45 189.828C1096.29 190.016 1097.3 190.218 1098.49 190.436C1100.82 190.904 1102.57 191.668 1103.72 192.728C1104.91 193.757 1105.5 195.332 1105.5 197.452ZM1123.27 189.969C1123.27 189.626 1123.21 189.142 1123.09 188.519C1122.99 187.864 1122.76 187.24 1122.38 186.648C1122.01 186.024 1121.45 185.494 1120.7 185.058C1119.95 184.59 1118.94 184.356 1117.66 184.356C1116.38 184.356 1115.37 184.59 1114.62 185.058C1113.87 185.494 1113.31 186.024 1112.94 186.648C1112.56 187.24 1112.31 187.864 1112.19 188.519C1112.09 189.142 1112.05 189.626 1112.05 189.969L1112.52 190.436H1122.8L1123.27 189.969ZM1118.13 204.468C1116.26 204.468 1114.62 204.171 1113.22 203.579C1111.81 202.955 1110.64 202.114 1109.71 201.053C1108.77 199.962 1108.07 198.668 1107.6 197.171C1107.14 195.675 1106.9 194.053 1106.9 192.307C1106.9 190.686 1107.11 189.142 1107.51 187.677C1107.95 186.18 1108.6 184.886 1109.48 183.795C1110.35 182.672 1111.45 181.784 1112.8 181.129C1114.17 180.474 1115.79 180.147 1117.66 180.147C1119.53 180.147 1121.14 180.474 1122.48 181.129C1123.85 181.784 1124.97 182.672 1125.84 183.795C1126.72 184.886 1127.36 186.18 1127.76 187.677C1128.2 189.142 1128.42 190.686 1128.42 192.307V193.71L1127.95 194.178H1112.52L1112.05 194.646C1112.05 194.895 1112.09 195.332 1112.19 195.955C1112.31 196.548 1112.58 197.171 1112.98 197.826C1113.39 198.45 1114 199.011 1114.81 199.51C1115.62 200.009 1116.72 200.258 1118.13 200.258C1118.6 200.258 1119.05 200.227 1119.48 200.165C1119.95 200.071 1120.39 199.931 1120.79 199.744C1121.23 199.526 1121.6 199.245 1121.92 198.902C1122.26 198.528 1122.56 198.045 1122.8 197.452L1123.27 196.984H1127.01L1127.48 197.452C1127.36 198.387 1127.06 199.276 1126.59 200.118C1126.16 200.96 1125.53 201.708 1124.72 202.363C1123.94 203.018 1122.99 203.532 1121.87 203.906C1120.78 204.281 1119.53 204.468 1118.13 204.468ZM1150.85 204H1147.1L1146.64 203.532V189.969C1146.64 189.376 1146.59 188.753 1146.5 188.098C1146.4 187.443 1146.18 186.835 1145.84 186.274C1145.53 185.713 1145.06 185.26 1144.44 184.917C1143.85 184.543 1143.02 184.356 1141.96 184.356C1139.81 184.356 1138.25 184.98 1137.28 186.227C1136.35 187.443 1135.88 189.47 1135.88 192.307V203.532L1135.41 204H1131.67L1131.2 203.532V181.082L1131.67 180.615H1134.94L1135.41 181.082L1135.88 182.953H1136.35C1137.03 182.049 1137.91 181.363 1138.97 180.895C1140.03 180.396 1141.18 180.147 1142.43 180.147C1144.05 180.147 1145.42 180.396 1146.54 180.895C1147.7 181.394 1148.62 182.08 1149.3 182.953C1150.02 183.826 1150.53 184.871 1150.85 186.087C1151.16 187.272 1151.31 188.566 1151.31 189.969V203.532L1150.85 204ZM1159.27 176.873H1155.52L1155.06 176.405V172.664L1155.52 172.196H1159.27L1159.73 172.664V176.405L1159.27 176.873ZM1159.27 204H1155.52L1155.06 203.532V181.082L1155.52 180.615H1159.27L1159.73 181.082V203.532L1159.27 204ZM1162.53 192.307C1162.53 190.436 1162.78 188.753 1163.28 187.256C1163.81 185.759 1164.55 184.481 1165.52 183.421C1166.49 182.361 1167.66 181.55 1169.03 180.989C1170.43 180.427 1172.01 180.147 1173.75 180.147C1175.5 180.147 1177.06 180.427 1178.43 180.989C1179.83 181.55 1181.02 182.361 1181.98 183.421C1182.95 184.481 1183.68 185.759 1184.18 187.256C1184.71 188.753 1184.98 190.436 1184.98 192.307C1184.98 194.178 1184.71 195.862 1184.18 197.359C1183.68 198.855 1182.95 200.134 1181.98 201.194C1181.02 202.254 1179.83 203.065 1178.43 203.626C1177.06 204.187 1175.5 204.468 1173.75 204.468C1172.01 204.468 1170.43 204.187 1169.03 203.626C1167.66 203.065 1166.49 202.254 1165.52 201.194C1164.55 200.134 1163.81 198.855 1163.28 197.359C1162.78 195.862 1162.53 194.178 1162.53 192.307ZM1167.2 192.307C1167.2 194.895 1167.77 196.875 1168.89 198.247C1170.01 199.588 1171.63 200.258 1173.75 200.258C1175.87 200.258 1177.49 199.588 1178.62 198.247C1179.74 196.875 1180.3 194.895 1180.3 192.307C1180.3 189.719 1179.74 187.755 1178.62 186.414C1177.49 185.042 1175.87 184.356 1173.75 184.356C1171.63 184.356 1170.01 185.042 1168.89 186.414C1167.77 187.755 1167.2 189.719 1167.2 192.307ZM1200.88 184.824H1198.54C1197.61 184.824 1196.77 184.933 1196.02 185.151C1195.27 185.338 1194.63 185.697 1194.1 186.227C1193.57 186.757 1193.16 187.474 1192.88 188.379C1192.6 189.283 1192.46 190.436 1192.46 191.84V203.532L1191.99 204H1188.25L1187.79 203.532V181.082L1188.25 180.615H1191.53L1191.99 181.082L1192.46 182.953H1192.93C1193.27 182.61 1193.63 182.298 1194.01 182.018C1194.38 181.706 1194.8 181.456 1195.27 181.269C1195.74 181.051 1196.27 180.895 1196.86 180.802C1197.48 180.677 1198.2 180.615 1199.01 180.615H1200.88L1201.35 181.082V184.356L1200.88 184.824ZM1220.54 197.452C1220.54 198.387 1220.35 199.276 1219.98 200.118C1219.64 200.96 1219.08 201.708 1218.3 202.363C1217.55 203.018 1216.58 203.532 1215.4 203.906C1214.21 204.281 1212.81 204.468 1211.19 204.468C1208.13 204.468 1205.81 203.797 1204.22 202.457C1202.63 201.085 1201.83 199.105 1201.83 196.517L1202.3 196.049H1206.04L1206.51 196.517C1206.51 197.702 1206.87 198.621 1207.59 199.276C1208.33 199.931 1209.53 200.258 1211.19 200.258C1212.84 200.258 1214.02 200.024 1214.74 199.557C1215.49 199.089 1215.86 198.387 1215.86 197.452C1215.86 196.86 1215.75 196.376 1215.54 196.002C1215.35 195.628 1215.02 195.316 1214.55 195.067C1214.09 194.786 1213.46 194.552 1212.68 194.365C1211.9 194.178 1210.94 193.96 1209.78 193.71C1208.6 193.492 1207.54 193.196 1206.6 192.822C1205.7 192.448 1204.92 191.98 1204.26 191.419C1203.64 190.857 1203.16 190.203 1202.82 189.454C1202.47 188.675 1202.3 187.755 1202.3 186.695C1202.3 185.884 1202.46 185.089 1202.77 184.309C1203.08 183.499 1203.58 182.797 1204.26 182.205C1204.98 181.581 1205.9 181.082 1207.02 180.708C1208.15 180.334 1209.53 180.147 1211.19 180.147C1212.47 180.147 1213.65 180.303 1214.74 180.615C1215.83 180.895 1216.77 181.332 1217.55 181.924C1218.36 182.485 1218.98 183.218 1219.42 184.122C1219.86 184.995 1220.07 186.009 1220.07 187.162L1219.61 187.63H1215.86L1215.4 187.162C1215.4 186.82 1215.33 186.477 1215.21 186.134C1215.08 185.791 1214.85 185.494 1214.51 185.245C1214.2 184.964 1213.76 184.746 1213.2 184.59C1212.67 184.434 1212 184.356 1211.19 184.356C1210 184.356 1209 184.512 1208.19 184.824C1207.38 185.136 1206.98 185.759 1206.98 186.695C1206.98 187.287 1207.1 187.771 1207.35 188.145C1207.6 188.519 1207.98 188.846 1208.47 189.127C1209 189.376 1209.67 189.61 1210.49 189.828C1211.33 190.016 1212.34 190.218 1213.53 190.436C1215.86 190.904 1217.61 191.668 1218.76 192.728C1219.95 193.757 1220.54 195.332 1220.54 197.452ZM1238.3 176.873H1234.56L1234.09 176.405V172.664L1234.56 172.196H1238.3L1238.77 172.664V176.405L1238.3 176.873ZM1238.3 204H1234.56L1234.09 203.532V181.082L1234.56 180.615H1238.3L1238.77 181.082V203.532L1238.3 204ZM1262.61 204H1258.87L1258.4 203.532V189.969C1258.4 189.376 1258.35 188.753 1258.26 188.098C1258.17 187.443 1257.95 186.835 1257.6 186.274C1257.29 185.713 1256.83 185.26 1256.2 184.917C1255.61 184.543 1254.78 184.356 1253.72 184.356C1251.57 184.356 1250.01 184.98 1249.05 186.227C1248.11 187.443 1247.64 189.47 1247.64 192.307V203.532L1247.17 204H1243.43L1242.97 203.532V181.082L1243.43 180.615H1246.71L1247.17 181.082L1247.64 182.953H1248.11C1248.8 182.049 1249.67 181.363 1250.73 180.895C1251.79 180.396 1252.94 180.147 1254.19 180.147C1255.81 180.147 1257.18 180.396 1258.31 180.895C1259.46 181.394 1260.38 182.08 1261.07 182.953C1261.78 183.826 1262.3 184.871 1262.61 186.087C1262.92 187.272 1263.08 188.566 1263.08 189.969V203.532L1262.61 204ZM1291.61 204.468C1289.15 204.468 1286.95 204.062 1285.01 203.252C1283.11 202.41 1281.51 201.241 1280.2 199.744C1278.89 198.247 1277.89 196.47 1277.2 194.412C1276.52 192.354 1276.17 190.093 1276.17 187.63C1276.17 185.167 1276.52 182.906 1277.2 180.848C1277.89 178.791 1278.89 177.013 1280.2 175.517C1281.51 174.02 1283.11 172.866 1285.01 172.056C1286.95 171.214 1289.15 170.793 1291.61 170.793C1293.48 170.793 1295.16 171.042 1296.66 171.541C1298.19 172.04 1299.5 172.726 1300.59 173.599C1301.71 174.472 1302.62 175.517 1303.3 176.733C1303.99 177.917 1304.46 179.211 1304.7 180.615L1304.24 181.082H1300.5L1300.03 180.615C1299.56 178.962 1298.62 177.621 1297.22 176.592C1295.82 175.532 1293.95 175.002 1291.61 175.002C1289.86 175.002 1288.32 175.314 1286.98 175.937C1285.64 176.53 1284.52 177.387 1283.61 178.51C1282.71 179.632 1282.02 180.973 1281.55 182.532C1281.09 184.06 1280.85 185.759 1280.85 187.63C1280.85 189.501 1281.09 191.216 1281.55 192.775C1282.02 194.303 1282.71 195.628 1283.61 196.751C1284.52 197.873 1285.64 198.746 1286.98 199.37C1288.32 199.962 1289.86 200.258 1291.61 200.258C1292.89 200.258 1293.99 200.102 1294.93 199.791C1295.9 199.448 1296.71 198.996 1297.36 198.434C1298.05 197.873 1298.59 197.234 1299 196.517C1299.44 195.768 1299.78 194.989 1300.03 194.178L1300.5 193.71H1304.24L1304.7 194.178C1304.46 195.581 1304 196.906 1303.35 198.154C1302.72 199.401 1301.87 200.492 1300.78 201.428C1299.72 202.363 1298.42 203.111 1296.89 203.673C1295.37 204.203 1293.6 204.468 1291.61 204.468ZM1325.77 204H1322.5L1322.03 203.532L1321.56 201.661H1321.09C1320.32 202.597 1319.35 203.298 1318.19 203.766C1317.07 204.234 1315.86 204.468 1314.55 204.468C1311.93 204.468 1309.95 203.813 1308.61 202.503C1307.27 201.163 1306.6 199.323 1306.6 196.984C1306.6 195.706 1306.85 194.599 1307.34 193.664C1307.84 192.697 1308.54 191.918 1309.45 191.325C1310.35 190.701 1311.43 190.249 1312.68 189.969C1313.95 189.657 1315.36 189.501 1316.89 189.501C1317.6 189.501 1318.34 189.548 1319.08 189.641C1319.83 189.735 1320.5 189.844 1321.09 189.969L1321.56 189.501V188.566C1321.56 186.913 1321.19 185.806 1320.44 185.245C1319.72 184.652 1318.54 184.356 1316.89 184.356C1315.2 184.356 1314 184.59 1313.28 185.058C1312.57 185.526 1312.21 186.227 1312.21 187.162L1311.74 187.63H1308L1307.53 187.162C1307.53 186.352 1307.69 185.526 1308 184.684C1308.31 183.842 1308.83 183.093 1309.54 182.439C1310.29 181.753 1311.26 181.207 1312.44 180.802C1313.66 180.365 1315.14 180.147 1316.89 180.147C1318.63 180.147 1320.1 180.365 1321.28 180.802C1322.5 181.207 1323.46 181.831 1324.18 182.672C1324.93 183.514 1325.46 184.59 1325.77 185.9C1326.08 187.178 1326.24 188.69 1326.24 190.436V203.532L1325.77 204ZM1321.56 194.178L1321.09 193.71C1320.38 193.523 1319.72 193.399 1319.13 193.336C1318.54 193.274 1317.95 193.243 1317.35 193.243C1315.2 193.243 1313.64 193.57 1312.68 194.225C1311.74 194.88 1311.27 195.8 1311.27 196.984C1311.27 198.169 1311.62 199.011 1312.3 199.51C1313.02 200.009 1314.08 200.258 1315.48 200.258C1317.35 200.258 1318.83 199.837 1319.93 198.996C1321.02 198.122 1321.56 196.984 1321.56 195.581V194.178ZM1349.62 204H1345.88L1345.42 203.532V189.969C1345.42 189.376 1345.37 188.753 1345.28 188.098C1345.18 187.443 1344.96 186.835 1344.62 186.274C1344.31 185.713 1343.84 185.26 1343.22 184.917C1342.62 184.543 1341.8 184.356 1340.74 184.356C1338.59 184.356 1337.03 184.98 1336.06 186.227C1335.13 187.443 1334.66 189.47 1334.66 192.307V203.532L1334.19 204H1330.45L1329.98 203.532V181.082L1330.45 180.615H1333.72L1334.19 181.082L1334.66 182.953H1335.13C1335.81 182.049 1336.69 181.363 1337.75 180.895C1338.81 180.396 1339.96 180.147 1341.21 180.147C1342.83 180.147 1344.2 180.396 1345.32 180.895C1346.48 181.394 1347.4 182.08 1348.08 182.953C1348.8 183.826 1349.31 184.871 1349.62 186.087C1349.94 187.272 1350.09 188.566 1350.09 189.969V203.532L1349.62 204ZM1371.61 204H1368.34L1367.87 203.532L1367.4 201.661H1366.93C1366.15 202.597 1365.19 203.298 1364.03 203.766C1362.91 204.234 1361.69 204.468 1360.38 204.468C1357.76 204.468 1355.78 203.813 1354.44 202.503C1353.1 201.163 1352.43 199.323 1352.43 196.984C1352.43 195.706 1352.68 194.599 1353.18 193.664C1353.68 192.697 1354.38 191.918 1355.29 191.325C1356.19 190.701 1357.27 190.249 1358.51 189.969C1359.79 189.657 1361.19 189.501 1362.72 189.501C1363.44 189.501 1364.17 189.548 1364.92 189.641C1365.67 189.735 1366.34 189.844 1366.93 189.969L1367.4 189.501V188.566C1367.4 186.913 1367.03 185.806 1366.28 185.245C1365.56 184.652 1364.38 184.356 1362.72 184.356C1361.04 184.356 1359.84 184.59 1359.12 185.058C1358.4 185.526 1358.05 186.227 1358.05 187.162L1357.58 187.63H1353.84L1353.37 187.162C1353.37 186.352 1353.52 185.526 1353.84 184.684C1354.15 183.842 1354.66 183.093 1355.38 182.439C1356.13 181.753 1357.09 181.207 1358.28 180.802C1359.5 180.365 1360.98 180.147 1362.72 180.147C1364.47 180.147 1365.93 180.365 1367.12 180.802C1368.34 181.207 1369.3 181.831 1370.02 182.672C1370.77 183.514 1371.3 184.59 1371.61 185.9C1371.92 187.178 1372.08 188.69 1372.08 190.436V203.532L1371.61 204ZM1367.4 194.178L1366.93 193.71C1366.21 193.523 1365.56 193.399 1364.97 193.336C1364.38 193.274 1363.78 193.243 1363.19 193.243C1361.04 193.243 1359.48 193.57 1358.51 194.225C1357.58 194.88 1357.11 195.8 1357.11 196.984C1357.11 198.169 1357.45 199.011 1358.14 199.51C1358.86 200.009 1359.92 200.258 1361.32 200.258C1363.19 200.258 1364.67 199.837 1365.76 198.996C1366.85 198.122 1367.4 196.984 1367.4 195.581V194.178ZM1395.46 204H1392.19L1391.72 203.532L1391.25 201.661H1390.79C1390.07 202.566 1389.18 203.267 1388.12 203.766C1387.09 204.234 1385.95 204.468 1384.7 204.468C1383.05 204.468 1381.59 204.171 1380.31 203.579C1379.06 202.955 1377.99 202.114 1377.08 201.053C1376.21 199.962 1375.54 198.668 1375.07 197.171C1374.63 195.675 1374.42 194.053 1374.42 192.307C1374.42 190.561 1374.63 188.94 1375.07 187.443C1375.54 185.946 1376.21 184.668 1377.08 183.608C1377.99 182.517 1379.06 181.675 1380.31 181.082C1381.59 180.459 1383.05 180.147 1384.7 180.147C1385.89 180.147 1387.01 180.381 1388.07 180.848C1389.16 181.316 1390.07 182.018 1390.79 182.953H1391.25V171.728L1391.72 171.26H1395.46L1395.93 171.728V203.532L1395.46 204ZM1391.25 192.307C1391.25 189.501 1390.71 187.474 1389.62 186.227C1388.52 184.98 1387.04 184.356 1385.17 184.356C1383.3 184.356 1381.82 185.027 1380.73 186.367C1379.64 187.708 1379.09 189.688 1379.09 192.307C1379.09 194.926 1379.64 196.906 1380.73 198.247C1381.82 199.588 1383.3 200.258 1385.17 200.258C1387.04 200.258 1388.52 199.635 1389.62 198.387C1390.71 197.14 1391.25 195.114 1391.25 192.307ZM1417.9 204H1414.63L1414.16 203.532L1413.69 201.661H1413.23C1412.45 202.597 1411.48 203.298 1410.33 203.766C1409.2 204.234 1407.99 204.468 1406.68 204.468C1404.06 204.468 1402.08 203.813 1400.74 202.503C1399.4 201.163 1398.73 199.323 1398.73 196.984C1398.73 195.706 1398.98 194.599 1399.48 193.664C1399.97 192.697 1400.68 191.918 1401.58 191.325C1402.48 190.701 1403.56 190.249 1404.81 189.969C1406.09 189.657 1407.49 189.501 1409.02 189.501C1409.73 189.501 1410.47 189.548 1411.21 189.641C1411.96 189.735 1412.63 189.844 1413.23 189.969L1413.69 189.501V188.566C1413.69 186.913 1413.32 185.806 1412.57 185.245C1411.85 184.652 1410.67 184.356 1409.02 184.356C1407.33 184.356 1406.13 184.59 1405.42 185.058C1404.7 185.526 1404.34 186.227 1404.34 187.162L1403.87 187.63H1400.13L1399.66 187.162C1399.66 186.352 1399.82 185.526 1400.13 184.684C1400.44 183.842 1400.96 183.093 1401.67 182.439C1402.42 181.753 1403.39 181.207 1404.57 180.802C1405.79 180.365 1407.27 180.147 1409.02 180.147C1410.76 180.147 1412.23 180.365 1413.41 180.802C1414.63 181.207 1415.6 181.831 1416.31 182.672C1417.06 183.514 1417.59 184.59 1417.9 185.9C1418.21 187.178 1418.37 188.69 1418.37 190.436V203.532L1417.9 204ZM1413.69 194.178L1413.23 193.71C1412.51 193.523 1411.85 193.399 1411.26 193.336C1410.67 193.274 1410.08 193.243 1409.48 193.243C1407.33 193.243 1405.77 193.57 1404.81 194.225C1403.87 194.88 1403.4 195.8 1403.4 196.984C1403.4 198.169 1403.75 199.011 1404.43 199.51C1405.15 200.009 1406.21 200.258 1407.61 200.258C1409.48 200.258 1410.97 199.837 1412.06 198.996C1413.15 198.122 1413.69 196.984 1413.69 195.581V194.178ZM1445.49 204H1441.75C1440.93 204 1440.12 203.891 1439.31 203.673C1438.53 203.423 1437.83 203.049 1437.21 202.55C1436.62 202.051 1436.13 201.428 1435.76 200.679C1435.38 199.9 1435.2 198.98 1435.2 197.92V185.292L1434.73 184.824H1431.46L1430.99 184.356V181.082L1431.46 180.615H1434.73L1435.2 180.147V175.937L1435.66 175.47H1439.41L1439.87 175.937V180.147L1440.34 180.615H1445.49L1445.95 181.082V184.356L1445.49 184.824H1440.34L1439.87 185.292V197.92C1439.87 198.637 1440.06 199.136 1440.44 199.416C1440.84 199.666 1441.28 199.791 1441.75 199.791H1445.49L1445.95 200.258V203.532L1445.49 204ZM1468.87 204H1465.13L1464.66 203.532V189.969C1464.66 189.283 1464.58 188.597 1464.42 187.911C1464.3 187.225 1464.07 186.632 1463.72 186.134C1463.38 185.603 1462.9 185.183 1462.27 184.871C1461.68 184.528 1460.92 184.356 1459.98 184.356C1458.11 184.356 1456.63 184.902 1455.54 185.993C1454.45 187.085 1453.9 189.033 1453.9 191.84V203.532L1453.43 204H1449.69L1449.22 203.532V171.728L1449.69 171.26H1453.43L1453.9 171.728V182.953H1454.37C1455.05 182.049 1455.93 181.363 1456.99 180.895C1458.05 180.396 1459.2 180.147 1460.45 180.147C1462.19 180.147 1463.64 180.427 1464.8 180.989C1465.95 181.519 1466.86 182.236 1467.51 183.14C1468.2 184.044 1468.66 185.089 1468.91 186.274C1469.19 187.459 1469.33 188.69 1469.33 189.969V203.532L1468.87 204ZM1486.63 184.824H1484.29C1483.36 184.824 1482.51 184.933 1481.77 185.151C1481.02 185.338 1480.38 185.697 1479.85 186.227C1479.32 186.757 1478.91 187.474 1478.63 188.379C1478.35 189.283 1478.21 190.436 1478.21 191.84V203.532L1477.74 204H1474L1473.53 203.532V181.082L1474 180.615H1477.28L1477.74 181.082L1478.21 182.953H1478.68C1479.02 182.61 1479.38 182.298 1479.76 182.018C1480.13 181.706 1480.55 181.456 1481.02 181.269C1481.49 181.051 1482.02 180.895 1482.61 180.802C1483.23 180.677 1483.95 180.615 1484.76 180.615H1486.63L1487.1 181.082V184.356L1486.63 184.824ZM1486.62 192.307C1486.62 190.436 1486.87 188.753 1487.37 187.256C1487.9 185.759 1488.65 184.481 1489.62 183.421C1490.58 182.361 1491.75 181.55 1493.12 180.989C1494.53 180.427 1496.1 180.147 1497.85 180.147C1499.59 180.147 1501.15 180.427 1502.53 180.989C1503.93 181.55 1505.11 182.361 1506.08 183.421C1507.05 184.481 1507.78 185.759 1508.28 187.256C1508.81 188.753 1509.07 190.436 1509.07 192.307C1509.07 194.178 1508.81 195.862 1508.28 197.359C1507.78 198.855 1507.05 200.134 1506.08 201.194C1505.11 202.254 1503.93 203.065 1502.53 203.626C1501.15 204.187 1499.59 204.468 1497.85 204.468C1496.1 204.468 1494.53 204.187 1493.12 203.626C1491.75 203.065 1490.58 202.254 1489.62 201.194C1488.65 200.134 1487.9 198.855 1487.37 197.359C1486.87 195.862 1486.62 194.178 1486.62 192.307ZM1491.3 192.307C1491.3 194.895 1491.86 196.875 1492.98 198.247C1494.11 199.588 1495.73 200.258 1497.85 200.258C1499.97 200.258 1501.59 199.588 1502.71 198.247C1503.84 196.875 1504.4 194.895 1504.4 192.307C1504.4 189.719 1503.84 187.755 1502.71 186.414C1501.59 185.042 1499.97 184.356 1497.85 184.356C1495.73 184.356 1494.11 185.042 1492.98 186.414C1491.86 187.755 1491.3 189.719 1491.3 192.307ZM1530.59 204H1527.32L1526.85 203.532L1526.38 201.661H1525.91C1525.29 202.503 1524.48 203.189 1523.48 203.719C1522.48 204.218 1521.42 204.468 1520.3 204.468C1518.65 204.468 1517.26 204.203 1516.14 203.673C1515.01 203.111 1514.1 202.379 1513.38 201.474C1512.69 200.57 1512.19 199.526 1511.88 198.341C1511.57 197.156 1511.41 195.924 1511.41 194.646V181.082L1511.88 180.615H1515.62L1516.09 181.082V194.646C1516.09 195.363 1516.15 196.065 1516.28 196.751C1516.43 197.405 1516.68 197.998 1517.03 198.528C1517.37 199.027 1517.84 199.448 1518.43 199.791C1519.05 200.102 1519.83 200.258 1520.77 200.258C1522.39 200.258 1523.73 199.635 1524.79 198.387C1525.85 197.14 1526.38 195.114 1526.38 192.307V181.082L1526.85 180.615H1530.59L1531.06 181.082V203.532L1530.59 204ZM1544.63 209.613C1546.79 209.613 1548.33 208.942 1549.26 207.601C1550.23 206.261 1550.71 204.281 1550.71 201.661H1550.25C1549.53 202.566 1548.64 203.267 1547.58 203.766C1546.55 204.234 1545.41 204.468 1544.17 204.468C1542.51 204.468 1541.05 204.171 1539.77 203.579C1538.52 202.955 1537.45 202.114 1536.54 201.053C1535.67 199.962 1535 198.668 1534.53 197.171C1534.09 195.675 1533.88 194.053 1533.88 192.307C1533.88 190.561 1534.09 188.94 1534.53 187.443C1535 185.946 1535.67 184.668 1536.54 183.608C1537.45 182.517 1538.52 181.675 1539.77 181.082C1541.05 180.459 1542.51 180.147 1544.17 180.147C1545.35 180.147 1546.47 180.381 1547.53 180.848C1548.62 181.316 1549.53 182.018 1550.25 182.953H1550.71L1551.18 181.082L1551.65 180.615H1554.92L1555.39 181.082V201.194C1555.39 203.532 1555.09 205.497 1554.5 207.087C1553.91 208.708 1553.11 210.018 1552.12 211.016C1551.12 212.013 1549.97 212.731 1548.66 213.167C1547.38 213.604 1546.04 213.822 1544.63 213.822C1541.8 213.822 1539.58 213.198 1537.99 211.951C1536.43 210.704 1535.53 209.145 1535.28 207.274L1535.75 206.806H1539.49L1539.96 207.274C1540.42 208.209 1541.02 208.833 1541.73 209.145C1542.48 209.457 1543.45 209.613 1544.63 209.613ZM1550.71 192.307C1550.71 189.501 1550.17 187.474 1549.08 186.227C1547.99 184.98 1546.5 184.356 1544.63 184.356C1542.76 184.356 1541.28 185.027 1540.19 186.367C1539.1 187.708 1538.55 189.688 1538.55 192.307C1538.55 194.926 1539.1 196.906 1540.19 198.247C1541.28 199.588 1542.76 200.258 1544.63 200.258C1546.5 200.258 1547.99 199.635 1549.08 198.387C1550.17 197.14 1550.71 195.114 1550.71 192.307ZM1579.24 204H1575.49L1575.03 203.532V189.969C1575.03 189.283 1574.95 188.597 1574.79 187.911C1574.67 187.225 1574.43 186.632 1574.09 186.134C1573.75 185.603 1573.26 185.183 1572.64 184.871C1572.05 184.528 1571.28 184.356 1570.35 184.356C1568.48 184.356 1567 184.902 1565.91 185.993C1564.81 187.085 1564.27 189.033 1564.27 191.84V203.532L1563.8 204H1560.06L1559.59 203.532V171.728L1560.06 171.26H1563.8L1564.27 171.728V182.953H1564.74C1565.42 182.049 1566.3 181.363 1567.36 180.895C1568.42 180.396 1569.57 180.147 1570.82 180.147C1572.56 180.147 1574.01 180.427 1575.17 180.989C1576.32 181.519 1577.22 182.236 1577.88 183.14C1578.56 184.044 1579.03 185.089 1579.28 186.274C1579.56 187.459 1579.7 188.69 1579.7 189.969V203.532L1579.24 204ZM351.305 260.468C348.842 260.468 346.644 260.062 344.711 259.252C342.809 258.41 341.203 257.241 339.893 255.744C338.584 254.247 337.586 252.47 336.9 250.412C336.214 248.354 335.871 246.093 335.871 243.63C335.871 241.167 336.214 238.906 336.9 236.848C337.586 234.791 338.584 233.013 339.893 231.517C341.203 230.02 342.809 228.866 344.711 228.056C346.644 227.214 348.842 226.793 351.305 226.793C353.176 226.793 354.86 227.042 356.356 227.541C357.884 228.04 359.194 228.726 360.285 229.599C361.408 230.472 362.312 231.517 362.998 232.733C363.684 233.917 364.152 235.211 364.401 236.615L363.933 237.082H360.192L359.724 236.615C359.256 234.962 358.321 233.621 356.918 232.592C355.515 231.532 353.644 231.002 351.305 231.002C349.559 231.002 348.016 231.314 346.675 231.937C345.334 232.53 344.212 233.387 343.307 234.51C342.403 235.632 341.717 236.973 341.249 238.532C340.782 240.06 340.548 241.759 340.548 243.63C340.548 245.501 340.782 247.216 341.249 248.775C341.717 250.303 342.403 251.628 343.307 252.751C344.212 253.873 345.334 254.746 346.675 255.37C348.016 255.962 349.559 256.258 351.305 256.258C352.584 256.258 353.691 256.102 354.626 255.791C355.593 255.448 356.403 254.996 357.058 254.434C357.744 253.873 358.29 253.234 358.695 252.517C359.132 251.768 359.475 250.989 359.724 250.178L360.192 249.71H363.933L364.401 250.178C364.152 251.581 363.699 252.906 363.045 254.154C362.421 255.401 361.564 256.492 360.472 257.428C359.412 258.363 358.118 259.111 356.59 259.673C355.062 260.203 353.301 260.468 351.305 260.468ZM385.468 260H382.194L381.726 259.532L381.259 257.661H380.791C380.011 258.597 379.045 259.298 377.891 259.766C376.769 260.234 375.553 260.468 374.243 260.468C371.624 260.468 369.644 259.813 368.303 258.503C366.962 257.163 366.292 255.323 366.292 252.984C366.292 251.706 366.541 250.599 367.04 249.664C367.539 248.697 368.241 247.918 369.145 247.325C370.049 246.701 371.125 246.249 372.372 245.969C373.651 245.657 375.054 245.501 376.582 245.501C377.299 245.501 378.031 245.548 378.78 245.641C379.528 245.735 380.198 245.844 380.791 245.969L381.259 245.501V244.566C381.259 242.913 380.884 241.806 380.136 241.245C379.419 240.652 378.234 240.356 376.582 240.356C374.898 240.356 373.697 240.59 372.98 241.058C372.263 241.526 371.904 242.227 371.904 243.162L371.437 243.63H367.695L367.227 243.162C367.227 242.352 367.383 241.526 367.695 240.684C368.007 239.842 368.521 239.093 369.239 238.439C369.987 237.753 370.953 237.207 372.138 236.802C373.354 236.365 374.835 236.147 376.582 236.147C378.328 236.147 379.793 236.365 380.978 236.802C382.194 237.207 383.161 237.831 383.878 238.672C384.626 239.514 385.156 240.59 385.468 241.9C385.78 243.178 385.936 244.69 385.936 246.436V259.532L385.468 260ZM381.259 250.178L380.791 249.71C380.074 249.523 379.419 249.399 378.827 249.336C378.234 249.274 377.642 249.243 377.049 249.243C374.898 249.243 373.339 249.57 372.372 250.225C371.437 250.88 370.969 251.8 370.969 252.984C370.969 254.169 371.312 255.011 371.998 255.51C372.715 256.009 373.775 256.258 375.178 256.258C377.049 256.258 378.53 255.837 379.622 254.996C380.713 254.122 381.259 252.984 381.259 251.581V250.178ZM409.321 260H405.579L405.112 259.532V245.969C405.112 245.376 405.065 244.753 404.971 244.098C404.878 243.443 404.66 242.835 404.317 242.274C404.005 241.713 403.537 241.26 402.914 240.917C402.321 240.543 401.495 240.356 400.435 240.356C398.283 240.356 396.724 240.98 395.758 242.227C394.822 243.443 394.354 245.47 394.354 248.307V259.532L393.887 260H390.145L389.677 259.532V237.082L390.145 236.615H393.419L393.887 237.082L394.354 238.953H394.822C395.508 238.049 396.381 237.363 397.441 236.895C398.501 236.396 399.655 236.147 400.902 236.147C402.524 236.147 403.896 236.396 405.018 236.895C406.172 237.394 407.092 238.08 407.778 238.953C408.495 239.826 409.009 240.871 409.321 242.087C409.633 243.272 409.789 244.566 409.789 245.969V259.532L409.321 260ZM431.305 260H428.031L427.564 259.532L427.096 257.661H426.628C425.849 258.597 424.882 259.298 423.728 259.766C422.606 260.234 421.39 260.468 420.08 260.468C417.461 260.468 415.481 259.813 414.14 258.503C412.8 257.163 412.129 255.323 412.129 252.984C412.129 251.706 412.379 250.599 412.878 249.664C413.376 248.697 414.078 247.918 414.982 247.325C415.886 246.701 416.962 246.249 418.209 245.969C419.488 245.657 420.891 245.501 422.419 245.501C423.136 245.501 423.869 245.548 424.617 245.641C425.365 245.735 426.036 245.844 426.628 245.969L427.096 245.501V244.566C427.096 242.913 426.722 241.806 425.973 241.245C425.256 240.652 424.071 240.356 422.419 240.356C420.735 240.356 419.535 240.59 418.817 241.058C418.1 241.526 417.742 242.227 417.742 243.162L417.274 243.63H413.532L413.065 243.162C413.065 242.352 413.221 241.526 413.532 240.684C413.844 239.842 414.359 239.093 415.076 238.439C415.824 237.753 416.791 237.207 417.976 236.802C419.192 236.365 420.673 236.147 422.419 236.147C424.165 236.147 425.63 236.365 426.815 236.802C428.031 237.207 428.998 237.831 429.715 238.672C430.463 239.514 430.993 240.59 431.305 241.9C431.617 243.178 431.773 244.69 431.773 246.436V259.532L431.305 260ZM427.096 250.178L426.628 249.71C425.911 249.523 425.256 249.399 424.664 249.336C424.071 249.274 423.479 249.243 422.887 249.243C420.735 249.243 419.176 249.57 418.209 250.225C417.274 250.88 416.806 251.8 416.806 252.984C416.806 254.169 417.149 255.011 417.835 255.51C418.552 256.009 419.613 256.258 421.016 256.258C422.887 256.258 424.368 255.837 425.459 254.996C426.55 254.122 427.096 252.984 427.096 251.581V250.178ZM455.158 260H451.884L451.417 259.532L450.949 257.661H450.481C449.764 258.566 448.875 259.267 447.815 259.766C446.786 260.234 445.648 260.468 444.401 260.468C442.749 260.468 441.283 260.171 440.005 259.579C438.757 258.955 437.682 258.114 436.777 257.053C435.904 255.962 435.234 254.668 434.766 253.171C434.33 251.675 434.111 250.053 434.111 248.307C434.111 246.561 434.33 244.94 434.766 243.443C435.234 241.946 435.904 240.668 436.777 239.608C437.682 238.517 438.757 237.675 440.005 237.082C441.283 236.459 442.749 236.147 444.401 236.147C445.586 236.147 446.708 236.381 447.769 236.848C448.86 237.316 449.764 238.018 450.481 238.953H450.949V227.728L451.417 227.26H455.158L455.626 227.728V259.532L455.158 260ZM450.949 248.307C450.949 245.501 450.403 243.474 449.312 242.227C448.221 240.98 446.74 240.356 444.869 240.356C442.998 240.356 441.517 241.027 440.426 242.367C439.334 243.708 438.789 245.688 438.789 248.307C438.789 250.926 439.334 252.906 440.426 254.247C441.517 255.588 442.998 256.258 444.869 256.258C446.74 256.258 448.221 255.635 449.312 254.387C450.403 253.14 450.949 251.114 450.949 248.307ZM477.599 260H474.325L473.858 259.532L473.39 257.661H472.922C472.143 258.597 471.176 259.298 470.022 259.766C468.9 260.234 467.684 260.468 466.374 260.468C463.755 260.468 461.775 259.813 460.434 258.503C459.094 257.163 458.423 255.323 458.423 252.984C458.423 251.706 458.673 250.599 459.172 249.664C459.67 248.697 460.372 247.918 461.276 247.325C462.18 246.701 463.256 246.249 464.503 245.969C465.782 245.657 467.185 245.501 468.713 245.501C469.43 245.501 470.163 245.548 470.911 245.641C471.659 245.735 472.33 245.844 472.922 245.969L473.39 245.501V244.566C473.39 242.913 473.016 241.806 472.267 241.245C471.55 240.652 470.365 240.356 468.713 240.356C467.029 240.356 465.829 240.59 465.111 241.058C464.394 241.526 464.036 242.227 464.036 243.162L463.568 243.63H459.826L459.359 243.162C459.359 242.352 459.515 241.526 459.826 240.684C460.138 239.842 460.653 239.093 461.37 238.439C462.118 237.753 463.085 237.207 464.27 236.802C465.486 236.365 466.967 236.147 468.713 236.147C470.459 236.147 471.924 236.365 473.109 236.802C474.325 237.207 475.292 237.831 476.009 238.672C476.757 239.514 477.287 240.59 477.599 241.9C477.911 243.178 478.067 244.69 478.067 246.436V259.532L477.599 260ZM473.39 250.178L472.922 249.71C472.205 249.523 471.55 249.399 470.958 249.336C470.365 249.274 469.773 249.243 469.18 249.243C467.029 249.243 465.47 249.57 464.503 250.225C463.568 250.88 463.1 251.8 463.1 252.984C463.1 254.169 463.443 255.011 464.129 255.51C464.846 256.009 465.907 256.258 467.31 256.258C469.18 256.258 470.662 255.837 471.753 254.996C472.844 254.122 473.39 252.984 473.39 251.581V250.178ZM519.214 236.615C519.214 238.267 518.934 239.686 518.372 240.871C517.842 242.024 517.094 242.991 516.127 243.771C515.161 244.519 514.023 245.08 512.713 245.454C511.404 245.797 509.985 245.969 508.457 245.969H498.635L498.167 246.436V259.532L497.7 260H493.958L493.49 259.532V227.728L493.958 227.26H508.457C511.731 227.26 514.335 228.009 516.268 229.505C518.232 230.971 519.214 233.341 519.214 236.615ZM514.537 236.615C514.537 234.744 514.054 233.419 513.087 232.639C512.121 231.86 510.577 231.47 508.457 231.47H498.635L498.167 231.937V241.292L498.635 241.759H508.457C510.577 241.759 512.121 241.37 513.087 240.59C514.054 239.811 514.537 238.485 514.537 236.615ZM519.255 248.307C519.255 246.436 519.504 244.753 520.003 243.256C520.533 241.759 521.281 240.481 522.248 239.421C523.214 238.361 524.384 237.55 525.756 236.989C527.159 236.427 528.733 236.147 530.48 236.147C532.226 236.147 533.785 236.427 535.157 236.989C536.56 237.55 537.745 238.361 538.711 239.421C539.678 240.481 540.411 241.759 540.909 243.256C541.439 244.753 541.705 246.436 541.705 248.307C541.705 250.178 541.439 251.862 540.909 253.359C540.411 254.855 539.678 256.134 538.711 257.194C537.745 258.254 536.56 259.065 535.157 259.626C533.785 260.187 532.226 260.468 530.48 260.468C528.733 260.468 527.159 260.187 525.756 259.626C524.384 259.065 523.214 258.254 522.248 257.194C521.281 256.134 520.533 254.855 520.003 253.359C519.504 251.862 519.255 250.178 519.255 248.307ZM523.932 248.307C523.932 250.895 524.493 252.875 525.615 254.247C526.738 255.588 528.359 256.258 530.48 256.258C532.6 256.258 534.221 255.588 535.344 254.247C536.466 252.875 537.027 250.895 537.027 248.307C537.027 245.719 536.466 243.755 535.344 242.414C534.221 241.042 532.6 240.356 530.48 240.356C528.359 240.356 526.738 241.042 525.615 242.414C524.493 243.755 523.932 245.719 523.932 248.307ZM561.818 253.452C561.818 254.387 561.631 255.276 561.257 256.118C560.914 256.96 560.352 257.708 559.573 258.363C558.824 259.018 557.858 259.532 556.673 259.906C555.488 260.281 554.085 260.468 552.464 260.468C549.408 260.468 547.085 259.797 545.495 258.457C543.905 257.085 543.109 255.105 543.109 252.517L543.577 252.049H547.319L547.787 252.517C547.787 253.702 548.145 254.621 548.862 255.276C549.611 255.931 550.811 256.258 552.464 256.258C554.116 256.258 555.301 256.024 556.018 255.557C556.767 255.089 557.141 254.387 557.141 253.452C557.141 252.86 557.032 252.376 556.813 252.002C556.626 251.628 556.299 251.316 555.831 251.067C555.363 250.786 554.74 250.552 553.96 250.365C553.181 250.178 552.214 249.96 551.061 249.71C549.876 249.492 548.816 249.196 547.88 248.822C546.976 248.448 546.196 247.98 545.542 247.419C544.918 246.857 544.435 246.203 544.092 245.454C543.749 244.675 543.577 243.755 543.577 242.695C543.577 241.884 543.733 241.089 544.045 240.309C544.357 239.499 544.856 238.797 545.542 238.205C546.259 237.581 547.179 237.082 548.301 236.708C549.424 236.334 550.811 236.147 552.464 236.147C553.742 236.147 554.927 236.303 556.018 236.615C557.11 236.895 558.045 237.332 558.824 237.924C559.635 238.485 560.259 239.218 560.695 240.122C561.132 240.995 561.35 242.009 561.35 243.162L560.882 243.63H557.141L556.673 243.162C556.673 242.82 556.611 242.477 556.486 242.134C556.361 241.791 556.127 241.494 555.784 241.245C555.473 240.964 555.036 240.746 554.475 240.59C553.945 240.434 553.274 240.356 552.464 240.356C551.279 240.356 550.281 240.512 549.47 240.824C548.66 241.136 548.254 241.759 548.254 242.695C548.254 243.287 548.379 243.771 548.628 244.145C548.878 244.519 549.252 244.846 549.751 245.127C550.281 245.376 550.951 245.61 551.762 245.828C552.604 246.016 553.617 246.218 554.802 246.436C557.141 246.904 558.887 247.668 560.041 248.728C561.225 249.757 561.818 251.332 561.818 253.452ZM577.25 260H573.509C572.698 260 571.887 259.891 571.077 259.673C570.297 259.423 569.596 259.049 568.972 258.55C568.379 258.051 567.896 257.428 567.522 256.679C567.148 255.9 566.961 254.98 566.961 253.92V241.292L566.493 240.824H563.219L562.751 240.356V237.082L563.219 236.615H566.493L566.961 236.147V231.937L567.428 231.47H571.17L571.638 231.937V236.147L572.106 236.615H577.25L577.718 237.082V240.356L577.25 240.824H572.106L571.638 241.292V253.92C571.638 254.637 571.825 255.136 572.199 255.416C572.604 255.666 573.041 255.791 573.509 255.791H577.25L577.718 256.258V259.532L577.25 260ZM587.078 234.276L584.271 238.018L583.336 238.485H581.465V238.018L584.271 233.808V233.341L583.804 232.873H582.401L581.933 232.405V227.728L582.401 227.26H587.078L587.545 227.728V232.873L587.078 234.276ZM608.627 253.452C608.627 254.387 608.44 255.276 608.066 256.118C607.723 256.96 607.162 257.708 606.382 258.363C605.634 259.018 604.667 259.532 603.482 259.906C602.297 260.281 600.894 260.468 599.273 260.468C596.217 260.468 593.894 259.797 592.304 258.457C590.714 257.085 589.919 255.105 589.919 252.517L590.386 252.049H594.128L594.596 252.517C594.596 253.702 594.954 254.621 595.671 255.276C596.42 255.931 597.62 256.258 599.273 256.258C600.925 256.258 602.11 256.024 602.827 255.557C603.576 255.089 603.95 254.387 603.95 253.452C603.95 252.86 603.841 252.376 603.623 252.002C603.435 251.628 603.108 251.316 602.64 251.067C602.173 250.786 601.549 250.552 600.769 250.365C599.99 250.178 599.023 249.96 597.87 249.71C596.685 249.492 595.625 249.196 594.689 248.822C593.785 248.448 593.006 247.98 592.351 247.419C591.727 246.857 591.244 246.203 590.901 245.454C590.558 244.675 590.386 243.755 590.386 242.695C590.386 241.884 590.542 241.089 590.854 240.309C591.166 239.499 591.665 238.797 592.351 238.205C593.068 237.581 593.988 237.082 595.11 236.708C596.233 236.334 597.62 236.147 599.273 236.147C600.551 236.147 601.736 236.303 602.827 236.615C603.919 236.895 604.854 237.332 605.634 237.924C606.444 238.485 607.068 239.218 607.504 240.122C607.941 240.995 608.159 242.009 608.159 243.162L607.692 243.63H603.95L603.482 243.162C603.482 242.82 603.42 242.477 603.295 242.134C603.17 241.791 602.937 241.494 602.594 241.245C602.282 240.964 601.845 240.746 601.284 240.59C600.754 240.434 600.084 240.356 599.273 240.356C598.088 240.356 597.09 240.512 596.279 240.824C595.469 241.136 595.063 241.759 595.063 242.695C595.063 243.287 595.188 243.771 595.438 244.145C595.687 244.519 596.061 244.846 596.56 245.127C597.09 245.376 597.761 245.61 598.571 245.828C599.413 246.016 600.427 246.218 601.611 246.436C603.95 246.904 605.696 247.668 606.85 248.728C608.035 249.757 608.627 251.332 608.627 253.452ZM637.144 245.969C637.144 245.626 637.082 245.142 636.957 244.519C636.864 243.864 636.63 243.24 636.256 242.648C635.882 242.024 635.32 241.494 634.572 241.058C633.824 240.59 632.81 240.356 631.532 240.356C630.254 240.356 629.24 240.59 628.492 241.058C627.743 241.494 627.182 242.024 626.808 242.648C626.434 243.24 626.184 243.864 626.06 244.519C625.966 245.142 625.919 245.626 625.919 245.969L626.387 246.436H636.677L637.144 245.969ZM632 260.468C630.129 260.468 628.492 260.171 627.089 259.579C625.686 258.955 624.516 258.114 623.581 257.053C622.645 255.962 621.944 254.668 621.476 253.171C621.008 251.675 620.775 250.053 620.775 248.307C620.775 246.686 620.977 245.142 621.383 243.677C621.819 242.18 622.474 240.886 623.347 239.795C624.22 238.672 625.327 237.784 626.668 237.129C628.04 236.474 629.661 236.147 631.532 236.147C633.403 236.147 635.009 236.474 636.349 237.129C637.721 237.784 638.844 238.672 639.717 239.795C640.59 240.886 641.229 242.18 641.634 243.677C642.071 245.142 642.289 246.686 642.289 248.307V249.71L641.821 250.178H626.387L625.919 250.646C625.919 250.895 625.966 251.332 626.06 251.955C626.184 252.548 626.449 253.171 626.855 253.826C627.26 254.45 627.868 255.011 628.679 255.51C629.49 256.009 630.596 256.258 632 256.258C632.467 256.258 632.919 256.227 633.356 256.165C633.824 256.071 634.26 255.931 634.666 255.744C635.102 255.526 635.476 255.245 635.788 254.902C636.131 254.528 636.427 254.045 636.677 253.452L637.144 252.984H640.886L641.354 253.452C641.229 254.387 640.933 255.276 640.465 256.118C640.029 256.96 639.405 257.708 638.594 258.363C637.815 259.018 636.864 259.532 635.741 259.906C634.65 260.281 633.403 260.468 632 260.468ZM662.857 260H661.454L660.519 259.532L653.503 251.581H653.036L646.02 259.532L645.085 260H643.681L643.214 259.532V256.258L650.229 248.307V247.84L643.681 240.356V237.082L644.149 236.615H645.552L646.488 237.082L653.036 244.566H653.503L660.051 237.082L660.987 236.615H662.39L662.857 237.082V240.356L656.31 247.84V248.307L663.325 256.258V259.532L662.857 260ZM670.352 232.873H666.61L666.142 232.405V228.664L666.61 228.196H670.352L670.819 228.664V232.405L670.352 232.873ZM670.352 260H666.61L666.142 259.532V237.082L666.61 236.615H670.352L670.819 237.082V259.532L670.352 260ZM692.321 253.452C692.321 254.387 692.134 255.276 691.76 256.118C691.417 256.96 690.856 257.708 690.076 258.363C689.328 259.018 688.361 259.532 687.176 259.906C685.992 260.281 684.588 260.468 682.967 260.468C679.911 260.468 677.588 259.797 675.998 258.457C674.408 257.085 673.613 255.105 673.613 252.517L674.081 252.049H677.822L678.29 252.517C678.29 253.702 678.649 254.621 679.366 255.276C680.114 255.931 681.314 256.258 682.967 256.258C684.62 256.258 685.804 256.024 686.522 255.557C687.27 255.089 687.644 254.387 687.644 253.452C687.644 252.86 687.535 252.376 687.317 252.002C687.13 251.628 686.802 251.316 686.335 251.067C685.867 250.786 685.243 250.552 684.464 250.365C683.684 250.178 682.718 249.96 681.564 249.71C680.379 249.492 679.319 249.196 678.383 248.822C677.479 248.448 676.7 247.98 676.045 247.419C675.421 246.857 674.938 246.203 674.595 245.454C674.252 244.675 674.081 243.755 674.081 242.695C674.081 241.884 674.236 241.089 674.548 240.309C674.86 239.499 675.359 238.797 676.045 238.205C676.762 237.581 677.682 237.082 678.804 236.708C679.927 236.334 681.314 236.147 682.967 236.147C684.245 236.147 685.43 236.303 686.522 236.615C687.613 236.895 688.548 237.332 689.328 237.924C690.139 238.485 690.762 239.218 691.199 240.122C691.635 240.995 691.853 242.009 691.853 243.162L691.386 243.63H687.644L687.176 243.162C687.176 242.82 687.114 242.477 686.989 242.134C686.865 241.791 686.631 241.494 686.288 241.245C685.976 240.964 685.539 240.746 684.978 240.59C684.448 240.434 683.778 240.356 682.967 240.356C681.782 240.356 680.784 240.512 679.974 240.824C679.163 241.136 678.758 241.759 678.758 242.695C678.758 243.287 678.882 243.771 679.132 244.145C679.381 244.519 679.755 244.846 680.254 245.127C680.784 245.376 681.455 245.61 682.265 245.828C683.107 246.016 684.121 246.218 685.306 246.436C687.644 246.904 689.39 247.668 690.544 248.728C691.729 249.757 692.321 251.332 692.321 253.452ZM707.754 260H704.012C703.201 260 702.391 259.891 701.58 259.673C700.8 259.423 700.099 259.049 699.475 258.55C698.883 258.051 698.4 257.428 698.025 256.679C697.651 255.9 697.464 254.98 697.464 253.92V241.292L696.996 240.824H693.722L693.255 240.356V237.082L693.722 236.615H696.996L697.464 236.147V231.937L697.932 231.47H701.674L702.141 231.937V236.147L702.609 236.615H707.754L708.221 237.082V240.356L707.754 240.824H702.609L702.141 241.292V253.92C702.141 254.637 702.328 255.136 702.702 255.416C703.108 255.666 703.544 255.791 704.012 255.791H707.754L708.221 256.258V259.532L707.754 260ZM715.699 232.873H711.958L711.49 232.405V228.664L711.958 228.196H715.699L716.167 228.664V232.405L715.699 232.873ZM715.699 260H711.958L711.49 259.532V237.082L711.958 236.615H715.699L716.167 237.082V259.532L715.699 260ZM740.007 260H736.266L735.798 259.532V245.969C735.798 245.376 735.751 244.753 735.658 244.098C735.564 243.443 735.346 242.835 735.003 242.274C734.691 241.713 734.223 241.26 733.6 240.917C733.007 240.543 732.181 240.356 731.121 240.356C728.969 240.356 727.41 240.98 726.444 242.227C725.508 243.443 725.041 245.47 725.041 248.307V259.532L724.573 260H720.831L720.364 259.532V237.082L720.831 236.615H724.105L724.573 237.082L725.041 238.953H725.508C726.194 238.049 727.067 237.363 728.128 236.895C729.188 236.396 730.341 236.147 731.589 236.147C733.21 236.147 734.582 236.396 735.704 236.895C736.858 237.394 737.778 238.08 738.464 238.953C739.181 239.826 739.696 240.871 740.007 242.087C740.319 243.272 740.475 244.566 740.475 245.969V259.532L740.007 260ZM753.573 265.613C755.724 265.613 757.268 264.942 758.203 263.601C759.17 262.261 759.653 260.281 759.653 257.661H759.185C758.468 258.566 757.579 259.267 756.519 259.766C755.49 260.234 754.352 260.468 753.105 260.468C751.452 260.468 749.987 260.171 748.709 259.579C747.461 258.955 746.386 258.114 745.481 257.053C744.608 255.962 743.938 254.668 743.47 253.171C743.034 251.675 742.815 250.053 742.815 248.307C742.815 246.561 743.034 244.94 743.47 243.443C743.938 241.946 744.608 240.668 745.481 239.608C746.386 238.517 747.461 237.675 748.709 237.082C749.987 236.459 751.452 236.147 753.105 236.147C754.29 236.147 755.412 236.381 756.473 236.848C757.564 237.316 758.468 238.018 759.185 238.953H759.653L760.121 237.082L760.588 236.615H763.862L764.33 237.082V257.194C764.33 259.532 764.034 261.497 763.441 263.087C762.849 264.708 762.054 266.018 761.056 267.016C760.058 268.013 758.905 268.731 757.595 269.167C756.317 269.604 754.976 269.822 753.573 269.822C750.735 269.822 748.521 269.198 746.931 267.951C745.372 266.704 744.468 265.145 744.219 263.274L744.686 262.806H748.428L748.896 263.274C749.363 264.209 749.956 264.833 750.673 265.145C751.421 265.457 752.388 265.613 753.573 265.613ZM759.653 248.307C759.653 245.501 759.107 243.474 758.016 242.227C756.925 240.98 755.444 240.356 753.573 240.356C751.702 240.356 750.221 241.027 749.13 242.367C748.038 243.708 747.493 245.688 747.493 248.307C747.493 250.926 748.038 252.906 749.13 254.247C750.221 255.588 751.702 256.258 753.573 256.258C755.444 256.258 756.925 255.635 758.016 254.387C759.107 253.14 759.653 251.114 759.653 248.307ZM783.486 232.873H779.744L779.277 232.405V228.664L779.744 228.196H783.486L783.954 228.664V232.405L783.486 232.873ZM783.486 260H779.744L779.277 259.532V237.082L779.744 236.615H783.486L783.954 237.082V259.532L783.486 260ZM807.794 260H804.052L803.585 259.532V245.969C803.585 245.376 803.538 244.753 803.444 244.098C803.351 243.443 803.133 242.835 802.79 242.274C802.478 241.713 802.01 241.26 801.386 240.917C800.794 240.543 799.968 240.356 798.908 240.356C796.756 240.356 795.197 240.98 794.23 242.227C793.295 243.443 792.827 245.47 792.827 248.307V259.532L792.36 260H788.618L788.15 259.532V237.082L788.618 236.615H791.892L792.36 237.082L792.827 238.953H793.295C793.981 238.049 794.854 237.363 795.914 236.895C796.974 236.396 798.128 236.147 799.375 236.147C800.997 236.147 802.369 236.396 803.491 236.895C804.645 237.394 805.565 238.08 806.251 238.953C806.968 239.826 807.482 240.871 807.794 242.087C808.106 243.272 808.262 244.566 808.262 245.969V259.532L807.794 260ZM824.177 240.824H819.5L819.032 241.292V259.532L818.564 260H814.822L814.355 259.532V241.292L813.887 240.824H810.613L810.145 240.356V237.082L810.613 236.615H813.887L814.355 236.147V234.276C814.355 233.216 814.542 232.312 814.916 231.563C815.29 230.784 815.773 230.145 816.366 229.646C816.989 229.147 817.691 228.788 818.471 228.57C819.281 228.321 820.092 228.196 820.903 228.196H824.644L825.112 228.664V231.937L824.644 232.405H820.903C820.435 232.405 819.998 232.546 819.593 232.826C819.219 233.076 819.032 233.559 819.032 234.276V236.147L819.5 236.615H824.177L824.644 237.082V240.356L824.177 240.824ZM840.552 240.824H838.213C837.278 240.824 836.436 240.933 835.688 241.151C834.939 241.338 834.3 241.697 833.77 242.227C833.24 242.757 832.835 243.474 832.554 244.379C832.273 245.283 832.133 246.436 832.133 247.84V259.532L831.665 260H827.924L827.456 259.532V237.082L827.924 236.615H831.198L831.665 237.082L832.133 238.953H832.601C832.944 238.61 833.302 238.298 833.677 238.018C834.051 237.706 834.472 237.456 834.939 237.269C835.407 237.051 835.937 236.895 836.53 236.802C837.153 236.677 837.87 236.615 838.681 236.615H840.552L841.02 237.082V240.356L840.552 240.824ZM860.223 260H856.949L856.481 259.532L856.014 257.661H855.546C854.766 258.597 853.8 259.298 852.646 259.766C851.524 260.234 850.308 260.468 848.998 260.468C846.379 260.468 844.399 259.813 843.058 258.503C841.717 257.163 841.047 255.323 841.047 252.984C841.047 251.706 841.296 250.599 841.795 249.664C842.294 248.697 842.996 247.918 843.9 247.325C844.804 246.701 845.88 246.249 847.127 245.969C848.406 245.657 849.809 245.501 851.337 245.501C852.054 245.501 852.786 245.548 853.535 245.641C854.283 245.735 854.954 245.844 855.546 245.969L856.014 245.501V244.566C856.014 242.913 855.639 241.806 854.891 241.245C854.174 240.652 852.989 240.356 851.337 240.356C849.653 240.356 848.452 240.59 847.735 241.058C847.018 241.526 846.659 242.227 846.659 243.162L846.192 243.63H842.45L841.982 243.162C841.982 242.352 842.138 241.526 842.45 240.684C842.762 239.842 843.276 239.093 843.994 238.439C844.742 237.753 845.708 237.207 846.893 236.802C848.109 236.365 849.59 236.147 851.337 236.147C853.083 236.147 854.548 236.365 855.733 236.802C856.949 237.207 857.916 237.831 858.633 238.672C859.381 239.514 859.911 240.59 860.223 241.9C860.535 243.178 860.691 244.69 860.691 246.436V259.532L860.223 260ZM856.014 250.178L855.546 249.71C854.829 249.523 854.174 249.399 853.582 249.336C852.989 249.274 852.397 249.243 851.804 249.243C849.653 249.243 848.094 249.57 847.127 250.225C846.192 250.88 845.724 251.8 845.724 252.984C845.724 254.169 846.067 255.011 846.753 255.51C847.47 256.009 848.53 256.258 849.933 256.258C851.804 256.258 853.285 255.837 854.377 254.996C855.468 254.122 856.014 252.984 856.014 251.581V250.178ZM881.738 253.452C881.738 254.387 881.551 255.276 881.176 256.118C880.833 256.96 880.272 257.708 879.493 258.363C878.744 259.018 877.778 259.532 876.593 259.906C875.408 260.281 874.005 260.468 872.383 260.468C869.328 260.468 867.005 259.797 865.415 258.457C863.824 257.085 863.029 255.105 863.029 252.517L863.497 252.049H867.239L867.706 252.517C867.706 253.702 868.065 254.621 868.782 255.276C869.53 255.931 870.731 256.258 872.383 256.258C874.036 256.258 875.221 256.024 875.938 255.557C876.686 255.089 877.061 254.387 877.061 253.452C877.061 252.86 876.951 252.376 876.733 252.002C876.546 251.628 876.219 251.316 875.751 251.067C875.283 250.786 874.66 250.552 873.88 250.365C873.101 250.178 872.134 249.96 870.98 249.71C869.795 249.492 868.735 249.196 867.8 248.822C866.896 248.448 866.116 247.98 865.461 247.419C864.838 246.857 864.354 246.203 864.011 245.454C863.668 244.675 863.497 243.755 863.497 242.695C863.497 241.884 863.653 241.089 863.965 240.309C864.277 239.499 864.775 238.797 865.461 238.205C866.179 237.581 867.098 237.082 868.221 236.708C869.343 236.334 870.731 236.147 872.383 236.147C873.662 236.147 874.847 236.303 875.938 236.615C877.029 236.895 877.965 237.332 878.744 237.924C879.555 238.485 880.179 239.218 880.615 240.122C881.052 240.995 881.27 242.009 881.27 243.162L880.802 243.63H877.061L876.593 243.162C876.593 242.82 876.53 242.477 876.406 242.134C876.281 241.791 876.047 241.494 875.704 241.245C875.392 240.964 874.956 240.746 874.395 240.59C873.865 240.434 873.194 240.356 872.383 240.356C871.199 240.356 870.201 240.512 869.39 240.824C868.579 241.136 868.174 241.759 868.174 242.695C868.174 243.287 868.299 243.771 868.548 244.145C868.798 244.519 869.172 244.846 869.671 245.127C870.201 245.376 870.871 245.61 871.682 245.828C872.524 246.016 873.537 246.218 874.722 246.436C877.061 246.904 878.807 247.668 879.96 248.728C881.145 249.757 881.738 251.332 881.738 253.452ZM897.17 260H893.428C892.618 260 891.807 259.891 890.996 259.673C890.217 259.423 889.515 259.049 888.892 258.55C888.299 258.051 887.816 257.428 887.442 256.679C887.068 255.9 886.881 254.98 886.881 253.92V241.292L886.413 240.824H883.139L882.671 240.356V237.082L883.139 236.615H886.413L886.881 236.147V231.937L887.348 231.47H891.09L891.558 231.937V236.147L892.025 236.615H897.17L897.638 237.082V240.356L897.17 240.824H892.025L891.558 241.292V253.92C891.558 254.637 891.745 255.136 892.119 255.416C892.524 255.666 892.961 255.791 893.428 255.791H897.17L897.638 256.258V259.532L897.17 260ZM914.002 240.824H911.664C910.728 240.824 909.886 240.933 909.138 241.151C908.39 241.338 907.75 241.697 907.22 242.227C906.69 242.757 906.285 243.474 906.004 244.379C905.724 245.283 905.583 246.436 905.583 247.84V259.532L905.116 260H901.374L900.906 259.532V237.082L901.374 236.615H904.648L905.116 237.082L905.583 238.953H906.051C906.394 238.61 906.753 238.298 907.127 238.018C907.501 237.706 907.922 237.456 908.39 237.269C908.857 237.051 909.387 236.895 909.98 236.802C910.604 236.677 911.321 236.615 912.131 236.615H914.002L914.47 237.082V240.356L914.002 240.824ZM935.522 260H932.248L931.781 259.532L931.313 257.661H930.845C930.222 258.503 929.411 259.189 928.413 259.719C927.415 260.218 926.355 260.468 925.233 260.468C923.58 260.468 922.193 260.203 921.07 259.673C919.948 259.111 919.028 258.379 918.311 257.474C917.625 256.57 917.126 255.526 916.814 254.341C916.502 253.156 916.346 251.924 916.346 250.646V237.082L916.814 236.615H920.556L921.023 237.082V250.646C921.023 251.363 921.086 252.065 921.21 252.751C921.366 253.405 921.616 253.998 921.959 254.528C922.302 255.027 922.769 255.448 923.362 255.791C923.985 256.102 924.765 256.258 925.7 256.258C927.322 256.258 928.662 255.635 929.723 254.387C930.783 253.14 931.313 251.114 931.313 248.307V237.082L931.781 236.615H935.522L935.99 237.082V259.532L935.522 260ZM943.486 248.307C943.486 250.895 944.047 252.875 945.17 254.247C946.292 255.588 947.914 256.258 950.034 256.258C950.969 256.258 951.764 256.149 952.419 255.931C953.074 255.713 953.62 255.432 954.056 255.089C954.493 254.746 954.836 254.356 955.085 253.92C955.335 253.452 955.522 252.984 955.646 252.517L956.114 252.049H959.856L960.324 252.517C960.199 253.577 959.903 254.59 959.435 255.557C958.967 256.492 958.312 257.334 957.471 258.082C956.629 258.8 955.584 259.376 954.337 259.813C953.09 260.249 951.655 260.468 950.034 260.468C948.288 260.468 946.713 260.187 945.31 259.626C943.938 259.065 942.769 258.254 941.802 257.194C940.836 256.134 940.087 254.855 939.557 253.359C939.058 251.862 938.809 250.178 938.809 248.307C938.809 246.436 939.058 244.753 939.557 243.256C940.087 241.759 940.836 240.481 941.802 239.421C942.769 238.361 943.938 237.55 945.31 236.989C946.713 236.427 948.288 236.147 950.034 236.147C951.655 236.147 953.09 236.365 954.337 236.802C955.584 237.238 956.629 237.831 957.471 238.579C958.312 239.296 958.967 240.138 959.435 241.105C959.903 242.04 960.199 243.038 960.324 244.098L959.856 244.566H956.114L955.646 244.098C955.522 243.63 955.335 243.178 955.085 242.742C954.836 242.274 954.493 241.869 954.056 241.526C953.62 241.183 953.074 240.902 952.419 240.684C951.764 240.465 950.969 240.356 950.034 240.356C947.914 240.356 946.292 241.042 945.17 242.414C944.047 243.755 943.486 245.719 943.486 248.307ZM975.279 260H971.538C970.727 260 969.916 259.891 969.106 259.673C968.326 259.423 967.624 259.049 967.001 258.55C966.408 258.051 965.925 257.428 965.551 256.679C965.177 255.9 964.99 254.98 964.99 253.92V241.292L964.522 240.824H961.248L960.78 240.356V237.082L961.248 236.615H964.522L964.99 236.147V231.937L965.457 231.47H969.199L969.667 231.937V236.147L970.134 236.615H975.279L975.747 237.082V240.356L975.279 240.824H970.134L969.667 241.292V253.92C969.667 254.637 969.854 255.136 970.228 255.416C970.633 255.666 971.07 255.791 971.538 255.791H975.279L975.747 256.258V259.532L975.279 260ZM997.724 260H994.45L993.982 259.532L993.514 257.661H993.047C992.423 258.503 991.612 259.189 990.615 259.719C989.617 260.218 988.557 260.468 987.434 260.468C985.782 260.468 984.394 260.203 983.272 259.673C982.149 259.111 981.229 258.379 980.512 257.474C979.826 256.57 979.327 255.526 979.015 254.341C978.704 253.156 978.548 251.924 978.548 250.646V237.082L979.015 236.615H982.757L983.225 237.082V250.646C983.225 251.363 983.287 252.065 983.412 252.751C983.568 253.405 983.817 253.998 984.16 254.528C984.503 255.027 984.971 255.448 985.563 255.791C986.187 256.102 986.966 256.258 987.902 256.258C989.523 256.258 990.864 255.635 991.924 254.387C992.984 253.14 993.514 251.114 993.514 248.307V237.082L993.982 236.615H997.724L998.191 237.082V259.532L997.724 260ZM1015.51 240.824H1013.17C1012.24 240.824 1011.39 240.933 1010.65 241.151C1009.9 241.338 1009.26 241.697 1008.73 242.227C1008.2 242.757 1007.79 243.474 1007.51 244.379C1007.23 245.283 1007.09 246.436 1007.09 247.84V259.532L1006.62 260H1002.88L1002.41 259.532V237.082L1002.88 236.615H1006.16L1006.62 237.082L1007.09 238.953H1007.56C1007.9 238.61 1008.26 238.298 1008.63 238.018C1009.01 237.706 1009.43 237.456 1009.9 237.269C1010.36 237.051 1010.89 236.895 1011.49 236.802C1012.11 236.677 1012.83 236.615 1013.64 236.615H1015.51L1015.98 237.082V240.356L1015.51 240.824ZM1031.87 245.969C1031.87 245.626 1031.81 245.142 1031.68 244.519C1031.59 243.864 1031.36 243.24 1030.98 242.648C1030.61 242.024 1030.05 241.494 1029.3 241.058C1028.55 240.59 1027.54 240.356 1026.26 240.356C1024.98 240.356 1023.97 240.59 1023.22 241.058C1022.47 241.494 1021.91 242.024 1021.54 242.648C1021.16 243.24 1020.91 243.864 1020.79 244.519C1020.69 245.142 1020.65 245.626 1020.65 245.969L1021.11 246.436H1031.4L1031.87 245.969ZM1026.73 260.468C1024.86 260.468 1023.22 260.171 1021.82 259.579C1020.41 258.955 1019.24 258.114 1018.31 257.053C1017.37 255.962 1016.67 254.668 1016.2 253.171C1015.74 251.675 1015.5 250.053 1015.5 248.307C1015.5 246.686 1015.7 245.142 1016.11 243.677C1016.55 242.18 1017.2 240.886 1018.07 239.795C1018.95 238.672 1020.05 237.784 1021.4 237.129C1022.77 236.474 1024.39 236.147 1026.26 236.147C1028.13 236.147 1029.74 236.474 1031.08 237.129C1032.45 237.784 1033.57 238.672 1034.44 239.795C1035.32 240.886 1035.96 242.18 1036.36 243.677C1036.8 245.142 1037.02 246.686 1037.02 248.307V249.71L1036.55 250.178H1021.11L1020.65 250.646C1020.65 250.895 1020.69 251.332 1020.79 251.955C1020.91 252.548 1021.18 253.171 1021.58 253.826C1021.99 254.45 1022.6 255.011 1023.41 255.51C1024.22 256.009 1025.32 256.258 1026.73 256.258C1027.19 256.258 1027.65 256.227 1028.08 256.165C1028.55 256.071 1028.99 255.931 1029.39 255.744C1029.83 255.526 1030.2 255.245 1030.52 254.902C1030.86 254.528 1031.15 254.045 1031.4 253.452L1031.87 252.984H1035.61L1036.08 253.452C1035.96 254.387 1035.66 255.276 1035.19 256.118C1034.76 256.96 1034.13 257.708 1033.32 258.363C1032.54 259.018 1031.59 259.532 1030.47 259.906C1029.38 260.281 1028.13 260.468 1026.73 260.468ZM1046.02 250.225C1046.02 248.853 1046.13 247.715 1046.35 246.811C1046.6 245.906 1046.94 245.142 1047.38 244.519C1047.81 243.864 1048.33 243.303 1048.92 242.835C1049.51 242.367 1050.17 241.869 1050.89 241.338C1051.38 240.964 1051.85 240.606 1052.29 240.263C1052.76 239.92 1053.16 239.546 1053.5 239.14C1053.88 238.735 1054.16 238.283 1054.35 237.784C1054.57 237.254 1054.67 236.63 1054.67 235.913C1054.67 234.479 1054.21 233.356 1053.27 232.546C1052.34 231.735 1051.15 231.329 1049.72 231.329C1047.97 231.329 1046.57 231.844 1045.51 232.873C1044.45 233.902 1043.9 235.336 1043.87 237.176H1037.84C1037.87 235.617 1038.15 234.167 1038.68 232.826C1039.21 231.454 1039.96 230.269 1040.92 229.272C1041.92 228.243 1043.15 227.432 1044.62 226.839C1046.08 226.247 1047.77 225.951 1049.67 225.951C1051.45 225.951 1053.04 226.2 1054.44 226.699C1055.87 227.198 1057.08 227.884 1058.04 228.757C1059.01 229.63 1059.74 230.675 1060.24 231.891C1060.77 233.076 1061.04 234.354 1061.04 235.726C1061.04 236.88 1060.89 237.877 1060.61 238.719C1060.33 239.561 1059.97 240.294 1059.54 240.917C1059.13 241.541 1058.67 242.087 1058.14 242.554C1057.61 242.991 1057.09 243.396 1056.59 243.771C1055.72 244.425 1054.97 244.987 1054.35 245.454C1053.72 245.891 1053.21 246.327 1052.8 246.764C1052.43 247.2 1052.15 247.684 1051.96 248.214C1051.81 248.713 1051.73 249.383 1051.73 250.225H1046.02ZM1045.46 253.218H1052.29V260H1045.46V253.218Z" fill="black"/>
</svg>
