<svg width="18" height="15" viewBox="0 0 18 15" fill="none" xmlns="http://www.w3.org/2000/svg">
<path d="M12.3514 12.989L12.8865 13.5242L12.3514 14.0593L11.8162 13.5242L12.3514 12.989ZM0.243243 1.6377C0.243243 1.21975 0.582054 0.880939 1 0.880939L7.81081 0.880938C8.22876 0.880938 8.56757 1.21975 8.56757 1.63769C8.56757 2.05564 8.22876 2.39445 7.81081 2.39445L1.75676 2.39445L1.75676 8.44851C1.75676 8.86645 1.41795 9.20526 1 9.20526C0.582055 9.20526 0.243243 8.86645 0.243243 8.44851L0.243243 1.6377ZM17.5351 8.87551L12.8865 13.5242L11.8162 12.4539L16.4649 7.80529L17.5351 8.87551ZM11.8162 13.5242L0.464892 2.1728L1.53511 1.10259L12.8865 12.4539L11.8162 13.5242Z" fill="black"/>
</svg>
