<svg width="83" height="83" viewBox="0 0 83 83" fill="none" xmlns="http://www.w3.org/2000/svg">
<path d="M59.8825 37.0598C59.8825 36.0009 59.0354 35.1538 57.9765 35.1538C56.9599 35.1538 56.0705 36.0009 56.0705 37.0598C56.0705 38.0763 56.9599 38.9658 57.9765 38.9658C59.0354 38.9658 59.8825 38.0763 59.8825 37.0598ZM54.8845 37.0598C54.8845 36.0009 54.0374 35.1538 52.9785 35.1538C51.9196 35.1538 51.0725 36.0009 51.0725 37.0598C51.0725 38.0763 51.9196 38.9658 52.9785 38.9658C54.0374 38.9658 54.8845 38.0763 54.8845 37.0598ZM59.8825 42.0578C59.8825 40.9989 59.0354 40.1517 57.9765 40.1517C56.9599 40.1517 56.0705 40.9989 56.0705 42.0578C56.0705 43.1166 56.9599 43.9638 57.9765 43.9638C59.0354 43.9638 59.8825 43.1166 59.8825 42.0578ZM39.8483 27.0215C39.8483 25.9626 39.0011 25.1155 37.9422 25.1155C36.8834 25.1155 36.0362 25.9626 36.0362 27.0215C36.0362 28.0804 36.8834 28.9275 37.9422 28.9275C39.0011 28.9275 39.8483 28.0804 39.8483 27.0215ZM49.8865 37.0598C49.8865 36.0009 49.0394 35.1538 47.9805 35.1538C46.9216 35.1538 46.0745 36.0009 46.0745 37.0598C46.0745 38.0763 46.9216 38.9658 47.9805 38.9658C49.0394 38.9658 49.8865 38.0763 49.8865 37.0598ZM54.8845 42.0578C54.8845 40.9989 54.0374 40.1517 52.9785 40.1517C51.9196 40.1517 51.0725 40.9989 51.0725 42.0578C51.0725 43.1166 51.9196 43.9638 52.9785 43.9638C54.0374 43.9638 54.8845 43.1166 54.8845 42.0578ZM59.8825 47.0557C59.8825 46.0392 59.0354 45.1497 57.9765 45.1497C56.9599 45.1497 56.0705 46.0392 56.0705 47.0557C56.0705 48.1146 56.9599 48.9617 57.9765 48.9617C59.0354 48.9617 59.8825 48.1146 59.8825 47.0557ZM39.8483 32.0195C39.8483 30.9606 39.0011 30.1135 37.9422 30.1135C36.8834 30.1135 36.0362 30.9606 36.0362 32.0195C36.0362 33.0784 36.8834 33.9255 37.9422 33.9255C39.0011 33.9255 39.8483 33.0784 39.8483 32.0195ZM49.8865 42.0578C49.8865 40.9989 49.0394 40.1517 47.9805 40.1517C46.9216 40.1517 46.0745 40.9989 46.0745 42.0578C46.0745 43.1166 46.9216 43.9638 47.9805 43.9638C49.0394 43.9638 49.8865 43.1166 49.8865 42.0578ZM54.8845 47.0557C54.8845 46.0392 54.0374 45.1497 52.9785 45.1497C51.9196 45.1497 51.0725 46.0392 51.0725 47.0557C51.0725 48.1146 51.9196 48.9617 52.9785 48.9617C54.0374 48.9617 54.8845 48.1146 54.8845 47.0557ZM44.8462 37.0598C44.8462 36.0009 43.9991 35.1538 42.9402 35.1538C41.9237 35.1538 41.0342 36.0009 41.0342 37.0598C41.0342 38.0763 41.9237 38.9658 42.9402 38.9658C43.9991 38.9658 44.8462 38.0763 44.8462 37.0598ZM34.8503 32.0195C34.8503 30.9606 33.9608 30.1135 32.9443 30.1135C31.8854 30.1135 31.0383 30.9606 31.0383 32.0195C31.0383 33.0784 31.8854 33.9255 32.9443 33.9255C33.9608 33.9255 34.8503 33.0784 34.8503 32.0195ZM49.8865 47.0557C49.8865 46.0392 49.0394 45.1497 47.9805 45.1497C46.9216 45.1497 46.0745 46.0392 46.0745 47.0557C46.0745 48.1146 46.9216 48.9617 47.9805 48.9617C49.0394 48.9617 49.8865 48.1146 49.8865 47.0557ZM39.8483 37.0598C39.8483 36.0009 39.0011 35.1538 37.9422 35.1538C36.8834 35.1538 36.0362 36.0009 36.0362 37.0598C36.0362 38.0763 36.8834 38.9658 37.9422 38.9658C39.0011 38.9658 39.8483 38.0763 39.8483 37.0598ZM44.8462 42.0578C44.8462 40.9989 43.9991 40.1517 42.9402 40.1517C41.9237 40.1517 41.0342 40.9989 41.0342 42.0578C41.0342 43.1166 41.9237 43.9638 42.9402 43.9638C43.9991 43.9638 44.8462 43.1166 44.8462 42.0578ZM34.8503 37.0598C34.8503 36.0009 33.9608 35.1538 32.9443 35.1538C31.8854 35.1538 31.0383 36.0009 31.0383 37.0598C31.0383 38.0763 31.8854 38.9658 32.9443 38.9658C33.9608 38.9658 34.8503 38.0763 34.8503 37.0598ZM39.8483 42.0578C39.8483 40.9989 39.0011 40.1517 37.9422 40.1517C36.8834 40.1517 36.0362 40.9989 36.0362 42.0578C36.0362 43.1166 36.8834 43.9638 37.9422 43.9638C39.0011 43.9638 39.8483 43.1166 39.8483 42.0578ZM44.8462 47.0557C44.8462 46.0392 43.9991 45.1497 42.9402 45.1497C41.9237 45.1497 41.0342 46.0392 41.0342 47.0557C41.0342 48.1146 41.9237 48.9617 42.9402 48.9617C43.9991 48.9617 44.8462 48.1146 44.8462 47.0557ZM34.8503 42.0578C34.8503 40.9989 33.9608 40.1517 32.9443 40.1517C31.8854 40.1517 31.0383 40.9989 31.0383 42.0578C31.0383 43.1166 31.8854 43.9638 32.9443 43.9638C33.9608 43.9638 34.8503 43.1166 34.8503 42.0578ZM39.8483 47.0557C39.8483 46.0392 39.0011 45.1497 37.9422 45.1497C36.8834 45.1497 36.0362 46.0392 36.0362 47.0557C36.0362 48.1146 36.8834 48.9617 37.9422 48.9617C39.0011 48.9617 39.8483 48.1146 39.8483 47.0557ZM29.81 37.0598C29.81 36.0009 28.9629 35.1538 27.904 35.1538C26.8451 35.1538 25.998 36.0009 25.998 37.0598C25.998 38.0763 26.8451 38.9658 27.904 38.9658C28.9629 38.9658 29.81 38.0763 29.81 37.0598ZM34.8503 47.0557C34.8503 46.0392 33.9608 45.1497 32.9443 45.1497C31.8854 45.1497 31.0383 46.0392 31.0383 47.0557C31.0383 48.1146 31.8854 48.9617 32.9443 48.9617C33.9608 48.9617 34.8503 48.1146 34.8503 47.0557ZM29.81 42.0578C29.81 40.9989 28.9629 40.1517 27.904 40.1517C26.8451 40.1517 25.998 40.9989 25.998 42.0578C25.998 43.1166 26.8451 43.9638 27.904 43.9638C28.9629 43.9638 29.81 43.1166 29.81 42.0578ZM39.8483 52.096C39.8483 51.0371 39.0011 50.19 37.9422 50.19C36.8834 50.19 36.0362 51.0371 36.0362 52.096C36.0362 53.1549 36.8834 54.002 37.9422 54.002C39.0011 54.002 39.8483 53.1549 39.8483 52.096ZM24.812 42.0578C24.812 40.9989 23.9649 40.1517 22.906 40.1517C21.8471 40.1517 21 40.9989 21 42.0578C21 43.1166 21.8471 43.9638 22.906 43.9638C23.9649 43.9638 24.812 43.1166 24.812 42.0578ZM29.81 47.0557C29.81 46.0392 28.9629 45.1497 27.904 45.1497C26.8451 45.1497 25.998 46.0392 25.998 47.0557C25.998 48.1146 26.8451 48.9617 27.904 48.9617C28.9629 48.9617 29.81 48.1146 29.81 47.0557ZM34.8503 52.096C34.8503 51.0371 33.9608 50.19 32.9443 50.19C31.8854 50.19 31.0383 51.0371 31.0383 52.096C31.0383 53.1549 31.8854 54.002 32.9443 54.002C33.9608 54.002 34.8503 53.1549 34.8503 52.096ZM39.8483 57.094C39.8483 56.0351 39.0011 55.188 37.9422 55.188C36.8834 55.188 36.0362 56.0351 36.0362 57.094C36.0362 58.1529 36.8834 59 37.9422 59C39.0011 59 39.8483 58.1529 39.8483 57.094Z" fill="white"/>
<circle cx="41.5" cy="41.5" r="39" stroke="white" stroke-width="5"/>
</svg>
