<svg width="595" height="274" viewBox="0 0 595 274" fill="none" xmlns="http://www.w3.org/2000/svg">
<rect x="133" y="76" width="461" height="142" stroke="#FF8412" stroke-width="2" stroke-dasharray="11 11"/>
<path d="M49.5 107L46.757 108.215L47.5476 110H49.5V107ZM118.121 109.121C119.293 107.95 119.293 106.05 118.121 104.879L99.0294 85.7868C97.8579 84.6152 95.9584 84.6152 94.7868 85.7868C93.6152 86.9584 93.6152 88.8579 94.7868 90.0294L111.757 107L94.7868 123.971C93.6152 125.142 93.6152 127.042 94.7868 128.213C95.9584 129.385 97.8579 129.385 99.0294 128.213L118.121 109.121ZM0.256952 3.21478L2.58195 8.46478L8.06805 6.03522L5.74305 0.785221L0.256952 3.21478ZM7.23195 18.9648L11.882 29.4648L17.368 27.0352L12.718 16.5352L7.23195 18.9648ZM16.532 39.9648L21.182 50.4648L26.668 48.0352L22.018 37.5352L16.532 39.9648ZM25.832 60.9648L30.482 71.4648L35.968 69.0352L31.318 58.5352L25.832 60.9648ZM35.132 81.9648L39.782 92.4648L45.268 90.0352L40.618 79.5352L35.132 81.9648ZM44.4319 102.965L46.757 108.215L52.243 105.785L49.918 100.535L44.4319 102.965ZM49.5 110H55.0417V104H49.5V110ZM66.125 110H77.2083V104H66.125V110ZM88.2917 110H99.375V104H88.2917V110ZM110.458 110H116V104H110.458V110Z" fill="#FF9C40"/>
<path d="M476.84 234.913L477.634 233.839L476.373 233.431L476.688 232.626L477.902 233.034V231.657H478.8V233.034L480.002 232.626L480.317 233.431L479.08 233.839L479.862 234.913L479.15 235.438L478.357 234.306L477.564 235.438L476.84 234.913ZM484.875 240.175C484.291 240.175 483.751 240.07 483.253 239.86C482.763 239.642 482.339 239.343 481.981 238.962C481.631 238.573 481.355 238.118 481.152 237.596C480.958 237.067 480.861 236.488 480.861 235.858C480.861 235.243 480.954 234.672 481.141 234.143C481.327 233.606 481.592 233.143 481.934 232.754C482.284 232.357 482.704 232.05 483.194 231.832C483.692 231.607 484.248 231.494 484.863 231.494C485.376 231.494 485.835 231.568 486.24 231.716C486.644 231.856 486.99 232.054 487.278 232.311C487.574 232.56 487.807 232.855 487.978 233.197C488.149 233.54 488.258 233.909 488.305 234.306H486.625C486.547 233.886 486.356 233.551 486.053 233.302C485.75 233.046 485.353 232.917 484.863 232.917C484.474 232.917 484.136 232.995 483.848 233.151C483.568 233.299 483.334 233.505 483.148 233.769C482.961 234.034 482.821 234.345 482.728 234.703C482.634 235.06 482.588 235.446 482.588 235.858C482.588 236.286 482.638 236.678 482.739 237.036C482.848 237.394 483 237.705 483.194 237.97C483.397 238.226 483.638 238.429 483.918 238.576C484.206 238.716 484.525 238.787 484.875 238.787C485.372 238.787 485.781 238.654 486.1 238.39C486.426 238.118 486.617 237.76 486.671 237.316H488.328C488.305 237.69 488.216 238.048 488.06 238.39C487.904 238.724 487.687 239.024 487.407 239.288C487.119 239.56 486.769 239.778 486.356 239.942C485.952 240.097 485.458 240.175 484.875 240.175ZM490.657 234.796H490.692C490.91 234.477 491.151 234.24 491.416 234.084C491.68 233.929 492.019 233.851 492.431 233.851C492.742 233.851 493.022 233.909 493.271 234.026C493.528 234.135 493.745 234.29 493.924 234.493C494.103 234.687 494.243 234.92 494.344 235.193C494.446 235.465 494.496 235.764 494.496 236.091V240H492.909V236.325C492.909 235.998 492.82 235.733 492.641 235.531C492.462 235.329 492.205 235.228 491.871 235.228C491.521 235.228 491.229 235.356 490.996 235.613C490.77 235.862 490.657 236.192 490.657 236.605V240H489.07V231.657H490.657V234.796ZM498.286 240.175C497.788 240.175 497.345 240.093 496.956 239.93C496.575 239.767 496.252 239.545 495.988 239.265C495.723 238.977 495.521 238.639 495.381 238.25C495.249 237.861 495.183 237.445 495.183 237.001C495.183 236.558 495.253 236.146 495.393 235.764C495.54 235.375 495.743 235.041 495.999 234.761C496.264 234.481 496.575 234.259 496.933 234.096C497.298 233.933 497.699 233.851 498.135 233.851C498.617 233.851 499.041 233.94 499.406 234.119C499.772 234.29 500.079 234.535 500.328 234.854C500.577 235.173 500.764 235.554 500.888 235.998C501.021 236.433 501.087 236.92 501.087 237.456H496.746C496.808 237.923 496.964 238.289 497.213 238.553C497.47 238.818 497.823 238.95 498.275 238.95C498.586 238.95 498.835 238.884 499.021 238.752C499.208 238.619 499.344 238.44 499.43 238.215H500.993C500.939 238.479 500.838 238.732 500.69 238.973C500.55 239.207 500.363 239.413 500.13 239.592C499.904 239.771 499.636 239.911 499.325 240.012C499.014 240.121 498.667 240.175 498.286 240.175ZM498.158 235.076C497.738 235.076 497.419 235.193 497.201 235.426C496.983 235.652 496.839 235.963 496.769 236.36H499.43C499.406 235.978 499.278 235.671 499.045 235.438C498.819 235.197 498.524 235.076 498.158 235.076ZM504.598 240.175C504.124 240.175 503.696 240.093 503.315 239.93C502.941 239.767 502.622 239.545 502.358 239.265C502.093 238.977 501.887 238.643 501.739 238.261C501.599 237.872 501.529 237.456 501.529 237.013C501.529 236.57 501.599 236.157 501.739 235.776C501.879 235.387 502.078 235.053 502.335 234.773C502.599 234.485 502.914 234.259 503.28 234.096C503.645 233.933 504.058 233.851 504.516 233.851C504.905 233.851 505.255 233.905 505.567 234.014C505.878 234.123 506.146 234.275 506.372 234.469C506.605 234.656 506.792 234.885 506.932 235.158C507.08 235.422 507.181 235.718 507.235 236.044H505.683C505.629 235.78 505.504 235.562 505.31 235.391C505.123 235.212 504.882 235.123 504.586 235.123C504.104 235.123 503.742 235.294 503.501 235.636C503.26 235.971 503.14 236.43 503.14 237.013C503.14 237.581 503.252 238.04 503.478 238.39C503.711 238.732 504.073 238.903 504.563 238.903C504.89 238.903 505.158 238.822 505.368 238.658C505.578 238.487 505.711 238.23 505.765 237.888H507.294C507.27 238.207 507.189 238.506 507.048 238.787C506.916 239.059 506.733 239.3 506.5 239.51C506.274 239.712 505.998 239.876 505.672 240C505.353 240.117 504.995 240.175 504.598 240.175ZM510.249 237.27L509.561 237.981V240H507.986V231.657H509.561V236.278L511.685 234.014H513.586L511.381 236.29L513.855 240H511.93L510.249 237.27ZM516.315 234.014H517.902V240H516.315V234.014ZM516.315 231.657H517.902V233.081H516.315V231.657ZM520.477 234.831H520.512C520.714 234.504 520.955 234.259 521.235 234.096C521.523 233.933 521.873 233.851 522.285 233.851C522.596 233.851 522.876 233.909 523.125 234.026C523.382 234.135 523.6 234.29 523.779 234.493C523.958 234.687 524.098 234.92 524.199 235.193C524.3 235.465 524.35 235.764 524.35 236.091V240H522.763V236.325C522.763 235.998 522.674 235.733 522.495 235.531C522.316 235.329 522.06 235.228 521.725 235.228C521.375 235.228 521.083 235.356 520.85 235.613C520.624 235.862 520.512 236.192 520.512 236.605V240H518.925V234.014H520.477V234.831ZM531.057 240C531.011 239.938 530.972 239.844 530.941 239.72C530.909 239.596 530.886 239.467 530.871 239.335H530.847C530.769 239.452 530.68 239.56 530.579 239.662C530.485 239.755 530.369 239.837 530.229 239.907C530.097 239.977 529.937 240.031 529.75 240.07C529.564 240.117 529.342 240.14 529.085 240.14C528.471 240.14 527.969 239.984 527.58 239.673C527.191 239.362 526.997 238.907 526.997 238.308C526.997 237.981 527.059 237.705 527.183 237.48C527.308 237.254 527.479 237.067 527.697 236.92C527.915 236.772 528.167 236.659 528.455 236.581C528.751 236.496 529.066 236.43 529.4 236.383C529.898 236.313 530.264 236.239 530.497 236.161C530.731 236.083 530.847 235.932 530.847 235.706C530.847 235.488 530.762 235.317 530.59 235.193C530.427 235.06 530.178 234.994 529.844 234.994C529.47 234.994 529.19 235.064 529.004 235.204C528.817 235.337 528.712 235.547 528.689 235.834H527.277C527.284 235.57 527.343 235.321 527.452 235.088C527.561 234.847 527.72 234.637 527.93 234.458C528.14 234.279 528.405 234.135 528.724 234.026C529.043 233.917 529.42 233.863 529.855 233.863C530.75 233.863 531.392 234.057 531.781 234.446C532.177 234.827 532.376 235.368 532.376 236.068V239.113C532.376 239.564 532.446 239.841 532.586 239.942V240H531.057ZM529.47 239.032C529.696 239.032 529.894 239 530.065 238.938C530.244 238.868 530.392 238.783 530.509 238.681C530.633 238.573 530.727 238.452 530.789 238.32C530.851 238.18 530.882 238.036 530.882 237.888V236.99C530.742 237.075 530.571 237.145 530.369 237.2C530.174 237.246 529.976 237.293 529.774 237.34C529.354 237.433 529.043 237.542 528.84 237.666C528.638 237.791 528.537 237.993 528.537 238.273C528.537 238.553 528.622 238.752 528.794 238.868C528.965 238.977 529.19 239.032 529.47 239.032ZM532.921 234.014H533.749V232.147H535.301V234.014H536.328V235.064H535.301V238.238C535.301 238.464 535.355 238.619 535.464 238.705C535.573 238.79 535.717 238.833 535.896 238.833H536.199C536.254 238.833 536.308 238.829 536.363 238.822V239.988C536.285 239.996 536.199 240 536.106 240C536.02 240.008 535.915 240.012 535.791 240.012C535.667 240.012 535.526 240.012 535.371 240.012C535.176 240.012 534.982 239.992 534.787 239.953C534.601 239.907 534.43 239.829 534.274 239.72C534.119 239.611 533.99 239.463 533.889 239.277C533.796 239.09 533.749 238.857 533.749 238.576V235.064H532.921V234.014ZM539.233 231.657H545.207V233.092H540.925V235.099H544.554V236.546H540.925V240H539.233V231.657ZM547.208 234.971H547.243C547.422 234.629 547.624 234.372 547.85 234.201C548.075 234.03 548.363 233.944 548.713 233.944C548.877 233.944 549.001 233.96 549.087 233.991V235.379H549.052C548.53 235.325 548.103 235.438 547.768 235.718C547.434 235.998 547.266 236.453 547.266 237.083V240H545.68V234.014H547.208V234.971ZM552.435 240.175C551.968 240.175 551.544 240.093 551.163 239.93C550.782 239.767 550.451 239.545 550.171 239.265C549.899 238.977 549.685 238.643 549.529 238.261C549.381 237.872 549.308 237.456 549.308 237.013C549.308 236.57 549.381 236.157 549.529 235.776C549.685 235.387 549.899 235.053 550.171 234.773C550.451 234.485 550.782 234.259 551.163 234.096C551.544 233.933 551.968 233.851 552.435 233.851C552.901 233.851 553.325 233.933 553.707 234.096C554.088 234.259 554.414 234.485 554.687 234.773C554.967 235.053 555.181 235.387 555.328 235.776C555.484 236.157 555.562 236.57 555.562 237.013C555.562 237.456 555.484 237.872 555.328 238.261C555.181 238.643 554.967 238.977 554.687 239.265C554.414 239.545 554.088 239.767 553.707 239.93C553.325 240.093 552.901 240.175 552.435 240.175ZM552.435 238.962C552.925 238.962 553.298 238.783 553.555 238.425C553.819 238.067 553.952 237.596 553.952 237.013C553.952 236.43 553.819 235.959 553.555 235.601C553.298 235.235 552.925 235.053 552.435 235.053C551.945 235.053 551.567 235.235 551.303 235.601C551.046 235.959 550.918 236.43 550.918 237.013C550.918 237.596 551.046 238.067 551.303 238.425C551.567 238.783 551.945 238.962 552.435 238.962ZM557.851 234.831H557.886C558.089 234.504 558.33 234.259 558.61 234.096C558.898 233.933 559.248 233.851 559.66 233.851C559.971 233.851 560.251 233.909 560.5 234.026C560.757 234.135 560.974 234.29 561.153 234.493C561.332 234.687 561.472 234.92 561.573 235.193C561.675 235.465 561.725 235.764 561.725 236.091V240H560.138V236.325C560.138 235.998 560.049 235.733 559.87 235.531C559.691 235.329 559.434 235.228 559.1 235.228C558.75 235.228 558.458 235.356 558.225 235.613C557.999 235.862 557.886 236.192 557.886 236.605V240H556.299V234.014H557.851V234.831ZM562.239 234.014H563.068V232.147H564.62V234.014H565.646V235.064H564.62V238.238C564.62 238.464 564.674 238.619 564.783 238.705C564.892 238.79 565.036 238.833 565.215 238.833H565.518C565.572 238.833 565.627 238.829 565.681 238.822V239.988C565.604 239.996 565.518 240 565.425 240C565.339 240.008 565.234 240.012 565.11 240.012C564.985 240.012 564.845 240.012 564.69 240.012C564.495 240.012 564.301 239.992 564.106 239.953C563.919 239.907 563.748 239.829 563.593 239.72C563.437 239.611 563.309 239.463 563.208 239.277C563.114 239.09 563.068 238.857 563.068 238.576V235.064H562.239V234.014ZM568.552 231.657H571.807C572.367 231.657 572.873 231.766 573.324 231.984C573.775 232.194 574.16 232.49 574.479 232.871C574.798 233.244 575.043 233.691 575.214 234.213C575.385 234.734 575.471 235.302 575.471 235.916C575.471 236.601 575.358 237.227 575.133 237.795C574.915 238.355 574.584 238.822 574.141 239.195C573.83 239.452 573.472 239.65 573.067 239.79C572.663 239.93 572.196 240 571.667 240H568.552V231.657ZM571.55 238.541C572.344 238.541 572.908 238.312 573.242 237.853C573.585 237.394 573.756 236.748 573.756 235.916C573.756 235.504 573.709 235.127 573.616 234.784C573.53 234.434 573.394 234.135 573.207 233.886C573.028 233.637 572.803 233.446 572.531 233.314C572.266 233.174 571.955 233.104 571.597 233.104H570.244V238.541H571.55ZM579.075 240.175C578.577 240.175 578.134 240.093 577.745 239.93C577.364 239.767 577.041 239.545 576.776 239.265C576.512 238.977 576.31 238.639 576.17 238.25C576.037 237.861 575.971 237.445 575.971 237.001C575.971 236.558 576.041 236.146 576.181 235.764C576.329 235.375 576.531 235.041 576.788 234.761C577.053 234.481 577.364 234.259 577.722 234.096C578.087 233.933 578.488 233.851 578.923 233.851C579.406 233.851 579.83 233.94 580.195 234.119C580.561 234.29 580.868 234.535 581.117 234.854C581.366 235.173 581.553 235.554 581.677 235.998C581.809 236.433 581.875 236.92 581.875 237.456H577.535C577.597 237.923 577.753 238.289 578.002 238.553C578.258 238.818 578.612 238.95 579.063 238.95C579.375 238.95 579.623 238.884 579.81 238.752C579.997 238.619 580.133 238.44 580.219 238.215H581.782C581.728 238.479 581.626 238.732 581.479 238.973C581.339 239.207 581.152 239.413 580.919 239.592C580.693 239.771 580.425 239.911 580.114 240.012C579.802 240.121 579.456 240.175 579.075 240.175ZM578.947 235.076C578.527 235.076 578.208 235.193 577.99 235.426C577.772 235.652 577.628 235.963 577.558 236.36H580.219C580.195 235.978 580.067 235.671 579.833 235.438C579.608 235.197 579.312 235.076 578.947 235.076ZM585.037 240.175C584.166 240.175 583.493 239.984 583.018 239.603C582.544 239.214 582.283 238.701 582.236 238.063H583.707C583.761 238.413 583.901 238.666 584.127 238.822C584.36 238.977 584.656 239.055 585.014 239.055C585.364 239.055 585.632 238.993 585.819 238.868C586.013 238.744 586.11 238.576 586.11 238.366C586.11 238.226 586.064 238.114 585.97 238.028C585.885 237.943 585.768 237.872 585.62 237.818C585.48 237.764 585.313 237.721 585.119 237.69C584.932 237.651 584.737 237.612 584.535 237.573C584.263 237.519 583.998 237.456 583.742 237.386C583.493 237.316 583.267 237.215 583.065 237.083C582.87 236.951 582.711 236.78 582.587 236.57C582.47 236.36 582.412 236.091 582.412 235.764C582.412 235.438 582.474 235.158 582.598 234.924C582.723 234.683 582.894 234.485 583.112 234.329C583.337 234.166 583.598 234.045 583.893 233.968C584.189 233.89 584.508 233.851 584.85 233.851C585.644 233.851 586.254 234.03 586.682 234.388C587.11 234.745 587.355 235.228 587.417 235.834H585.982C585.943 235.508 585.826 235.282 585.632 235.158C585.437 235.025 585.169 234.959 584.827 234.959C584.516 234.959 584.267 235.018 584.08 235.134C583.893 235.243 583.8 235.407 583.8 235.624C583.8 235.757 583.847 235.862 583.94 235.939C584.033 236.009 584.154 236.072 584.302 236.126C584.457 236.173 584.632 236.212 584.827 236.243C585.029 236.274 585.235 236.313 585.445 236.36C585.694 236.414 585.943 236.476 586.192 236.546C586.449 236.616 586.678 236.721 586.88 236.861C587.083 236.993 587.246 237.172 587.371 237.398C587.495 237.616 587.557 237.9 587.557 238.25C587.557 238.553 587.495 238.825 587.371 239.067C587.246 239.3 587.071 239.498 586.845 239.662C586.628 239.825 586.363 239.949 586.052 240.035C585.749 240.128 585.41 240.175 585.037 240.175ZM590.537 237.27L589.848 237.981V240H588.273V231.657H589.848V236.278L591.972 234.014H593.874L591.669 236.29L594.142 240H592.217L590.537 237.27Z" fill="#8DA400"/>
<path d="M499.84 250.913L500.634 249.839L499.373 249.431L499.688 248.626L500.902 249.034V247.657H501.8V249.034L503.002 248.626L503.317 249.431L502.08 249.839L502.862 250.913L502.15 251.438L501.357 250.306L500.564 251.438L499.84 250.913ZM504.336 247.657H506.052L508.829 252.313C508.891 252.43 508.957 252.558 509.027 252.698C509.097 252.83 509.163 252.955 509.225 253.071C509.295 253.211 509.358 253.347 509.412 253.48H509.435C509.428 253.316 509.42 253.149 509.412 252.978C509.404 252.83 509.397 252.675 509.389 252.511C509.389 252.34 509.389 252.181 509.389 252.033V247.657H511.057V256H509.424L506.577 251.391C506.507 251.282 506.437 251.162 506.367 251.029C506.304 250.889 506.242 250.761 506.18 250.644C506.11 250.504 506.044 250.368 505.982 250.236H505.958C505.966 250.407 505.974 250.578 505.982 250.749C505.989 250.897 505.993 251.057 505.993 251.228C506.001 251.391 506.005 251.547 506.005 251.694V256H504.336V247.657ZM515.043 256.175C514.576 256.175 514.152 256.093 513.771 255.93C513.39 255.767 513.059 255.545 512.779 255.265C512.507 254.977 512.293 254.643 512.137 254.261C511.989 253.872 511.915 253.456 511.915 253.013C511.915 252.57 511.989 252.157 512.137 251.776C512.293 251.387 512.507 251.053 512.779 250.773C513.059 250.485 513.39 250.259 513.771 250.096C514.152 249.933 514.576 249.851 515.043 249.851C515.509 249.851 515.933 249.933 516.314 250.096C516.696 250.259 517.022 250.485 517.294 250.773C517.575 251.053 517.788 251.387 517.936 251.776C518.092 252.157 518.17 252.57 518.17 253.013C518.17 253.456 518.092 253.872 517.936 254.261C517.788 254.643 517.575 254.977 517.294 255.265C517.022 255.545 516.696 255.767 516.314 255.93C515.933 256.093 515.509 256.175 515.043 256.175ZM515.043 254.962C515.533 254.962 515.906 254.783 516.163 254.425C516.427 254.067 516.559 253.596 516.559 253.013C516.559 252.43 516.427 251.959 516.163 251.601C515.906 251.235 515.533 251.053 515.043 251.053C514.552 251.053 514.175 251.235 513.911 251.601C513.654 251.959 513.526 252.43 513.526 253.013C513.526 253.596 513.654 254.067 513.911 254.425C514.175 254.783 514.552 254.962 515.043 254.962ZM520.996 247.657H526.97V249.092H522.687V251.099H526.316V252.546H522.687V256H520.996V247.657ZM530.106 256.175C529.64 256.175 529.216 256.093 528.835 255.93C528.453 255.767 528.123 255.545 527.843 255.265C527.57 254.977 527.357 254.643 527.201 254.261C527.053 253.872 526.979 253.456 526.979 253.013C526.979 252.57 527.053 252.157 527.201 251.776C527.357 251.387 527.57 251.053 527.843 250.773C528.123 250.485 528.453 250.259 528.835 250.096C529.216 249.933 529.64 249.851 530.106 249.851C530.573 249.851 530.997 249.933 531.378 250.096C531.759 250.259 532.086 250.485 532.358 250.773C532.638 251.053 532.852 251.387 533 251.776C533.156 252.157 533.233 252.57 533.233 253.013C533.233 253.456 533.156 253.872 533 254.261C532.852 254.643 532.638 254.977 532.358 255.265C532.086 255.545 531.759 255.767 531.378 255.93C530.997 256.093 530.573 256.175 530.106 256.175ZM530.106 254.962C530.596 254.962 530.97 254.783 531.227 254.425C531.491 254.067 531.623 253.596 531.623 253.013C531.623 252.43 531.491 251.959 531.227 251.601C530.97 251.235 530.596 251.053 530.106 251.053C529.616 251.053 529.239 251.235 528.975 251.601C528.718 251.959 528.59 252.43 528.59 253.013C528.59 253.596 528.718 254.067 528.975 254.425C529.239 254.783 529.616 254.962 530.106 254.962ZM536.806 256.175C536.34 256.175 535.916 256.093 535.535 255.93C535.153 255.767 534.823 255.545 534.543 255.265C534.271 254.977 534.057 254.643 533.901 254.261C533.753 253.872 533.679 253.456 533.679 253.013C533.679 252.57 533.753 252.157 533.901 251.776C534.057 251.387 534.271 251.053 534.543 250.773C534.823 250.485 535.153 250.259 535.535 250.096C535.916 249.933 536.34 249.851 536.806 249.851C537.273 249.851 537.697 249.933 538.078 250.096C538.459 250.259 538.786 250.485 539.058 250.773C539.338 251.053 539.552 251.387 539.7 251.776C539.856 252.157 539.934 252.57 539.934 253.013C539.934 253.456 539.856 253.872 539.7 254.261C539.552 254.643 539.338 254.977 539.058 255.265C538.786 255.545 538.459 255.767 538.078 255.93C537.697 256.093 537.273 256.175 536.806 256.175ZM536.806 254.962C537.297 254.962 537.67 254.783 537.927 254.425C538.191 254.067 538.323 253.596 538.323 253.013C538.323 252.43 538.191 251.959 537.927 251.601C537.67 251.235 537.297 251.053 536.806 251.053C536.316 251.053 535.939 251.235 535.675 251.601C535.418 251.959 535.29 252.43 535.29 253.013C535.29 253.596 535.418 254.067 535.675 254.425C535.939 254.783 536.316 254.962 536.806 254.962ZM542.912 256.175C542.538 256.175 542.196 256.101 541.885 255.953C541.574 255.806 541.305 255.596 541.08 255.323C540.862 255.051 540.691 254.72 540.566 254.331C540.442 253.935 540.38 253.495 540.38 253.013C540.38 252.546 540.442 252.118 540.566 251.729C540.691 251.34 540.866 251.01 541.091 250.738C541.325 250.458 541.597 250.24 541.908 250.084C542.219 249.929 542.561 249.851 542.935 249.851C543.355 249.851 543.701 249.936 543.973 250.108C544.246 250.279 544.463 250.489 544.627 250.738H544.662V247.657H546.249V256H544.72V255.218H544.697C544.518 255.506 544.281 255.739 543.985 255.918C543.689 256.089 543.332 256.175 542.912 256.175ZM543.262 254.845C543.736 254.845 544.094 254.685 544.335 254.366C544.576 254.04 544.697 253.6 544.697 253.048C544.697 252.76 544.67 252.5 544.615 252.266C544.568 252.033 544.491 251.834 544.382 251.671C544.273 251.5 544.129 251.368 543.95 251.274C543.779 251.181 543.565 251.134 543.308 251.134C542.873 251.134 542.542 251.309 542.316 251.659C542.099 252.009 541.99 252.461 541.99 253.013C541.99 253.596 542.099 254.048 542.316 254.366C542.534 254.685 542.849 254.845 543.262 254.845ZM552.075 256.175C551.609 256.175 551.185 256.093 550.804 255.93C550.422 255.767 550.092 255.545 549.812 255.265C549.54 254.977 549.326 254.643 549.17 254.261C549.022 253.872 548.948 253.456 548.948 253.013C548.948 252.57 549.022 252.157 549.17 251.776C549.326 251.387 549.54 251.053 549.812 250.773C550.092 250.485 550.422 250.259 550.804 250.096C551.185 249.933 551.609 249.851 552.075 249.851C552.542 249.851 552.966 249.933 553.347 250.096C553.728 250.259 554.055 250.485 554.327 250.773C554.607 251.053 554.821 251.387 554.969 251.776C555.125 252.157 555.203 252.57 555.203 253.013C555.203 253.456 555.125 253.872 554.969 254.261C554.821 254.643 554.607 254.977 554.327 255.265C554.055 255.545 553.728 255.767 553.347 255.93C552.966 256.093 552.542 256.175 552.075 256.175ZM552.075 254.962C552.566 254.962 552.939 254.783 553.196 254.425C553.46 254.067 553.592 253.596 553.592 253.013C553.592 252.43 553.46 251.959 553.196 251.601C552.939 251.235 552.566 251.053 552.075 251.053C551.585 251.053 551.208 251.235 550.944 251.601C550.687 251.959 550.559 252.43 550.559 253.013C550.559 253.596 550.687 254.067 550.944 254.425C551.208 254.783 551.585 254.962 552.075 254.962ZM557.469 250.971H557.504C557.683 250.629 557.885 250.372 558.11 250.201C558.336 250.03 558.624 249.944 558.974 249.944C559.137 249.944 559.262 249.96 559.347 249.991V251.379H559.312C558.791 251.325 558.363 251.438 558.029 251.718C557.694 251.998 557.527 252.453 557.527 253.083V256H555.94V250.014H557.469V250.971ZM562.119 247.657H565.375C565.935 247.657 566.44 247.766 566.891 247.984C567.343 248.194 567.728 248.49 568.047 248.871C568.366 249.244 568.611 249.691 568.782 250.213C568.953 250.734 569.038 251.302 569.038 251.916C569.038 252.601 568.926 253.227 568.7 253.795C568.482 254.355 568.152 254.822 567.708 255.195C567.397 255.452 567.039 255.65 566.635 255.79C566.23 255.93 565.764 256 565.235 256H562.119V247.657ZM565.118 254.541C565.911 254.541 566.475 254.312 566.81 253.853C567.152 253.394 567.323 252.748 567.323 251.916C567.323 251.504 567.276 251.127 567.183 250.784C567.098 250.434 566.961 250.135 566.775 249.886C566.596 249.637 566.37 249.446 566.098 249.314C565.834 249.174 565.522 249.104 565.165 249.104H563.811V254.541H565.118ZM571.359 250.971H571.394C571.573 250.629 571.775 250.372 572.001 250.201C572.226 250.03 572.514 249.944 572.864 249.944C573.027 249.944 573.152 249.96 573.237 249.991V251.379H573.202C572.681 251.325 572.253 251.438 571.919 251.718C571.584 251.998 571.417 252.453 571.417 253.083V256H569.83V250.014H571.359V250.971ZM573.921 250.014H575.508V256H573.921V250.014ZM573.921 247.657H575.508V249.081H573.921V247.657ZM578.082 250.831H578.117C578.32 250.504 578.561 250.259 578.841 250.096C579.129 249.933 579.479 249.851 579.891 249.851C580.202 249.851 580.482 249.909 580.731 250.026C580.988 250.135 581.206 250.29 581.384 250.493C581.563 250.687 581.703 250.92 581.805 251.193C581.906 251.465 581.956 251.764 581.956 252.091V256H580.369V252.325C580.369 251.998 580.28 251.733 580.101 251.531C579.922 251.329 579.665 251.228 579.331 251.228C578.981 251.228 578.689 251.356 578.456 251.613C578.23 251.862 578.117 252.192 578.117 252.605V256H576.53V250.014H578.082V250.831ZM585.198 253.27L584.51 253.981V256H582.934V247.657H584.51V252.278L586.633 250.014H588.535L586.33 252.29L588.803 256H586.878L585.198 253.27ZM591.56 256.175C590.689 256.175 590.016 255.984 589.541 255.603C589.067 255.214 588.806 254.701 588.76 254.063H590.23C590.284 254.413 590.424 254.666 590.65 254.822C590.883 254.977 591.179 255.055 591.537 255.055C591.887 255.055 592.155 254.993 592.342 254.868C592.536 254.744 592.634 254.576 592.634 254.366C592.634 254.226 592.587 254.114 592.494 254.028C592.408 253.943 592.291 253.872 592.143 253.818C592.003 253.764 591.836 253.721 591.642 253.69C591.455 253.651 591.261 253.612 591.058 253.573C590.786 253.519 590.522 253.456 590.265 253.386C590.016 253.316 589.79 253.215 589.588 253.083C589.394 252.951 589.234 252.78 589.11 252.57C588.993 252.36 588.935 252.091 588.935 251.764C588.935 251.438 588.997 251.158 589.121 250.924C589.246 250.683 589.417 250.485 589.635 250.329C589.86 250.166 590.121 250.045 590.417 249.968C590.712 249.89 591.031 249.851 591.373 249.851C592.167 249.851 592.777 250.03 593.205 250.388C593.633 250.745 593.878 251.228 593.94 251.834H592.505C592.466 251.508 592.35 251.282 592.155 251.158C591.961 251.025 591.692 250.959 591.35 250.959C591.039 250.959 590.79 251.018 590.603 251.134C590.417 251.243 590.323 251.407 590.323 251.624C590.323 251.757 590.37 251.862 590.463 251.939C590.557 252.009 590.677 252.072 590.825 252.126C590.981 252.173 591.156 252.212 591.35 252.243C591.552 252.274 591.758 252.313 591.968 252.36C592.217 252.414 592.466 252.476 592.715 252.546C592.972 252.616 593.201 252.721 593.404 252.861C593.606 252.993 593.769 253.172 593.894 253.398C594.018 253.616 594.08 253.9 594.08 254.25C594.08 254.553 594.018 254.825 593.894 255.067C593.769 255.3 593.594 255.498 593.369 255.662C593.151 255.825 592.886 255.949 592.575 256.035C592.272 256.128 591.933 256.175 591.56 256.175Z" fill="#8DA400"/>
<path d="M458.84 266.245L459.634 265.171L458.373 264.763L458.688 263.958L459.902 264.366V262.989H460.8V264.366L462.002 263.958L462.317 264.763L461.08 265.171L461.862 266.245L461.15 266.77L460.357 265.638L459.564 266.77L458.84 266.245ZM463.336 262.989H465.052L467.829 267.645C467.891 267.762 467.957 267.89 468.027 268.03C468.097 268.162 468.163 268.287 468.225 268.403C468.295 268.543 468.358 268.679 468.412 268.812H468.435C468.428 268.648 468.42 268.481 468.412 268.31C468.404 268.162 468.397 268.007 468.389 267.843C468.389 267.672 468.389 267.513 468.389 267.365V262.989H470.057V271.332H468.424L465.577 266.723C465.507 266.614 465.437 266.494 465.367 266.361C465.304 266.221 465.242 266.093 465.18 265.976C465.11 265.836 465.044 265.7 464.982 265.568H464.958C464.966 265.739 464.974 265.91 464.982 266.081C464.989 266.229 464.993 266.389 464.993 266.56C465.001 266.723 465.005 266.879 465.005 267.026V271.332H463.336V262.989ZM474.043 271.507C473.576 271.507 473.152 271.425 472.771 271.262C472.39 271.099 472.059 270.877 471.779 270.597C471.507 270.309 471.293 269.975 471.137 269.593C470.989 269.205 470.915 268.788 470.915 268.345C470.915 267.902 470.989 267.489 471.137 267.108C471.293 266.719 471.507 266.385 471.779 266.105C472.059 265.817 472.39 265.591 472.771 265.428C473.152 265.265 473.576 265.183 474.043 265.183C474.509 265.183 474.933 265.265 475.314 265.428C475.696 265.591 476.022 265.817 476.294 266.105C476.575 266.385 476.788 266.719 476.936 267.108C477.092 267.489 477.17 267.902 477.17 268.345C477.17 268.788 477.092 269.205 476.936 269.593C476.788 269.975 476.575 270.309 476.294 270.597C476.022 270.877 475.696 271.099 475.314 271.262C474.933 271.425 474.509 271.507 474.043 271.507ZM474.043 270.294C474.533 270.294 474.906 270.115 475.163 269.757C475.427 269.399 475.559 268.928 475.559 268.345C475.559 267.762 475.427 267.291 475.163 266.933C474.906 266.568 474.533 266.385 474.043 266.385C473.552 266.385 473.175 266.568 472.911 266.933C472.654 267.291 472.526 267.762 472.526 268.345C472.526 268.928 472.654 269.399 472.911 269.757C473.175 270.115 473.552 270.294 474.043 270.294ZM479.996 262.989H483.729C484.181 262.989 484.573 263.044 484.908 263.153C485.25 263.254 485.53 263.402 485.748 263.596C486.191 263.993 486.413 264.514 486.413 265.16C486.413 265.587 486.292 265.941 486.051 266.221C485.818 266.494 485.503 266.696 485.106 266.828V266.863C485.573 266.995 485.946 267.244 486.226 267.61C486.514 267.975 486.658 268.415 486.658 268.928C486.658 269.325 486.596 269.663 486.471 269.944C486.355 270.216 486.172 270.457 485.923 270.667C485.682 270.877 485.382 271.04 485.025 271.157C484.667 271.274 484.266 271.332 483.823 271.332H479.996V262.989ZM481.687 269.932H483.636C484.048 269.932 484.367 269.831 484.593 269.628C484.826 269.418 484.943 269.142 484.943 268.8C484.943 268.403 484.814 268.104 484.558 267.902C484.301 267.699 483.978 267.598 483.589 267.598H481.687V269.932ZM483.519 266.35C483.893 266.35 484.192 266.264 484.418 266.093C484.643 265.922 484.756 265.673 484.756 265.346C484.756 265.035 484.647 264.794 484.429 264.623C484.219 264.452 483.928 264.366 483.554 264.366H481.687V266.35H483.519ZM491.293 271.332C491.247 271.27 491.208 271.176 491.177 271.052C491.145 270.928 491.122 270.799 491.107 270.667H491.083C491.005 270.784 490.916 270.893 490.815 270.994C490.722 271.087 490.605 271.169 490.465 271.239C490.333 271.309 490.173 271.363 489.986 271.402C489.8 271.449 489.578 271.472 489.321 271.472C488.707 271.472 488.205 271.316 487.816 271.005C487.427 270.694 487.233 270.239 487.233 269.64C487.233 269.313 487.295 269.037 487.419 268.812C487.544 268.586 487.715 268.399 487.933 268.252C488.151 268.104 488.403 267.991 488.691 267.913C488.987 267.828 489.302 267.762 489.636 267.715C490.134 267.645 490.5 267.571 490.733 267.493C490.967 267.415 491.083 267.264 491.083 267.038C491.083 266.82 490.998 266.649 490.827 266.525C490.663 266.392 490.414 266.326 490.08 266.326C489.706 266.326 489.426 266.396 489.24 266.536C489.053 266.669 488.948 266.879 488.925 267.166H487.513C487.521 266.902 487.579 266.653 487.688 266.42C487.797 266.179 487.956 265.969 488.166 265.79C488.376 265.611 488.641 265.467 488.96 265.358C489.279 265.249 489.656 265.195 490.091 265.195C490.986 265.195 491.628 265.389 492.017 265.778C492.413 266.159 492.612 266.7 492.612 267.4V270.445C492.612 270.896 492.682 271.173 492.822 271.274V271.332H491.293ZM489.706 270.364C489.932 270.364 490.13 270.332 490.301 270.27C490.48 270.2 490.628 270.115 490.745 270.014C490.869 269.905 490.963 269.784 491.025 269.652C491.087 269.512 491.118 269.368 491.118 269.22V268.322C490.978 268.407 490.807 268.477 490.605 268.532C490.41 268.578 490.212 268.625 490.01 268.672C489.59 268.765 489.279 268.874 489.076 268.998C488.874 269.123 488.773 269.325 488.773 269.605C488.773 269.885 488.858 270.084 489.03 270.2C489.201 270.309 489.426 270.364 489.706 270.364ZM496.258 273.374C495.433 273.374 494.78 273.207 494.297 272.872C493.823 272.546 493.543 272.09 493.457 271.507H495.032C495.095 271.694 495.215 271.849 495.394 271.974C495.581 272.106 495.861 272.172 496.234 272.172C497.121 272.172 497.564 271.756 497.564 270.924V270.27H497.529C497.351 270.472 497.141 270.64 496.899 270.772C496.658 270.904 496.347 270.97 495.966 270.97C495.631 270.97 495.305 270.908 494.986 270.784C494.675 270.651 494.395 270.465 494.146 270.224C493.905 269.975 493.706 269.675 493.551 269.325C493.403 268.967 493.329 268.563 493.329 268.112C493.329 267.668 493.391 267.268 493.516 266.91C493.648 266.544 493.827 266.233 494.052 265.976C494.286 265.72 494.558 265.525 494.869 265.393C495.188 265.253 495.538 265.183 495.919 265.183C496.293 265.183 496.615 265.253 496.888 265.393C497.168 265.533 497.397 265.727 497.576 265.976H497.599V265.346H499.128V270.877C499.128 271.297 499.066 271.655 498.941 271.95C498.817 272.246 498.642 272.495 498.416 272.697C498.167 272.931 497.856 273.102 497.483 273.211C497.109 273.32 496.701 273.374 496.258 273.374ZM496.234 269.698C496.483 269.698 496.697 269.656 496.876 269.57C497.055 269.485 497.199 269.368 497.308 269.22C497.424 269.072 497.51 268.901 497.564 268.707C497.619 268.512 497.646 268.302 497.646 268.077C497.646 267.859 497.615 267.653 497.553 267.458C497.498 267.256 497.413 267.081 497.296 266.933C497.179 266.785 497.032 266.669 496.853 266.583C496.674 266.497 496.464 266.455 496.223 266.455C495.818 266.455 495.491 266.603 495.242 266.898C495.001 267.186 494.881 267.583 494.881 268.088C494.881 268.602 495.001 268.998 495.242 269.278C495.491 269.558 495.822 269.698 496.234 269.698ZM502.577 271.507C501.706 271.507 501.033 271.316 500.558 270.935C500.084 270.546 499.823 270.033 499.776 269.395H501.247C501.301 269.745 501.441 269.998 501.667 270.154C501.9 270.309 502.196 270.387 502.553 270.387C502.903 270.387 503.172 270.325 503.359 270.2C503.553 270.076 503.65 269.909 503.65 269.698C503.65 269.558 503.604 269.446 503.51 269.36C503.425 269.275 503.308 269.205 503.16 269.15C503.02 269.096 502.853 269.053 502.658 269.022C502.472 268.983 502.277 268.944 502.075 268.905C501.803 268.851 501.538 268.788 501.282 268.718C501.033 268.648 500.807 268.547 500.605 268.415C500.41 268.283 500.251 268.112 500.126 267.902C500.01 267.692 499.951 267.423 499.951 267.096C499.951 266.77 500.014 266.49 500.138 266.256C500.263 266.015 500.434 265.817 500.652 265.661C500.877 265.498 501.138 265.377 501.433 265.3C501.729 265.222 502.048 265.183 502.39 265.183C503.184 265.183 503.794 265.362 504.222 265.72C504.65 266.077 504.895 266.56 504.957 267.166H503.522C503.483 266.84 503.366 266.614 503.172 266.49C502.977 266.357 502.709 266.291 502.367 266.291C502.056 266.291 501.807 266.35 501.62 266.466C501.433 266.575 501.34 266.739 501.34 266.956C501.34 267.089 501.387 267.194 501.48 267.271C501.573 267.342 501.694 267.404 501.842 267.458C501.997 267.505 502.172 267.544 502.367 267.575C502.569 267.606 502.775 267.645 502.985 267.692C503.234 267.746 503.483 267.808 503.732 267.878C503.989 267.948 504.218 268.053 504.42 268.193C504.623 268.326 504.786 268.504 504.91 268.73C505.035 268.948 505.097 269.232 505.097 269.582C505.097 269.885 505.035 270.157 504.91 270.399C504.786 270.632 504.611 270.83 504.385 270.994C504.168 271.157 503.903 271.281 503.592 271.367C503.289 271.46 502.95 271.507 502.577 271.507ZM507.773 265.346H509.36V271.332H507.773V265.346ZM507.773 262.989H509.36V264.413H507.773V262.989ZM511.934 266.163H511.969C512.171 265.836 512.413 265.591 512.693 265.428C512.98 265.265 513.33 265.183 513.743 265.183C514.054 265.183 514.334 265.241 514.583 265.358C514.84 265.467 515.057 265.622 515.236 265.825C515.415 266.019 515.555 266.252 515.656 266.525C515.757 266.797 515.808 267.096 515.808 267.423V271.332H514.221V267.657C514.221 267.33 514.132 267.065 513.953 266.863C513.774 266.661 513.517 266.56 513.183 266.56C512.833 266.56 512.541 266.688 512.308 266.945C512.082 267.194 511.969 267.524 511.969 267.937V271.332H510.382V265.346H511.934V266.163ZM524.93 270.212H524.907C524.619 270.694 524.281 271.033 523.892 271.227C523.503 271.414 523.059 271.507 522.562 271.507C521.931 271.507 521.371 271.402 520.881 271.192C520.399 270.974 519.983 270.675 519.633 270.294C519.283 269.905 519.014 269.45 518.828 268.928C518.641 268.399 518.548 267.82 518.548 267.19C518.548 266.49 518.664 265.848 518.898 265.265C519.131 264.681 519.469 264.187 519.913 263.783C520.255 263.472 520.648 263.234 521.091 263.071C521.535 262.908 522.036 262.826 522.597 262.826C523.118 262.826 523.584 262.896 523.997 263.036C524.417 263.168 524.775 263.359 525.07 263.608C525.366 263.857 525.603 264.152 525.782 264.494C525.969 264.837 526.097 265.21 526.167 265.615H524.51C524.417 265.21 524.215 264.88 523.903 264.623C523.592 264.358 523.168 264.226 522.632 264.226C522.235 264.226 521.889 264.304 521.593 264.459C521.305 264.607 521.06 264.817 520.858 265.09C520.663 265.354 520.516 265.669 520.415 266.035C520.321 266.392 520.275 266.778 520.275 267.19C520.275 267.618 520.329 268.014 520.438 268.38C520.547 268.738 520.702 269.049 520.905 269.313C521.107 269.57 521.352 269.772 521.64 269.92C521.928 270.068 522.25 270.142 522.608 270.142C522.935 270.142 523.231 270.087 523.495 269.979C523.759 269.87 523.985 269.726 524.172 269.547C524.358 269.368 524.502 269.166 524.603 268.94C524.705 268.714 524.755 268.485 524.755 268.252V268.205H522.748V266.898H526.26V271.332H524.989L524.93 270.212ZM531.084 271.332C531.037 271.27 530.998 271.176 530.967 271.052C530.936 270.928 530.913 270.799 530.897 270.667H530.874C530.796 270.784 530.706 270.893 530.605 270.994C530.512 271.087 530.395 271.169 530.255 271.239C530.123 271.309 529.964 271.363 529.777 271.402C529.59 271.449 529.368 271.472 529.112 271.472C528.497 271.472 527.996 271.316 527.607 271.005C527.218 270.694 527.023 270.239 527.023 269.64C527.023 269.313 527.085 269.037 527.21 268.812C527.334 268.586 527.505 268.399 527.723 268.252C527.941 268.104 528.194 267.991 528.482 267.913C528.777 267.828 529.092 267.762 529.427 267.715C529.925 267.645 530.29 267.571 530.524 267.493C530.757 267.415 530.874 267.264 530.874 267.038C530.874 266.82 530.788 266.649 530.617 266.525C530.454 266.392 530.205 266.326 529.87 266.326C529.497 266.326 529.217 266.396 529.03 266.536C528.843 266.669 528.738 266.879 528.715 267.166H527.303C527.311 266.902 527.369 266.653 527.478 266.42C527.587 266.179 527.747 265.969 527.957 265.79C528.167 265.611 528.431 265.467 528.75 265.358C529.069 265.249 529.446 265.195 529.882 265.195C530.776 265.195 531.418 265.389 531.807 265.778C532.204 266.159 532.402 266.7 532.402 267.4V270.445C532.402 270.896 532.472 271.173 532.612 271.274V271.332H531.084ZM529.497 270.364C529.722 270.364 529.921 270.332 530.092 270.27C530.271 270.2 530.419 270.115 530.535 270.014C530.66 269.905 530.753 269.784 530.815 269.652C530.878 269.512 530.909 269.368 530.909 269.22V268.322C530.769 268.407 530.598 268.477 530.395 268.532C530.201 268.578 530.002 268.625 529.8 268.672C529.38 268.765 529.069 268.874 528.867 268.998C528.664 269.123 528.563 269.325 528.563 269.605C528.563 269.885 528.649 270.084 528.82 270.2C528.991 270.309 529.217 270.364 529.497 270.364ZM533.434 262.989H535.021V271.332H533.434V262.989ZM536.089 262.989H537.676V271.332H536.089V262.989ZM541.533 271.507C541.035 271.507 540.592 271.425 540.203 271.262C539.822 271.099 539.499 270.877 539.234 270.597C538.97 270.309 538.768 269.971 538.628 269.582C538.495 269.193 538.429 268.777 538.429 268.333C538.429 267.89 538.499 267.478 538.639 267.096C538.787 266.708 538.989 266.373 539.246 266.093C539.511 265.813 539.822 265.591 540.18 265.428C540.545 265.265 540.946 265.183 541.381 265.183C541.864 265.183 542.288 265.272 542.653 265.451C543.019 265.622 543.326 265.867 543.575 266.186C543.824 266.505 544.011 266.886 544.135 267.33C544.267 267.765 544.333 268.252 544.333 268.788H539.993C540.055 269.255 540.211 269.621 540.46 269.885C540.716 270.15 541.07 270.282 541.521 270.282C541.833 270.282 542.081 270.216 542.268 270.084C542.455 269.951 542.591 269.772 542.677 269.547H544.24C544.186 269.811 544.085 270.064 543.937 270.305C543.797 270.539 543.61 270.745 543.377 270.924C543.151 271.103 542.883 271.243 542.572 271.344C542.26 271.453 541.914 271.507 541.533 271.507ZM541.405 266.408C540.985 266.408 540.666 266.525 540.448 266.758C540.23 266.984 540.086 267.295 540.016 267.692H542.677C542.653 267.31 542.525 267.003 542.291 266.77C542.066 266.529 541.77 266.408 541.405 266.408ZM546.596 266.303H546.631C546.81 265.961 547.013 265.704 547.238 265.533C547.464 265.362 547.752 265.276 548.102 265.276C548.265 265.276 548.389 265.292 548.475 265.323V266.711H548.44C547.919 266.657 547.491 266.77 547.156 267.05C546.822 267.33 546.655 267.785 546.655 268.415V271.332H545.068V265.346H546.596V266.303ZM549.344 272.044H549.904C550.223 272.044 550.449 271.97 550.581 271.822C550.721 271.674 550.791 271.476 550.791 271.227C550.791 271.149 550.783 271.064 550.767 270.97C550.752 270.869 550.725 270.756 550.686 270.632C550.655 270.507 550.608 270.364 550.546 270.2C550.491 270.029 550.421 269.831 550.336 269.605L548.726 265.346H550.394L551.281 268.042C551.328 268.182 551.37 268.329 551.409 268.485C551.456 268.633 551.499 268.773 551.538 268.905C551.576 269.053 551.619 269.201 551.666 269.348H551.689C551.72 269.201 551.755 269.053 551.794 268.905C551.825 268.773 551.86 268.633 551.899 268.485C551.946 268.329 551.993 268.182 552.039 268.042L552.879 265.346H554.478L552.389 271.484C552.273 271.818 552.152 272.098 552.028 272.324C551.911 272.557 551.771 272.744 551.608 272.884C551.452 273.032 551.265 273.137 551.047 273.199C550.837 273.261 550.581 273.292 550.277 273.292H549.344V272.044ZM560.336 271.519C559.2 271.519 558.321 271.281 557.699 270.807C557.084 270.325 556.761 269.64 556.73 268.753H558.387C558.449 269.259 558.628 269.621 558.924 269.838C559.22 270.049 559.667 270.154 560.266 270.154C560.484 270.154 560.69 270.134 560.884 270.095C561.079 270.056 561.25 269.994 561.398 269.909C561.545 269.823 561.662 269.714 561.748 269.582C561.841 269.442 561.888 269.275 561.888 269.08C561.888 268.878 561.837 268.711 561.736 268.578C561.643 268.446 561.507 268.337 561.328 268.252C561.149 268.158 560.931 268.08 560.674 268.018C560.425 267.948 560.141 267.878 559.822 267.808C559.449 267.723 559.087 267.629 558.737 267.528C558.395 267.419 558.092 267.275 557.827 267.096C557.57 266.918 557.36 266.688 557.197 266.408C557.042 266.128 556.964 265.77 556.964 265.335C556.964 264.922 557.042 264.561 557.197 264.249C557.36 263.938 557.582 263.678 557.862 263.468C558.15 263.258 558.488 263.102 558.877 263.001C559.266 262.892 559.694 262.838 560.161 262.838C561.102 262.838 561.857 263.059 562.424 263.503C563 263.946 563.319 264.592 563.381 265.44H561.759C561.713 265.02 561.542 264.704 561.246 264.494C560.95 264.284 560.585 264.179 560.149 264.179C559.69 264.179 559.325 264.269 559.052 264.448C558.78 264.627 558.644 264.864 558.644 265.16C558.644 265.331 558.679 265.475 558.749 265.591C558.827 265.7 558.94 265.797 559.087 265.883C559.243 265.969 559.433 266.042 559.659 266.105C559.885 266.167 560.153 266.233 560.464 266.303C560.892 266.396 561.293 266.501 561.666 266.618C562.047 266.727 562.378 266.875 562.658 267.061C562.946 267.248 563.171 267.485 563.335 267.773C563.498 268.061 563.58 268.431 563.58 268.882C563.58 269.302 563.498 269.679 563.335 270.014C563.171 270.34 562.946 270.616 562.658 270.842C562.37 271.06 562.028 271.227 561.631 271.344C561.234 271.46 560.803 271.519 560.336 271.519ZM564.462 265.346H565.99V266.093H566.025C566.22 265.829 566.457 265.611 566.737 265.44C567.025 265.268 567.375 265.183 567.787 265.183C568.184 265.183 568.542 265.261 568.861 265.416C569.18 265.572 569.452 265.79 569.677 266.07C569.911 266.342 570.086 266.673 570.202 267.061C570.327 267.45 570.389 267.878 570.389 268.345C570.389 268.827 570.327 269.267 570.202 269.663C570.078 270.052 569.899 270.383 569.666 270.655C569.44 270.928 569.168 271.138 568.849 271.285C568.53 271.433 568.18 271.507 567.799 271.507C567.379 271.507 567.029 271.429 566.749 271.274C566.469 271.118 566.243 270.912 566.072 270.655H566.049V273.292H564.462V265.346ZM567.46 270.189C567.865 270.189 568.184 270.033 568.417 269.722C568.658 269.403 568.779 268.959 568.779 268.392C568.779 267.824 568.67 267.361 568.452 267.003C568.242 266.645 567.892 266.466 567.402 266.466C567.153 266.466 566.939 266.517 566.76 266.618C566.589 266.719 566.445 266.855 566.329 267.026C566.22 267.198 566.138 267.404 566.084 267.645C566.037 267.878 566.014 268.127 566.014 268.392C566.014 268.936 566.134 269.372 566.375 269.698C566.624 270.025 566.986 270.189 567.46 270.189ZM574.896 271.332C574.85 271.27 574.811 271.176 574.78 271.052C574.749 270.928 574.725 270.799 574.71 270.667H574.686C574.609 270.784 574.519 270.893 574.418 270.994C574.325 271.087 574.208 271.169 574.068 271.239C573.936 271.309 573.776 271.363 573.59 271.402C573.403 271.449 573.181 271.472 572.925 271.472C572.31 271.472 571.808 271.316 571.419 271.005C571.03 270.694 570.836 270.239 570.836 269.64C570.836 269.313 570.898 269.037 571.023 268.812C571.147 268.586 571.318 268.399 571.536 268.252C571.754 268.104 572.007 267.991 572.294 267.913C572.59 267.828 572.905 267.762 573.24 267.715C573.737 267.645 574.103 267.571 574.336 267.493C574.57 267.415 574.686 267.264 574.686 267.038C574.686 266.82 574.601 266.649 574.43 266.525C574.266 266.392 574.017 266.326 573.683 266.326C573.31 266.326 573.03 266.396 572.843 266.536C572.656 266.669 572.551 266.879 572.528 267.166H571.116C571.124 266.902 571.182 266.653 571.291 266.42C571.4 266.179 571.559 265.969 571.769 265.79C571.979 265.611 572.244 265.467 572.563 265.358C572.882 265.249 573.259 265.195 573.695 265.195C574.589 265.195 575.231 265.389 575.62 265.778C576.017 266.159 576.215 266.7 576.215 267.4V270.445C576.215 270.896 576.285 271.173 576.425 271.274V271.332H574.896ZM573.31 270.364C573.535 270.364 573.734 270.332 573.905 270.27C574.084 270.2 574.231 270.115 574.348 270.014C574.473 269.905 574.566 269.784 574.628 269.652C574.69 269.512 574.721 269.368 574.721 269.22V268.322C574.581 268.407 574.41 268.477 574.208 268.532C574.014 268.578 573.815 268.625 573.613 268.672C573.193 268.765 572.882 268.874 572.68 268.998C572.477 269.123 572.376 269.325 572.376 269.605C572.376 269.885 572.462 270.084 572.633 270.2C572.804 270.309 573.03 270.364 573.31 270.364ZM580.001 271.507C579.526 271.507 579.099 271.425 578.717 271.262C578.344 271.099 578.025 270.877 577.761 270.597C577.496 270.309 577.29 269.975 577.142 269.593C577.002 269.205 576.932 268.788 576.932 268.345C576.932 267.902 577.002 267.489 577.142 267.108C577.282 266.719 577.481 266.385 577.737 266.105C578.002 265.817 578.317 265.591 578.682 265.428C579.048 265.265 579.46 265.183 579.919 265.183C580.308 265.183 580.658 265.237 580.969 265.346C581.281 265.455 581.549 265.607 581.774 265.801C582.008 265.988 582.195 266.217 582.335 266.49C582.482 266.754 582.583 267.05 582.638 267.377H581.086C581.032 267.112 580.907 266.894 580.713 266.723C580.526 266.544 580.285 266.455 579.989 266.455C579.507 266.455 579.145 266.626 578.904 266.968C578.663 267.303 578.542 267.762 578.542 268.345C578.542 268.913 578.655 269.372 578.881 269.722C579.114 270.064 579.476 270.235 579.966 270.235C580.293 270.235 580.561 270.154 580.771 269.99C580.981 269.819 581.113 269.562 581.168 269.22H582.696C582.673 269.539 582.591 269.838 582.451 270.119C582.319 270.391 582.136 270.632 581.903 270.842C581.677 271.044 581.401 271.208 581.074 271.332C580.755 271.449 580.398 271.507 580.001 271.507ZM586.2 271.507C585.703 271.507 585.259 271.425 584.87 271.262C584.489 271.099 584.166 270.877 583.902 270.597C583.637 270.309 583.435 269.971 583.295 269.582C583.163 269.193 583.097 268.777 583.097 268.333C583.097 267.89 583.167 267.478 583.307 267.096C583.455 266.708 583.657 266.373 583.913 266.093C584.178 265.813 584.489 265.591 584.847 265.428C585.213 265.265 585.613 265.183 586.049 265.183C586.531 265.183 586.955 265.272 587.321 265.451C587.686 265.622 587.993 265.867 588.242 266.186C588.491 266.505 588.678 266.886 588.802 267.33C588.935 267.765 589.001 268.252 589.001 268.788H584.66C584.722 269.255 584.878 269.621 585.127 269.885C585.384 270.15 585.738 270.282 586.189 270.282C586.5 270.282 586.749 270.216 586.936 270.084C587.122 269.951 587.258 269.772 587.344 269.547H588.907C588.853 269.811 588.752 270.064 588.604 270.305C588.464 270.539 588.277 270.745 588.044 270.924C587.818 271.103 587.55 271.243 587.239 271.344C586.928 271.453 586.582 271.507 586.2 271.507ZM586.072 266.408C585.652 266.408 585.333 266.525 585.115 266.758C584.897 266.984 584.754 267.295 584.684 267.692H587.344C587.321 267.31 587.192 267.003 586.959 266.77C586.733 266.529 586.438 266.408 586.072 266.408ZM592.162 271.507C591.291 271.507 590.618 271.316 590.144 270.935C589.669 270.546 589.409 270.033 589.362 269.395H590.832C590.887 269.745 591.027 269.998 591.252 270.154C591.486 270.309 591.781 270.387 592.139 270.387C592.489 270.387 592.757 270.325 592.944 270.2C593.139 270.076 593.236 269.909 593.236 269.698C593.236 269.558 593.189 269.446 593.096 269.36C593.01 269.275 592.893 269.205 592.746 269.15C592.606 269.096 592.438 269.053 592.244 269.022C592.057 268.983 591.863 268.944 591.661 268.905C591.388 268.851 591.124 268.788 590.867 268.718C590.618 268.648 590.393 268.547 590.19 268.415C589.996 268.283 589.836 268.112 589.712 267.902C589.595 267.692 589.537 267.423 589.537 267.096C589.537 266.77 589.599 266.49 589.724 266.256C589.848 266.015 590.019 265.817 590.237 265.661C590.463 265.498 590.723 265.377 591.019 265.3C591.314 265.222 591.633 265.183 591.976 265.183C592.769 265.183 593.38 265.362 593.807 265.72C594.235 266.077 594.48 266.56 594.543 267.166H593.107C593.069 266.84 592.952 266.614 592.757 266.49C592.563 266.357 592.295 266.291 591.952 266.291C591.641 266.291 591.392 266.35 591.205 266.466C591.019 266.575 590.925 266.739 590.925 266.956C590.925 267.089 590.972 267.194 591.065 267.271C591.159 267.342 591.279 267.404 591.427 267.458C591.583 267.505 591.758 267.544 591.952 267.575C592.154 267.606 592.361 267.645 592.571 267.692C592.82 267.746 593.069 267.808 593.317 267.878C593.574 267.948 593.804 268.053 594.006 268.193C594.208 268.326 594.371 268.504 594.496 268.73C594.62 268.948 594.683 269.232 594.683 269.582C594.683 269.885 594.62 270.157 594.496 270.399C594.371 270.632 594.196 270.83 593.971 270.994C593.753 271.157 593.489 271.281 593.177 271.367C592.874 271.46 592.536 271.507 592.162 271.507Z" fill="#8DA400"/>
<path fill-rule="evenodd" clip-rule="evenodd" d="M484.412 183.006C485.775 184.134 488.172 185 489.931 185L493.038 185L491.109 182.257C489.274 179.65 489.194 178.588 489.479 160.854C489.81 140.312 490.156 138.832 495.957 133.104C505.46 123.719 520.24 126.489 526.161 138.764C528.64 143.903 528.678 144.255 528.678 161.956C528.678 178.684 528.546 180.107 526.781 182.465L524.884 185L528.031 185C529.828 185 532.211 184.145 533.588 183.006L536 181.013L535.98 158.718C535.962 139.208 535.751 135.94 534.288 132.554C531.993 127.245 527.358 122.626 521.361 119.67C514.458 116.267 503.91 116.184 496.906 119.477C491.063 122.224 484.336 129.544 482.997 134.613C482.429 136.763 482.008 147.399 482.005 159.679L482 181.013L484.412 183.006ZM487.689 120.928C489.351 119.398 492.459 117.323 494.593 116.317C498.195 114.619 498.475 114.218 498.475 110.744L498.475 107L491.839 107.283L485.203 107.566L484.935 115.637L484.668 123.709L487.689 120.928ZM494.081 179.998C495.617 181.612 522.383 181.612 523.919 179.998C524.691 179.186 525.011 173.835 524.997 161.962C524.979 147.612 524.722 144.492 523.282 141.157C517.748 128.353 501.432 128.066 495.11 140.662C493.117 144.635 492.983 145.969 492.983 161.873C492.983 173.79 493.31 179.187 494.081 179.998ZM508.902 151.333C517.004 151.333 519.439 151.634 519.822 152.681C520.093 153.423 520.068 154.289 519.767 154.605C519.467 154.922 514.553 155.181 508.847 155.181C499.085 155.181 498.475 155.067 498.475 153.257C498.475 151.445 499.085 151.333 508.902 151.333ZM508.902 143.638C517.004 143.638 519.439 143.939 519.822 144.986C520.093 145.728 520.068 146.594 519.767 146.91C519.467 147.226 514.553 147.485 508.847 147.485C499.085 147.485 498.475 147.372 498.475 145.561C498.475 143.75 499.085 143.638 508.902 143.638ZM522.596 115.696C524.284 116.282 527.391 118.312 529.499 120.209L533.332 123.657L533.064 115.611L532.797 107.566L526.161 107.283L519.525 107L519.525 110.816C519.525 114.291 519.798 114.725 522.596 115.696Z" fill="black"/>
<path fill-rule="evenodd" clip-rule="evenodd" d="M538.192 184.121C530.05 190.206 519.946 193.81 509 193.81C482.043 193.81 460.19 171.957 460.19 145C460.19 132.696 464.743 121.456 472.256 112.871L538.192 184.121ZM546.068 176.755L480.206 105.584C488.278 99.6777 498.232 96.1905 509 96.1905C535.957 96.1905 557.81 118.043 557.81 145C557.81 157.126 553.388 168.219 546.068 176.755ZM570 145C570 178.689 542.689 206 509 206C475.311 206 448 178.689 448 145C448 111.311 475.311 84 509 84C542.689 84 570 111.311 570 145Z" fill="#CDEC0D"/>
<path fill-rule="evenodd" clip-rule="evenodd" d="M347.003 85.3897C325.328 90.0491 307.06 108.192 301.398 130.681C298.904 140.589 299.854 157.924 303.394 167.082C310.121 184.487 322.683 197.225 339.503 203.695C344.752 205.714 347.255 206.002 359.503 205.997C371.513 205.992 374.34 205.677 379.392 203.78C395.846 197.602 409.004 184.281 415.614 167.108C419.152 157.916 420.101 140.583 417.608 130.681C411.884 107.945 393.6 89.9614 371.503 85.3339C362.922 83.5378 355.541 83.5547 347.003 85.3897ZM371.31 96.2922C380.346 98.6388 386.974 102.54 394.012 109.654C403.864 119.612 409.003 131.895 409.003 145.483C409.003 155.758 404.845 168.651 399.358 175.389L397.503 177.667L392.645 172.743L387.788 167.819L390.771 146.656C392.627 133.497 394.235 125.196 395.025 124.71C395.723 124.279 396.024 123.223 395.692 122.363C395.202 121.088 392.917 120.746 383.362 120.517L371.635 120.235L369.569 113.746C367.758 108.055 367.225 107.296 365.251 107.582C362.902 107.923 362.883 109.433 365.149 115.563C366.708 119.78 366.226 120.734 362.538 120.734C360.145 120.734 358.756 121.326 358.046 122.648C357.308 124.024 357.353 124.673 358.206 124.957C359.381 125.347 361.116 137.688 359.996 137.688C359.041 137.688 330.528 106.753 330.211 105.374C329.835 103.737 340.151 98.2479 347.115 96.381C354.198 94.4811 364.197 94.4442 371.31 96.2922ZM336.184 128.962C363.373 157.608 363.002 157.16 363.012 161.349C363.016 163.419 363.304 167.469 363.651 170.35L364.282 175.585L372.392 175.63L380.503 175.675L384.856 180.641C389.987 186.493 389.826 186.909 380.739 191.311C366.502 198.207 352.745 198.194 338.003 191.272C325.364 185.337 313.986 170.461 310.952 155.902C309.412 148.512 310.27 135.8 312.787 128.712C314.78 123.101 319.986 113.753 321.119 113.753C321.465 113.753 328.245 120.596 336.184 128.962ZM327.201 155.39C326.088 156.35 324.882 158.146 324.523 159.379L323.868 161.623H341.404C357.674 161.623 358.896 161.497 358.323 159.878C357.983 158.917 356.794 157.122 355.68 155.889C353.789 153.794 352.84 153.645 341.439 153.645C331.244 153.645 328.89 153.933 327.201 155.39ZM322.003 166.133V168.647L341.253 168.377C360.361 168.108 360.505 168.089 360.823 165.862L361.142 163.618H341.573H322.003V166.133ZM325.003 171.442C325.003 171.905 325.949 173.139 327.105 174.184C328.828 175.741 331.099 176.146 339.674 176.426C350.807 176.79 355.301 175.765 357.076 172.457C358.03 170.68 357.358 170.599 341.538 170.599C332.444 170.599 325.003 170.978 325.003 171.442Z" fill="#CDEC0D"/>
<path fill-rule="evenodd" clip-rule="evenodd" d="M364.884 107.745C364.575 108.245 364.996 110.893 365.818 113.629C368.011 120.919 367.869 121.368 363.37 121.368C358.808 121.368 357.602 122.16 359.208 124.096C359.833 124.851 360.595 128.603 360.9 132.433L361.453 139.397L374.339 153.076C381.427 160.599 387.55 166.394 387.948 165.954C388.345 165.513 389.921 156.112 391.448 145.063C392.976 134.014 394.656 124.534 395.18 123.995C397.283 121.836 395.712 121.364 386.098 121.265C371.777 121.119 371.391 120.944 369.453 113.695C367.925 107.983 366.158 105.681 364.884 107.745ZM328.529 155.373C326.559 156.167 324.088 159.278 324.088 160.964C324.088 161.284 331.73 161.547 341.07 161.547C350.41 161.547 358.038 161.199 358.019 160.774C357.961 159.411 355.547 156.769 353.231 155.533C350.612 154.137 331.894 154.016 328.529 155.373ZM363.792 164.694C364.092 167.78 364.565 171.811 364.844 173.652L365.35 177H372.577H379.806L377.756 174.167C376.628 172.608 372.903 168.578 369.477 165.209L363.247 159.085L363.792 164.694ZM321.686 165.325C321.309 165.702 321 166.629 321 167.385C321 168.481 324.945 168.758 340.555 168.758C359.424 168.758 360.11 168.686 360.11 166.698C360.11 164.713 359.424 164.637 341.242 164.637C330.863 164.637 322.063 164.946 321.686 165.325ZM326.461 174.457C329.165 176.838 330.084 177 340.898 177C349.685 177 352.994 176.617 354.735 175.396C355.993 174.514 357.023 173.355 357.023 172.82C357.023 172.251 350.115 171.862 340.298 171.882L323.573 171.914L326.461 174.457Z" fill="black"/>
<mask id="path-10-inside-1_2101_5" fill="white">
<path fill-rule="evenodd" clip-rule="evenodd" d="M194.86 131.12V143.467H172.027V174.306H255.316C260.703 165.762 263.82 155.643 263.82 144.797C263.82 144.352 263.815 143.909 263.805 143.467H222.227V131.12L214.284 121.703H202.803L194.86 131.12Z"/>
</mask>
<path fill-rule="evenodd" clip-rule="evenodd" d="M194.86 131.12V143.467H172.027V174.306H255.316C260.703 165.762 263.82 155.643 263.82 144.797C263.82 144.352 263.815 143.909 263.805 143.467H222.227V131.12L214.284 121.703H202.803L194.86 131.12Z" fill="white" fill-opacity="0.58"/>
<path d="M194.86 143.467V145.148H196.54V143.467H194.86ZM194.86 131.12L193.575 130.037L193.179 130.506V131.12H194.86ZM172.027 143.467V141.786H170.347V143.467H172.027ZM172.027 174.306H170.347V175.986H172.027V174.306ZM255.316 174.306V175.986H256.244L256.738 175.202L255.316 174.306ZM263.805 143.467L265.485 143.428L265.446 141.786H263.805V143.467ZM222.227 143.467H220.546V145.148H222.227V143.467ZM222.227 131.12H223.908V130.506L223.512 130.037L222.227 131.12ZM214.284 121.703L215.568 120.619L215.065 120.022H214.284V121.703ZM202.803 121.703V120.022H202.022L201.518 120.619L202.803 121.703ZM196.54 143.467V131.12H193.179V143.467H196.54ZM172.027 145.148H194.86V141.786H172.027V145.148ZM173.708 174.306V143.467H170.347V174.306H173.708ZM255.316 172.625H172.027V175.986H255.316V172.625ZM262.14 144.797C262.14 155.317 259.117 165.126 253.895 173.409L256.738 175.202C262.289 166.398 265.501 155.97 265.501 144.797H262.14ZM262.124 143.507C262.134 143.936 262.14 144.366 262.14 144.797H265.501C265.501 144.339 265.496 143.883 265.485 143.428L262.124 143.507ZM222.227 145.148H263.805V141.786H222.227V145.148ZM220.546 131.12V143.467H223.908V131.12H220.546ZM212.999 122.786L220.942 132.204L223.512 130.037L215.568 120.619L212.999 122.786ZM202.803 123.383H214.284V120.022H202.803V123.383ZM196.144 132.204L204.088 122.786L201.518 120.619L193.575 130.037L196.144 132.204Z" fill="black" mask="url(#path-10-inside-1_2101_5)"/>
<circle cx="208.68" cy="114.073" r="5.80722" fill="black"/>
<path d="M197.932 131.24V144.388H219.425V131.24L213.187 123.963H204.17L197.932 131.24Z" fill="black"/>
<rect x="205.541" y="130.908" width="6.27446" height="13.6169" fill="white"/>
<path d="M206.648 150.495L208.614 150.495L208.614 152.461L206.648 152.461L206.648 150.495ZM206.648 154.427L208.614 154.427L208.614 168.189L206.648 168.189L206.648 154.427Z" fill="#CDEC0D"/>
<circle cx="207.621" cy="159.12" r="11.8426" stroke="#CDEC0D" stroke-width="1.25454"/>
<circle cx="209" cy="145" r="54.6065" stroke="#CDEC0D" stroke-width="12.7871"/>
</svg>
